<?xml version="1.0" encoding="utf-8"?>
<!-- Generator: Adobe Illustrator 22.0.1, SVG Export Plug-In . SVG Version: 6.00 Build 0)  -->
<svg version="1.1" id="Capa_1" xmlns="http://www.w3.org/2000/svg" xmlns:xlink="http://www.w3.org/1999/xlink" x="0px" y="0px"
	 viewBox="0 0 512 512" style="enable-background:new 0 0 512 512;" xml:space="preserve">
<style type="text/css">
	.st0{fill:#82B056;stroke:#FFFFFF;stroke-miterlimit:10;}
	.st1{fill:#82B056;}
</style>
<g>
	<g>
		<g>
			<path class="st0" d="M70.4,465.9c-1.5,2-3.9,3.1-6.4,3.1c-1.8,0-3.4-0.6-4.9-1.6l-0.1-0.1c-3.5-2.7-4.2-7.7-1.5-11.2
				c1.5-2,3.9-3.1,6.4-3.1c1.8,0,3.4,0.6,4.9,1.7l0.1,0.1c1.7,1.3,2.8,3.2,3.1,5.3C72.3,462.1,71.7,464.2,70.4,465.9z"/>
		</g>
	</g>
</g>
<g>
	<g>
		<g>
			<path class="st0" d="M70.4,383.9c-1.5,2-3.9,3.1-6.4,3.1c-1.8,0-3.4-0.6-4.9-1.6l-0.1-0.1c-3.5-2.7-4.2-7.7-1.5-11.2
				c1.5-2,3.9-3.1,6.4-3.1c1.8,0,3.4,0.6,4.9,1.7l0.1,0.1c1.7,1.3,2.8,3.2,3.1,5.3C72.3,380.1,71.7,382.2,70.4,383.9z"/>
		</g>
	</g>
</g>
<g>
	<g>
		<g>
			<path class="st0" d="M70.4,301.9c-1.5,2-3.9,3.1-6.4,3.1c-1.8,0-3.4-0.6-4.9-1.6l-0.1-0.1c-3.5-2.7-4.2-7.7-1.5-11.2
				c1.5-2,3.9-3.1,6.4-3.1c1.8,0,3.4,0.6,4.9,1.7l0.1,0.1c1.7,1.3,2.8,3.2,3.1,5.3C72.3,298.1,71.7,300.2,70.4,301.9z"/>
		</g>
	</g>
</g>
<g>
	<g>
		<g>
			<path class="st0" d="M454.4,465.9c-1.5,2-3.9,3.2-6.4,3.2c-1.8,0-3.4-0.6-4.8-1.6l-0.1-0.1c-1.7-1.3-2.8-3.2-3.1-5.3
				c-0.3-2.1,0.3-4.2,1.6-5.9c1.5-2,3.8-3.2,6.4-3.2c1.8,0,3.4,0.6,4.8,1.6l0.1,0.1C456.3,457.3,457,462.4,454.4,465.9z"/>
		</g>
	</g>
</g>
<g>
	<g>
		<g>
			<path class="st0" d="M454.4,383.9c-1.5,2-3.9,3.2-6.4,3.2c-1.8,0-3.4-0.6-4.8-1.6l-0.1-0.1c-3.5-2.7-4.2-7.7-1.5-11.2
				c1.5-2,3.8-3.2,6.4-3.2c1.8,0,3.4,0.6,4.8,1.6l0.1,0.1c1.7,1.3,2.8,3.2,3.1,5.3C456.2,380.1,455.7,382.2,454.4,383.9z"/>
		</g>
	</g>
</g>
<g>
	<g>
		<g>
			<path class="st0" d="M454.4,301.9c-1.5,2-3.9,3.2-6.4,3.2c-1.8,0-3.4-0.6-4.8-1.6l-0.1-0.1c-3.5-2.7-4.2-7.7-1.5-11.2
				c1.5-2,3.8-3.2,6.4-3.2c1.8,0,3.4,0.6,4.8,1.6l0.1,0.1c1.7,1.3,2.8,3.2,3.1,5.3C456.2,298.1,455.7,300.2,454.4,301.9z"/>
		</g>
	</g>
</g>
<g>
	<g>
		<g>
			<path class="st0" d="M377.5,338c0,4.4-3.6,8-8,8h-0.1c-4.4,0-8-3.6-8-8s3.6-8,8-8h0.1C373.9,330,377.5,333.6,377.5,338z"/>
		</g>
	</g>
</g>
<g>
	<g>
		<g>
			<path class="st0" d="M150.7,420c0,4.4-3.6,8-8,8h-0.1c-4.4,0-8-3.6-8-8s3.6-8,8-8h0.1C147.1,412,150.7,415.6,150.7,420z"/>
		</g>
	</g>
</g>
<g>
	<g>
		<g>
			<path class="st0" d="M81.7,192.3c0,2.1-0.8,4.2-2.3,5.7s-3.5,2.3-5.7,2.3c-2.1,0-4.2-0.9-5.7-2.3s-2.3-3.5-2.3-5.7
				c0-2.1,0.9-4.2,2.3-5.7s3.6-2.3,5.7-2.3s4.2,0.9,5.7,2.3C80.9,188.1,81.7,190.2,81.7,192.3z"/>
		</g>
	</g>
</g>
<g>
	<g>
		<g>
			<g>
				<path class="st1" d="M502,248.5h-50.9l8.1-4.6c17.7-10.2,28.7-29.1,28.7-49.5c0-21.7-12-41.3-31.4-51l-2.1-1.1l1-2.2
					c3.3-7.4,5-15.2,5-23.3c0-31.4-25.6-57-57-57c-9.9,0-19.3,2.5-27.8,7.3l-1.4,0.8l-1.3-0.9c-11.4-8-24.7-12.2-38.4-12.2
					c-0.9,0-1.8,0-2.8,0.1l-1.9,0.1l-0.6-1.8c-5.1-14.7-14.5-27.3-27.2-36.5c-13-9.2-28.2-14.2-43.8-14.2
					c-28.7,0-55.1,16.7-67.5,42.5l-0.7,1.6l-1.8-0.1c-2.2-0.2-4.7-0.3-7-0.3c-30.2,0-57.3,18-69,45.8l-0.9,2.1l-2.1-0.6
					c-1.8-0.5-4-1.2-6.3-1.7l-2.1-0.5l0.3-2.1c1.2-13.4,5.5-23.7,12.9-30.7c4.4-4.2,8.7-6.1,11.1-6.9v-0.4l2.4-0.4
					c1.8-0.3,3.2-1,4.2-2.2c1.4-1.4,2.2-3.3,2.2-5.3c0-1.9-0.8-3.9-2.2-5.4c-1.3-1.3-3.3-2.1-5.3-2.1c-0.4,0-0.8,0-1.2,0.1l-1.3,0.2
					c-3.8,0.8-11.3,3.2-18.9,10.2l-4.1,3.8V10c0-4.1-3.4-7.5-7.5-7.5h-24c-4.1,0-7.5,3.4-7.5,7.5v44.4l-4.4-5.5
					c-9-11.1-18.9-18.7-23.9-22.2c-0.2-0.1-0.3-0.2-0.4-0.3c-1.3-0.8-2.7-1.2-4.1-1.2c-2.5,0-4.8,1.3-6.3,3.4
					c-2.3,3.5-1.3,8.2,2.2,10.4c1.3,0.9,31.6,21.4,36.2,51.3l0.4,2.1l-2.3,0.7c-16.1,4.9-30.6,14.6-40.7,27.3
					c-10.5,13.1-16,28.8-16,45.2c0,11.5,5.7,39.1,16.4,79.7l0.8,3.1H10c-4.1,0-7.5,3.4-7.5,7.5v246c0,4.1,3.4,7.5,7.5,7.5h492
					c4.1,0,7.5-3.4,7.5-7.5V256C509.5,251.9,506.1,248.5,502,248.5z M126,97.9c9.3-22.3,31-36.8,55.3-36.8c4.1,0,8.1,0.4,11.9,1.2
					c0.6,0.1,1.1,0.2,1.5,0.2c3.2,0,6-2,7-5c8.5-23.9,31.2-39.9,56.5-39.9c24.2,0,46.6,15.2,55.7,37.7l1,2.4l-2.5,0.9
					c-26.8,9.3-44.8,34.6-44.8,63c0,4.1,3.4,7.5,7.5,7.5s7.5-3.4,7.5-7.5c0-28.6,23.2-51.8,51.8-51.8c12.6,0,24.8,4.6,34.3,13
					c1.4,1.2,3.2,1.9,5,1.9c1.6,0,3.1-0.5,4.5-1.5c7.3-5.5,16-8.4,25.2-8.4c23.2,0,42,18.8,42,42c0,9.2-2.9,17.9-8.3,25.1
					c-1.5,2.1-1.9,4.6-1,7c0.8,2.3,2.8,4.1,5.3,4.8c18.6,4.8,31.7,21.5,31.7,40.7c0,23.2-18.8,42-42,42c-2.5,0-5.2-0.3-8-0.8
					c-0.5-0.1-0.9-0.1-1.4-0.1c-3.2,0-6,2-7,5c-0.8,2.4-1.9,4.6-3.1,6.8l-0.8,1.3h-18.9l2.8-3.9l40.9-58.7c1.1-1.7,1.6-3.8,1.2-5.7
					c-0.4-2-1.5-3.8-3.2-4.9L404.4,156c-1.2-0.8-2.5-1.2-4.1-1.2c-0.6,0-1.1,0.1-1.7,0.2c-2,0.5-3.8,1.8-4.8,3.5L379,182.6
					l-7.4,12.1l14.6-74.4c0.8-4-1.9-8-5.8-8.8l-25.4-5.2c-0.6-0.1-1.1-0.2-1.5-0.2c-1.4,0-2.9,0.4-4.2,1.3c-1.6,1.1-2.8,2.9-3.2,4.9
					l-3.7,19.5H317c-4.1,0-7.5,3.4-7.5,7.5v58l-4.9,0.5l-0.1-0.4c-6.6-33.5-36.1-57.8-70.2-57.8c-15.6,0-30.5,5-43,14.4
					c-10.2,7.6-18.2,18.1-23.2,30.2l-8.5,20.9l3.8-22.3c1.3-7.8,1.9-13.3,1.9-17c0-12.6-3.4-25.2-9.8-36.3l-0.6-1l0.4-1.1
					c5.7-15.3,20.4-25.6,36.7-25.6c2.5,0,5.1,0.3,7.8,0.8c0.6,0.1,1.1,0.2,1.5,0.2c3.1,0,6-2,7-5c2.3-6.5,6.3-12.3,11.5-16.8
					c3.1-2.7,3.5-7.4,0.8-10.6c-1.4-1.7-3.4-2.6-5.7-2.6c-1.8,0-3.6,0.6-4.9,1.8c-5.3,4.5-9.6,9.9-12.8,16.1l-0.8,1.4l-1.6-0.1
					c-1-0.1-2-0.1-3-0.1c-18.8,0-36,9.5-45.9,25.5l-1.6,2.6l-2.2-2.1c-4.4-4.3-9.5-8.2-15.4-11.6l-1.9-1.2L126,97.9z M361.7,245.5
					l1.6-7.9l0.2-0.3l39.1-64.6l2.1,1.5l14,9.3l-1.5,2.1l-43.1,61.8l-0.7,1.1H361L361.7,245.5z M355.5,199.7l-4.9-0.5v-28.6l0.1-0.3
					c0-0.1,0-0.3,0.1-0.3v-0.2l8.4-45l0.5-2.5l2.5,0.5l8.1,1.7l-0.5,2.5L355.5,199.7z M324.8,229.6l-0.3-0.6l0.1-0.7v-0.8v-80.7
					h10.9v101.7h-8.2l0.1-2.6v-1.8C327.5,239.1,326.6,234.2,324.8,229.6z M190,184.5h-5.5l2.5-3.9c10.4-16.1,28.6-26.1,47.6-26.1
					c27.3,0,50.6,19.4,55.5,46.2l0.5,2.9h-3c-12.4,0.1-24.3,6.3-31.7,16.7l-2.3,3.1l-2-3.4C239,198.1,215.4,184.5,190,184.5z
					 M246.1,248.5H133.9l0.5-3c5.1-26.7,28.4-46,55.5-46s50.4,19.3,55.5,46L246.1,248.5z M271,225.9c4.6-4.6,10.6-7.2,17-7.2
					c13.5,0,24.5,11.4,24.5,25.4c0,0.6,0,1.3-0.1,2.1l-0.1,2.2h-48.4l-0.1-2.3c0-0.4,0-0.7,0-1.1c0-0.3-0.1-0.7-0.1-1
					C263.5,237.2,266.2,230.7,271,225.9z M76.7,17.5h9v72h-2.5c-1.4,0-2.7,0-3.9,0.1l-2.6,0.1V17.5z M17.5,165.7
					c0-2.7,0.2-5.4,0.6-8.3l0.4-2.6l2.6,0.5c0.5,0.1,1,0.2,1.4,0.2H72c4.1,0,7.5-3.4,7.5-7.5s-3.4-7.5-7.5-7.5H23.2l2.3-3.8
					c11.7-19.9,34.1-32.2,58.5-32.2c36.7,0,66.5,27.5,66.5,61.2c0,3.4-0.7,8.9-2,16.7l-0.4,2h-41.8c-4.1,0-7.5,3.4-7.5,7.5
					s3.4,7.5,7.5,7.5h39.6l-4.6,4.4c-12,11.2-19.9,26.3-22,42.5l-0.3,2.1H35.2l-0.5-1.9C23.6,205.2,17.5,176.5,17.5,165.7z
					 M494.5,330.5H404c-4.1,0-7.5,3.4-7.5,7.5s3.4,7.5,7.5,7.5h90.5v67H176.6c-4.1,0-7.5,3.4-7.5,7.5s3.4,7.5,7.5,7.5h317.9v67h-477
					v-67H108c4.1,0,7.5-3.4,7.5-7.5s-3.4-7.5-7.5-7.5H17.5v-67h317.9c4.1,0,7.5-3.4,7.5-7.5s-3.4-7.5-7.5-7.5H17.5v-67h477V330.5z"
					/>
			</g>
		</g>
	</g>
</g>
<g>
	<g>
		<g>
			<path class="st0" d="M253.5,64c0,4.4-3.6,8-8,8h-0.1c-4.4,0-8-3.6-8-8s3.6-8,8-8h0.1C249.9,56,253.5,59.6,253.5,64z"/>
		</g>
	</g>
</g>
</svg>
