<?xml version="1.0" encoding="utf-8"?>
<!-- Generator: Adobe Illustrator 22.0.1, SVG Export Plug-In . SVG Version: 6.00 Build 0)  -->
<svg version="1.1" id="Layer_1" xmlns="http://www.w3.org/2000/svg" xmlns:xlink="http://www.w3.org/1999/xlink" x="0px" y="0px"
	 viewBox="0 0 512 512" style="enable-background:new 0 0 512 512;" xml:space="preserve">
<style type="text/css">
	.st0{fill:#82B056;stroke:#82B056;stroke-miterlimit:10;}
</style>
<g>
	<g>
		<path class="st0" d="M485.3,448.3L330.8,239.6l-1.2-1.6V86.1l3.9-1.5c9.9-3.6,17.7-10.9,22.1-20.4c4.4-9.6,4.8-20.2,1.2-30.1
			C351.2,19,336.4,8.6,320.2,8.5H188.6c-10.5,0-20.4,4.1-27.7,11.6c-7.5,7.5-11.5,17.3-11.5,27.8c0,16.2,10.3,30.9,25.4,36.6
			l3.9,1.5v151.9l-1.2,1.6L23.1,448c-14.9,20.6-11.6,34.6-8.3,41.1c3.3,6.7,12.8,17.8,38.1,17.8h402.8c5.9,0,10.9-0.7,15.2-1.6V492
			c-4.3,1.5-9.3,2.1-15.2,2.1H52.7c-13.3,0-22.9-3.9-26.4-10.7c-3.5-6.9-0.8-16.9,7.1-27.6l157.1-211.7c0.8-1.1,1.2-2.4,1.2-3.9
			V87.2h27.8c3.6,0,6.5-2.9,6.5-6.5s-2.9-6.5-6.5-6.5H189c-14.2,0-26.4-11.1-26.9-25.3c-0.5-14.9,11.5-27.3,26.2-27.3h130.9
			c14.2,0,26.4,11.1,26.9,25.3c0.5,14.9-11.5,27.2-26.2,27.2h-28.1c-3.9,0-6.9,3.3-6.5,7.2c0.3,3.3,3.3,5.9,6.8,5.9h24.2v153.1
			c0,1.5,0.4,2.8,1.3,3.9l157.1,211.9l0,0l0,0c7.7,11.1,10.1,20.8,6.8,27.6l0,0c-3.1,3.5-6.8,6.3-10.9,8.3h-0.1v13.4
			c14.1-3.3,20.2-11.2,22.9-16.2C497,482.6,500.3,468.5,485.3,448.3z"/>
	</g>
	<g>
		<path class="st0" d="M382.2,367.1c0,3.6-2.9,6.5-6.5,6.5h-0.1c-0.7,0-1.2,0-1.9,0c-13.4,0-27-3.1-39.1-8.9
			c-10.7-5.3-22.6-8.1-34.5-8.1c-0.7,0-1.2,0-1.9,0c-0.7,0-1.3,0-2,0c-11.9,0-23.7,2.8-34.2,8c-12.1,5.9-25.6,8.9-38.9,8.9
			c-0.7,0-1.3,0-2,0h-0.3c-0.5,0-1.1,0-1.5,0c-13.4,0-26.9-3.1-39-8.9c-9.6-4.8-19.8-7.3-30.4-7.9c-3.6-0.3-6.4-3.3-6.1-6.9
			c0.1-3.5,3.1-6.3,6.5-6.3c0.1,0,0.3,0,0.4,0c12,0.5,23.6,3.5,34.5,8.7c10.7,5.3,22.5,8,34.5,8c0.7,0,1.2,0,1.9,0s1.3,0,2,0
			c11.9,0,23.7-2.8,34.2-8c12.1-5.9,25.6-8.9,38.9-8.9c0.7,0,1.3,0,2,0h0.3c0.7,0,1.2,0,1.9,0c13.4,0,27,3.1,39.1,8.9
			c10.7,5.3,22.6,8.1,34.5,8.1c0.5,0,0.9,0,1.5,0v0.1C379.3,360.5,382.2,363.5,382.2,367.1z"/>
	</g>
	<g>
		<path class="st0" d="M256.5,220.2c0,7.5-6,13.4-13.4,13.4s-13.4-6-13.4-13.4c0-7.5,6-13.4,13.4-13.4
			C250.5,206.6,256.5,212.7,256.5,220.2z"/>
	</g>
	<g>
		<path class="st0" d="M287.6,290.8c0,5.1-4.1,9.2-9.3,9.2c-5.2,0-9.3-4.1-9.3-9.2s4.1-9.3,9.3-9.3
			C283.4,281.4,287.6,285.7,287.6,290.8z"/>
	</g>
	<g>
		<circle class="st0" cx="263.3" cy="142.8" r="10.1"/>
	</g>
</g>
<path class="st0" d="M484.9,257.9c0-61.7-24-119.6-67.6-163.1c-43.5-43.5-101.5-67.6-163.1-67.6S134.6,51.1,91,94.7
	c-43.5,43.5-67.6,101.5-67.6,163.1S47.3,377.4,91,421c43.5,43.5,101.5,67.6,163.1,67.6s119.6-24,163.1-67.6
	C460.9,377.4,484.9,319.5,484.9,257.9z M76.1,384.1l362.3-243.3c21.6,33.8,34.1,74,34.1,117c0,120.4-98,218.4-218.4,218.4
	C180.8,476.2,115.8,439.8,76.1,384.1z M429.4,127.6L67.3,370.8c-20-33-31.6-71.6-31.6-112.9c0-120.4,98-218.4,218.4-218.4
	C325.9,39.5,389.5,74.1,429.4,127.6z"/>
</svg>
