<?xml version="1.0" encoding="utf-8"?>
<!-- Generator: Adobe Illustrator 22.0.1, SVG Export Plug-In . SVG Version: 6.00 Build 0)  -->
<svg version="1.1" id="Layer_1" xmlns="http://www.w3.org/2000/svg" xmlns:xlink="http://www.w3.org/1999/xlink" x="0px" y="0px"
	 viewBox="0 0 512 512" style="enable-background:new 0 0 512 512;" xml:space="preserve">
<style type="text/css">
	.st0{fill:#82B056;}
</style>
<path class="st0" d="M428.6,0h-392C32.4,0,29,3.4,29,7.6v406.8c0,4.2,3.4,7.6,7.6,7.6s7.6-3.4,7.6-7.6V15.2h331.6
	c21.2,0,38.4,17.2,38.4,38.4v91.1c0,4.2,3.4,7.6,7.6,7.6s7.6-3.4,7.6-7.6V53.6c0-15.1-6.2-28.7-16.3-38.4h15.4
	c21.2,0,38.4,17.2,38.4,38.4v404.8c0,21.2-17.2,38.4-38.4,38.4h-15.4c10-9.8,16.3-23.4,16.3-38.4V175.2c0-4.2-3.4-7.6-7.6-7.6
	s-7.6,3.4-7.6,7.6v283.2c0,21.2-17.2,38.4-38.4,38.4H44.2v-51.9c0-4.2-3.4-7.6-7.6-7.6s-7.6,3.4-7.6,7.6v59.5c0,4.2,3.4,7.6,7.6,7.6
	h392c29.6,0,53.6-24.1,53.6-53.6V53.6C482.2,24.1,458.1,0,428.6,0z"/>
<path class="st0" d="M167.8,107.7c-4.2,0-6.4,3-8,5.9l-11.4,21.8L137,113.7c-1.4-2.8-3.6-6-8.1-6c-3.7,0-6.2,2.4-6.2,6.1v57.1
	c0,3,2.6,5.1,6.2,5.1c3.6,0,6.2-2.2,6.2-5.1v-35.4l8.2,15.8c1.1,2.1,2.9,3.3,4.9,3.3c1.2,0,3.6-0.4,5.1-3.3l8.3-15.6V171
	c0,3,2.6,5.1,6.2,5.1s6.2-2.2,6.2-5.1v-57.1C173.9,110.2,171.4,107.7,167.8,107.7z"/>
<path class="st0" d="M224.7,119.4c2.9,0,5-2.5,5-5.9c0-3.3-2.1-5.7-5-5.7h-30.8c-3.3,0-5.8,2.2-5.8,5.1V171c0,2.9,2.5,5.1,5.8,5.1
	h30.8c2.9,0,5-2.4,5-5.7c0-3.4-2.2-5.9-5-5.9h-24.3v-17h11c2.9,0,5-2.4,5-5.5c0-3.2-2.2-5.6-5-5.6h-11v-16.9h24.3V119.4z"/>
<path class="st0" d="M245.6,176c3.6,0,6.2-2.2,6.2-5.1v-33.8l17.7,34.3v0.1c1.6,3,4,4.6,6.8,4.6c3.6,0,6.2-2.2,6.2-5.1v-58.1
	c0-3-2.5-5-6.2-5s-6.2,2.1-6.2,5v33.7l-16.8-32.8c-1.6-3.1-3.6-6-7.8-6c-4.3,0-6.2,2.5-6.2,5v58.1C239.4,173.9,242,176,245.6,176z"
	/>
<path class="st0" d="M302.5,107.7c-3.6,0-6.2,2.1-6.2,5v42.4c0,13.6,7.8,21.4,21.4,21.4c13.7,0,21.5-7.8,21.5-21.4v-42.4
	c0-2.9-2.6-5-6.2-5s-6.2,2.1-6.2,5v42.4c0,6.7-2.9,9.8-9.1,9.8s-9.1-3.1-9.1-9.8v-42.4C308.7,109.8,306.1,107.7,302.5,107.7z"/>
<path class="st0" d="M348.7,284.6L348.7,284.6c0,3.9-3.2,7.1-7.1,7.1H129.8c-3.9,0-7.1-3.2-7.1-7.1l0,0c0-3.9,3.2-7.1,7.1-7.1h211.8
	C345.6,277.5,348.7,280.7,348.7,284.6z"/>
<path class="st0" d="M348.7,317.3L348.7,317.3c0,3.9-3.2,7.1-7.1,7.1H129.8c-3.9,0-7.1-3.2-7.1-7.1l0,0c0-3.9,3.2-7.1,7.1-7.1h211.8
	C345.6,310.2,348.7,313.4,348.7,317.3z"/>
<path class="st0" d="M348.7,349.9L348.7,349.9c0,3.9-3.2,7.1-7.1,7.1H129.8c-3.9,0-7.1-3.2-7.1-7.1l0,0c0-3.9,3.2-7.1,7.1-7.1h211.8
	C345.6,342.9,348.7,346,348.7,349.9z"/>
</svg>
