<?xml version="1.0" encoding="utf-8"?>
<!-- Generator: Adobe Illustrator 22.0.1, SVG Export Plug-In . SVG Version: 6.00 Build 0)  -->
<svg version="1.1" id="Capa_1" xmlns="http://www.w3.org/2000/svg" xmlns:xlink="http://www.w3.org/1999/xlink" x="0px" y="0px"
	 viewBox="0 0 512 512" style="enable-background:new 0 0 512 512;" xml:space="preserve">
<style type="text/css">
	.st0{fill:#82B056;}
</style>
<g>
	<g>
		<path class="st0" d="M269.2,32.2h-5.7v-5.7c0-4.1-3.3-7.5-7.5-7.5s-7.5,3.3-7.5,7.5v5.7h-5.7c-4.1,0-7.5,3.3-7.5,7.5
			s3.3,7.5,7.5,7.5h5.7v5.7c0,4.1,3.3,7.5,7.5,7.5c4.1,0,7.5-3.3,7.5-7.5v-5.7h5.7c4.1,0,7.5-3.3,7.5-7.5
			C276.6,35.5,273.3,32.2,269.2,32.2z"/>
	</g>
</g>
<g>
	<g>
		<path class="st0" d="M474.9,486.4l-21.8-127.9c-2.4-13.9-12.2-25-25.7-29.1l-98.1-29.6c-4.3-1.3-8.8-0.7-12.5,1.3
			c-3.5-3.1-6-8.4-6-13.3v-24.5c0.3-0.2,0.5-0.4,0.8-0.7c0.4-0.3,0.8-0.7,1.2-1h9.6c13.3,0,25.7-5.4,34.8-15.1
			c9.1-9.7,13.7-22.4,12.8-35.7l-2.7-42.1v-0.6c0-1.1-0.1-2.3-0.3-3.4l-3-47.1c-0.3-4.1-3.8-7.2-7.9-7c-4.1,0.3-7.3,3.8-7,7.9
			l1.8,27.9c-2-0.6-4-0.9-6.1-0.9h-0.4c-2.2-3.3-5.8-5.6-10.1-6c-77.6-7-99.9-30.2-116.3-47.1c-3.4-3.5-9-3.8-16.5-0.8
			c-13.2,5.2-35.6,22-36.1,51.9c0,0,0,0.1,0,0.1v1.9c-1.5,0.1-2.9,0.4-4.3,0.8l2.3-36.4c1.2-19.4,11-36.7,26.5-47.6l0.6,1.5
			c3.8,9.8,13.3,16.4,23.8,16.4h85.3c10.5,0,20.1-6.6,23.8-16.4l0.1-0.3c8.1,6.1,14.6,14,19,23.2c1.3,2.7,4,4.3,6.7,4.3
			c1.1,0,2.2-0.2,3.2-0.7c3.7-1.8,5.3-6.2,3.5-10c-6.1-12.7-15.3-23.4-26.9-31.2l5.1-13.5c2-5.1,1.6-10.8-1.1-15.6
			c-2.6-4.8-7.2-8.2-12.6-9.3l-42.9-8.7c-13.8-2.8-27.7-2.8-41.5,0l-42.9,8.7c-5.4,1.1-10,4.5-12.6,9.3s-3,10.5-1.1,15.6l4.8,12.4
			c-21.1,13.4-34.4,35.8-36,61l-3.5,56c-0.1,1-0.2,2-0.2,3.1v0.6l-2.7,42.1c-0.8,13.3,3.7,26,12.8,35.7c9.1,9.7,21.5,15.1,34.8,15.1
			h9.6c0.4,0.4,0.8,0.7,1.2,1c0.3,0.2,0.5,0.4,0.8,0.7v24.5c0,4.9-2.5,10.2-6,13.3c-3.7-2-8.2-2.6-12.5-1.3l-98.1,29.6
			c-13.5,4.1-23.3,15.2-25.7,29.1l-8.2,48.1c-0.7,4.1,2,7.9,6.1,8.6c4.1,0.7,7.9-2,8.6-6.1l8.2-48.1c1.4-8.2,7.3-14.9,15.3-17.3
			l98.1-29.6c0.6-0.2,1.3,0.1,1.6,0.7c0,0,0,0,0,0l46.8,92.5c1.2,2.4,2.8,4.6,4.8,6.4c4.2,4,9.8,6.2,15.8,6.2
			c3.8,0,7.5-0.9,10.7-2.6c4.2-2.2,7.6-5.6,9.8-10l46.8-92.5c0.3-0.6,1-0.9,1.6-0.7l98.1,29.6c8,2.4,13.9,9,15.3,17.3l21.8,127.9
			c0.5,2.8-0.8,4.7-1.5,5.6c-0.8,0.9-2.5,2.5-5.3,2.5h-46.3l-12.2-71.5c-0.7-4.1-4.6-6.8-8.6-6.1c-4.1,0.7-6.8,4.6-6.1,8.6l11.8,69
			H120.1l11.8-69c0.7-4.1-2-7.9-6.1-8.6c-4.1-0.7-7.9,2-8.6,6.1L104.9,497H58.6c-2.8,0-4.5-1.5-5.3-2.5s-2-2.9-1.5-5.6l7.6-44.5
			c0.7-4.1-2-7.9-6.1-8.6c-4.1-0.7-7.9,2-8.6,6.1L37,486.4c-1.1,6.4,0.7,12.9,4.8,17.8s10.3,7.8,16.7,7.8c0,0,0,0,0,0h394.7
			c6.5,0,12.6-2.8,16.7-7.8C474.3,499.3,476,492.8,474.9,486.4z M193.9,27.3c0.3-0.6,1-1.5,2.5-1.8l42.9-8.7
			C245.1,15.6,251,15,257,15c5.9,0,11.9,0.6,17.7,1.8l42.9,8.7c0,0,0,0,0,0c1.4,0.3,2.2,1.3,2.5,1.8c0.3,0.6,0.7,1.7,0.2,3.1
			l-10.8,28.2c-1.6,4.1-5.5,6.8-9.9,6.8h-85.3c-4.3,0-8.3-2.7-9.9-6.8l-10.8-28.2C193.1,29,193.6,27.8,193.9,27.3z M355.1,211.8
			c0.6,9.1-2.6,17.9-8.8,24.5c-5.1,5.4-11.7,8.9-18.8,10c8.2-10.2,16.3-23.6,18.6-39c3.1-0.2,6-1,8.7-2.3L355.1,211.8z M165.8,236.3
			c-6.3-6.7-9.4-15.4-8.8-24.5l0.4-6.7c2.6,1.3,5.6,2.1,8.7,2.3c2.3,15.4,10.3,28.8,18.6,39C177.4,245.2,170.8,241.7,165.8,236.3z
			 M264.1,398.8l-0.9,1.9c-0.1,0.3-0.3,0.5-0.4,0.7c0,0.1-0.1,0.2-0.1,0.2c-0.1,0.1-0.2,0.3-0.3,0.4c-0.4,0.5-0.7,0.9-1.2,1.3
			c-0.1,0.1-0.2,0.1-0.3,0.2c-1.4,1-3,1.6-4.8,1.6c-3.1,0-5.8-1.7-7.2-4.4l-31-61.3h76.5L264.1,398.8z M301.8,324.3h-91.7l-5.8-11.4
			c7-5.9,11.8-15.5,11.8-25.1v-12.9c9.8,6.3,22,11.2,39.7,11.4c0,0,0.1,0,0.1,0s0.1,0,0.1,0c17.7-0.2,29.9-5.1,39.7-11.4v12.9
			c0,9.6,4.8,19.2,11.8,25.1L301.8,324.3z M301.8,251.3c-13.8,11.9-24.5,19.7-45.8,20c-21.3-0.3-31.9-8.1-45.8-20
			c-18.4-15.8-29.5-35.1-29.9-51.6c-0.1-4.1-3.4-7.3-7.5-7.3h-5.7c-4.2,0-7.6-3.4-7.6-7.6v-16.7c0-0.3,0-0.7,0.1-1
			c0-0.1,0-0.2,0.1-0.3c0.6-3.5,3.7-6.2,7.4-6.2h5.7c4.1,0,7.5-3.3,7.5-7.5v-9.3c0.4-25.3,22-37.1,28.8-39
			c21.9,22.4,48.9,42.7,122.6,49.5c0.6,3.5,3.7,6.2,7.4,6.2h5.7c3.7,0,6.8,2.7,7.4,6.2c0,0.1,0,0.2,0.1,0.3c0,0.3,0.1,0.7,0.1,1
			v16.7c0,4.2-3.4,7.6-7.6,7.6h-5.7c-4.1,0-7.4,3.3-7.5,7.3C331.3,216.2,320.1,235.5,301.8,251.3z"/>
	</g>
</g>
</svg>
