<?xml version="1.0" encoding="utf-8"?>
<!-- Generator: Adobe Illustrator 22.0.1, SVG Export Plug-In . SVG Version: 6.00 Build 0)  -->
<svg version="1.1" id="Capa_1" xmlns="http://www.w3.org/2000/svg" xmlns:xlink="http://www.w3.org/1999/xlink" x="0px" y="0px"
	 viewBox="0 0 512 512" style="enable-background:new 0 0 512 512;" xml:space="preserve">
<style type="text/css">
	.st0{fill:#82B056;}
</style>
<g>
	<g>
		<path class="st0" d="M415.7,24.4H31.5C14.1,24.4,0,38.5,0,55.9v320.1c0,17.4,14.1,31.5,31.5,31.5h251.6c4.1,0,7.5-3.4,7.5-7.5
			s-3.4-7.5-7.5-7.5h-28V344c0-12.8-7.6-24.2-19.4-29.1l-39.4-16.4c-3.2-1.3-5.2-4.4-5.2-7.9V279c10.1-10.3,16-24.3,16-39v-32
			c0-26.2-24.9-47.5-55.5-47.5S96,181.8,96,208v32c0,14.7,5.9,28.7,16,39v11.7c0,3.4-2.1,6.5-5.2,7.9L67.4,315
			C55.6,319.9,48,331.3,48,344v48.5H31.5c-9.1,0-16.5-7.4-16.5-16.5V119.4h417.2V244c0,4.1,3.4,7.5,7.5,7.5s7.5-3.4,7.5-7.5V55.9
			C447.2,38.5,433.1,24.4,415.7,24.4z M63,344c0-6.7,4-12.7,10.2-15.2l39.4-16.4c8.8-3.7,14.5-12.2,14.5-21.7v-1.6
			c2.8,0.2,5.5-1.2,7-3.7c2.1-3.6,0.9-8.2-2.7-10.2c-12.5-7.2-20.3-20.7-20.3-35.1v-32c0-17.9,18.2-32.5,40.5-32.5
			s40.5,14.6,40.5,32.5v32c0,14.4-7.8,27.9-20.3,35.1c-3.6,2.1-4.8,6.7-2.7,10.2c1.4,2.4,3.9,3.7,6.5,3.7c0.2,0,0.3,0,0.5,0v1.6
			c0,9.5,5.7,18,14.5,21.7l39.4,16.4c6.2,2.6,10.2,8.6,10.2,15.2v48.5H63V344z M432.2,104.4H15V55.9c0-9.1,7.4-16.5,16.5-16.5h384.2
			c9.1,0,16.5,7.4,16.5,16.5V104.4z"/>
	</g>
</g>
<g>
	<g>
		<path class="st0" d="M39.6,64.4L39.6,64.4c-4.2,0-7.5,3.4-7.5,7.5s3.4,7.5,7.5,7.5s7.5-3.4,7.5-7.5S43.7,64.4,39.6,64.4z"/>
	</g>
</g>
<g>
	<g>
		<path class="st0" d="M87.5,64.4L87.5,64.4c-4.2,0-7.5,3.4-7.5,7.5s3.4,7.5,7.5,7.5s7.5-3.4,7.5-7.5S91.7,64.4,87.5,64.4z"/>
	</g>
</g>
<g>
	<g>
		<path class="st0" d="M63.5,64.4L63.5,64.4c-4.2,0-7.5,3.4-7.5,7.5s3.4,7.5,7.5,7.5s7.5-3.4,7.5-7.5S67.7,64.4,63.5,64.4z"/>
	</g>
</g>
<g>
	<g>
		<path class="st0" d="M407.7,64.4H119.5c-4.1,0-7.5,3.4-7.5,7.5s3.4,7.5,7.5,7.5h288.1c4.1,0,7.5-3.4,7.5-7.5
			C415.2,67.8,411.8,64.4,407.7,64.4z"/>
	</g>
</g>
<g>
	<g>
		<path class="st0" d="M507,294.5l-108-37.6c-1.6-0.6-3.3-0.6-4.9,0l-77.7,27c-3.9,1.4-6,5.6-4.6,9.5c1.4,3.9,5.6,6,9.5,4.6
			l75.2-26.2l100.2,34.8c-0.9,9.6-3.8,31-13.6,56.7c-11.9,31.3-36.5,75.1-86.6,107.7c-49.9-32.5-74.5-76-86.4-107.1
			c-13.3-34.9-14.1-62.4-14.1-62.7c-0.1-4.1-3.5-7.4-7.7-7.3c-4.1,0.1-7.4,3.5-7.3,7.7c0,1.2,0.8,29.9,14.9,67.1
			c13,34.3,40.3,82.5,96.7,117.6c1.2,0.8,2.6,1.1,4,1.1s2.8-0.4,4-1.1c56.4-35.1,83.7-83.3,96.7-117.6
			c14.1-37.2,14.9-65.9,14.9-67.1C512.1,298.5,510,295.6,507,294.5z"/>
	</g>
</g>
<g>
	<g>
		<path class="st0" d="M445.2,336.8c-2.9-2.9-7.7-2.9-10.6,0l-46.4,46.4l-27.6-27.6c-2.9-2.9-7.7-2.9-10.6,0
			c-2.9,2.9-2.9,7.7,0,10.6l32.9,32.9c1.5,1.5,3.4,2.2,5.3,2.2s3.8-0.7,5.3-2.2l51.7-51.7C448.1,344.5,448.1,339.7,445.2,336.8z"/>
	</g>
</g>
<g>
	<g>
		<path class="st0" d="M383.7,152.5H255.6c-8.5,0-15.5,7-15.5,15.5v24c0,8.5,7,15.5,15.5,15.5h128.1c8.5,0,15.5-7,15.5-15.5v-24
			C399.2,159.4,392.2,152.5,383.7,152.5z M384.2,192c0,0.3-0.2,0.5-0.5,0.5H255.6c-0.3,0-0.5-0.2-0.5-0.5v-24c0-0.3,0.2-0.5,0.5-0.5
			h128.1c0.3,0,0.5,0.2,0.5,0.5V192z"/>
	</g>
</g>
<g>
	<g>
		<path class="st0" d="M351.6,224.5h-96c-4.1,0-7.5,3.4-7.5,7.5s3.4,7.5,7.5,7.5h96c4.1,0,7.5-3.4,7.5-7.5S355.8,224.5,351.6,224.5z
			"/>
	</g>
</g>
<g>
	<g>
		<path class="st0" d="M311.6,256.5h-56c-4.1,0-7.5,3.4-7.5,7.5s3.4,7.5,7.5,7.5h56c4.1,0,7.5-3.4,7.5-7.5
			C319.1,259.9,315.8,256.5,311.6,256.5z"/>
	</g>
</g>
</svg>
