<svg xmlns="http://www.w3.org/2000/svg" width="163" height="37" viewBox="0 0 163 37">
  <metadata><?xpacket begin="﻿" id="W5M0MpCehiHzreSzNTczkc9d"?>
<x:xmpmeta xmlns:x="adobe:ns:meta/" x:xmptk="Adobe XMP Core 5.6-c142 79.160924, 2017/07/13-01:06:39        ">
   <rdf:RDF xmlns:rdf="http://www.w3.org/1999/02/22-rdf-syntax-ns#">
      <rdf:Description rdf:about=""/>
   </rdf:RDF>
</x:xmpmeta>
                                                                                                    
                                                                                                    
                                                                                                    
                                                                                                    
                                                                                                    
                                                                                                    
                                                                                                    
                                                                                                    
                                                                                                    
                                                                                                    
                                                                                                    
                                                                                                    
                                                                                                    
                                                                                                    
                                                                                                    
                                                                                                    
                                                                                                    
                                                                                                    
                                                                                                    
                                                                                                    
                           
<?xpacket end="w"?></metadata>
<defs>
    <style>
      .cls-1 {
        fill: #82b056;
      }

      .cls-1, .cls-2 {
        fill-rule: evenodd;
      }

      .cls-2 {
        fill: #4b545c;
      }
    </style>
  </defs>
  <path id="_23_года_copy" data-name="23 года copy" class="cls-1" d="M20,21.59q4.03-4.491,4.03-8a6.994,6.994,0,0,0-2.522-5.035,7.621,7.621,0,0,0-5.291-2.41,12.622,12.622,0,0,0-5.014.841,32.775,32.775,0,0,0-5.342,3.3q-0.7.492-1.21,0.82-1.6,1.046-1.6,1.928a3.486,3.486,0,0,0,.625,1.784,1.732,1.732,0,0,0,1.4,1A3.707,3.707,0,0,0,8.032,14.74a14.26,14.26,0,0,1,3.6-2.922,7.878,7.878,0,0,1,3-1.3,4.153,4.153,0,0,1,2.943,1.077,3.4,3.4,0,0,1,1.159,2.574,7.633,7.633,0,0,1-1.641,3.7,21.933,21.933,0,0,1-4.245,4.553,54.973,54.973,0,0,1-7.26,4.83A16.937,16.937,0,0,0,.885,30.829a5.229,5.229,0,0,0-1.179,3.25q0,1.948,2.317,1.948a3.047,3.047,0,0,0,2.42-1.066,5.452,5.452,0,0,1,1.651-1.312,11.575,11.575,0,0,1,2.789-.79,22.732,22.732,0,0,1,4.173-.359,29.066,29.066,0,0,1,7.65.82,12.249,12.249,0,0,0,2.994.246,8.2,8.2,0,0,0,3.456-.82,2.643,2.643,0,0,0,1.774-2.481,1.989,1.989,0,0,0-.656-1.241,1.872,1.872,0,0,0-1.354-.707,4.38,4.38,0,0,0-1.825.39,3.974,3.974,0,0,1-1.579.39q-0.738,0-3.035-.287a30.415,30.415,0,0,0-3.24-.287,34.59,34.59,0,0,0-7.547.595A32.829,32.829,0,0,0,20,21.59Zm25.429-1.108a13.736,13.736,0,0,1,4.8.656,2.331,2.331,0,0,1,1.682,2.3q0,2.892-3.794,4.6a19.511,19.511,0,0,1-8.121,1.712,11.494,11.494,0,0,1-4.9-1.456,1.982,1.982,0,0,0-.861-0.246q-2.728,0-2.728,2.482a2.86,2.86,0,0,0,2.153,2.912,17.146,17.146,0,0,0,5.476.738,23.731,23.731,0,0,0,12.018-3.322q5.763-3.322,5.763-7.937a5.363,5.363,0,0,0-2.3-4.635,11.1,11.1,0,0,0-6.522-1.641q-0.554,0-1.682.123-1.005.123-1.456,0.164a17.144,17.144,0,0,1,3.814-2.482,24.739,24.739,0,0,0,4.86-3.107,2.982,2.982,0,0,0,.943-2.1,1.746,1.746,0,0,0-1-1.753,7.85,7.85,0,0,0-3.343-.359q-3.733.164-8.818,0.656-2.01.205-2.974,0.205a3.725,3.725,0,0,1-1.641-.41,5.139,5.139,0,0,0-1.969-.615,2.426,2.426,0,0,0-1.548.492,1.606,1.606,0,0,0-.625,1.333q0,3.691,4.163,3.691,0.656,0,5.8-.923,5.27-.923,5.7-0.923a44.933,44.933,0,0,0-6.685,4.4,24.425,24.425,0,0,0-4.255,3.753,3.213,3.213,0,0,0-.584,1.712q0,1.436,2.481,1.436a12.409,12.409,0,0,1,6.152-1.456h0Z"/>
  <path id="_23_года" data-name="23 года" class="cls-2" d="M80.782,33.556a6.983,6.983,0,0,0,3.958,1.22,19.381,19.381,0,0,0,7.383-1.21q2.912-1.21,2.912-3.015a1,1,0,0,0-1.066-1.189,3.963,3.963,0,0,0-1.559.533,14.554,14.554,0,0,1-6.891,1.6,5.662,5.662,0,0,1-1.641-.369,1.483,1.483,0,0,1-1.087-1.538,3.979,3.979,0,0,1,1.261-2.871,23.1,23.1,0,0,1,4.83-3.24q4.347-2.4,5.435-3.958a5.588,5.588,0,0,0,1.087-3.24,3.842,3.842,0,0,0-1.682-3.271,5.541,5.541,0,0,0-3.22-1.22,16.467,16.467,0,0,0-5.783,1.282Q81.4,14.351,81.4,16.278q0,1.19,1.682,1.189a1.731,1.731,0,0,0,.41-0.185q4.368-2.174,5.906-2.174a2.338,2.338,0,0,1,1.21.451,1.45,1.45,0,0,1,.7,1.292q0,1.579-3.814,3.507Q81.5,23.374,80.013,25.65A6.724,6.724,0,0,0,78.731,30l0.041,0.431A4.157,4.157,0,0,0,80.782,33.556Zm32.855-3.107a14.3,14.3,0,0,0,4.214-9.885,9.254,9.254,0,0,0-2.041-6.009,6.52,6.52,0,0,0-5.321-2.522q-4.963,0-8.521,5.137A18.153,18.153,0,0,0,98.41,27.6a7.822,7.822,0,0,0,1.826,5.271A5.832,5.832,0,0,0,104.869,35Q109.423,35,113.637,30.449Zm-9.249-11.1q2.368-4.05,5.67-4.05a3.76,3.76,0,0,1,3.168,1.569,6.634,6.634,0,0,1,1.18,4.091,10.774,10.774,0,0,1-3.077,7.455q-3.075,3.353-6.131,3.353a2.657,2.657,0,0,1-2.308-1.312,6.006,6.006,0,0,1-.871-3.384A15.346,15.346,0,0,1,104.388,19.344Zm32.221-8.357a17,17,0,0,1-2.01.677,18.829,18.829,0,0,0-7,3.568,22.334,22.334,0,0,0-4.573,5.773,16.22,16.22,0,0,0-2.04,8.213,6.781,6.781,0,0,0,1.292,4.225,3.569,3.569,0,0,0,2.768,1.7,12.693,12.693,0,0,0,7.742-2.727,19.8,19.8,0,0,0,6-8.039,23.135,23.135,0,0,0,2.359-9.044,28.774,28.774,0,0,0-1.077-8.757,9.446,9.446,0,0,0-3.64-5.014,10.209,10.209,0,0,0-5.906-1.753h-0.882q-3.364,0-4.7,1.559a4.463,4.463,0,0,0-1.333,2.44,0.707,0.707,0,0,0,.779.82,2.944,2.944,0,0,0,1.476-.472,11.164,11.164,0,0,1,1.651-.769,5,5,0,0,1,1.631-.42,8.961,8.961,0,0,1,3.219.7,7.076,7.076,0,0,1,2.871,1.969,10.91,10.91,0,0,1,1.826,4.471A0.768,0.768,0,0,1,136.609,10.987Zm0.984,5.4a15.992,15.992,0,0,1-.708,3.558,21.182,21.182,0,0,1-2.132,4.819,18.6,18.6,0,0,1-3.271,4.194,11.53,11.53,0,0,1-3.056,2.225,6.988,6.988,0,0,1-2.769.533,0.956,0.956,0,0,1-.7-0.769,4.405,4.405,0,0,1-.308-1.651q0-6.624,5.7-11.956a16.407,16.407,0,0,1,7.259-3.056Q137.634,15.15,137.593,16.391ZM157.95,32.705q1.025,2.173,2.6,2.174a2.9,2.9,0,0,0,1.7-.646,1.729,1.729,0,0,0,.882-1.282,1.419,1.419,0,0,0-.9-1.21q-1.887-.984-1.887-5.947a55.383,55.383,0,0,1,1.107-8.531,10.152,10.152,0,0,0,.205-1.743q0-1.271-1.64-1.271a0.89,0.89,0,0,1-.841-0.656,2.74,2.74,0,0,0-2.563-1.969q-4.758,0-9.578,6.224T142.22,29.465a5.063,5.063,0,0,0,1.148,3.425,3.494,3.494,0,0,0,2.728,1.333,9.322,9.322,0,0,0,5.147-1.928,25.1,25.1,0,0,0,5.681-5.783A14.907,14.907,0,0,0,157.95,32.705ZM157.6,17.9q0,3.815-4,8.367t-6.255,4.553q-1.559,0-1.559-2.358,0-3.342,3.589-8.419t6.3-5.076q1.928,0,1.928,2.933h0Z"/>
</svg>
