<?xml version="1.0" encoding="utf-8"?>
<!-- Generator: Adobe Illustrator 22.0.1, SVG Export Plug-In . SVG Version: 6.00 Build 0)  -->
<svg version="1.1" id="Layer_1" xmlns="http://www.w3.org/2000/svg" xmlns:xlink="http://www.w3.org/1999/xlink" x="0px" y="0px"
	 viewBox="0 0 134.3 123.7" style="enable-background:new 0 0 134.3 123.7;" xml:space="preserve">
<style type="text/css">
	.st0{fill:#4B545C;}
	.st1{fill:#82B056;}
</style>
<g>
	<g>
		<g>
			<circle class="st0" cx="34.7" cy="111.2" r="2.9"/>
		</g>
	</g>
	<g>
		<g>
			<path class="st0" d="M119.1,92.1l-0.7-0.4l0.4-0.7c0.5-0.9,0.8-1.8,0.8-2.8v-1c0-3-2.4-5.4-5.4-5.4H95.1c-0.3,0-0.7,0.1-1.1,0.1
				l-1.1,0.2l0.2-1.1l3.5-17.3c0.5-2.4,0.5-4.8,0.2-7.1c-0.9-5.3-3.7-8-8.2-8c-0.5,0-1,0.4-1,0.9l-1.2,7.1c-0.5,2.9-1.1,5.6-2,8
				c-2.3,7.1-5.3,10.7-10.6,13c-2.6,1.1-4.4,1.9-5.2,2.3l-0.2,0.1h-8.6v-2.2c0-0.6-0.5-1.1-1.1-1.1H45.5v-2.8c0-0.6-0.5-1.1-1.1-1.1
				H13.5c-0.6,0-1.1,0.5-1.1,1.1v10.9c0,0.6,0.5,1.1,1.1,1.1s1.1-0.5,1.1-1.1v-9.9h28.8v44.8H14.6V90.7c0-0.6-0.5-1.1-1.1-1.1
				s-1.1,0.5-1.1,1.1v29.9c0,0.6,0.5,1.1,1.1,1.1h30.9c0.6,0,1.1-0.5,1.1-1.1v-2.8h13.2c0.6,0,1.1-0.5,1.1-1.1v-1.6h8.4l0.2,0.2
				l3.9,3.2c3.2,2.6,7.2,4,11.3,4h11.3H95c0.2,0,0.4,0.1,0.6,0.1h13.1c3.3,0,5.9-2.7,5.9-5.9c0-1-0.2-1.9-0.7-2.7l-0.5-1l1.1-0.2
				c2.9-0.4,5-2.9,5-5.8c0-1.1-0.3-2.3-1-3.3l-0.5-0.7l0.8-0.4c1.8-1,2.9-2.8,2.9-4.8v-1C121.8,94.8,120.8,93,119.1,92.1z
				 M95.1,83.8h19.2c1.8,0,3.3,1.5,3.3,3.3v1c0,1.8-1.5,3.3-3.3,3.3H95.1c-1.8,0-3.3-1.5-3.3-3.3V87l0-0.1c0.1-0.2,0.1-0.5,0.2-0.7
				c0.1-0.2,0.1-0.3,0.1-0.5l0-0.1l0.1-0.1C92.8,84.5,93.9,83.8,95.1,83.8z M89.7,116.7c0,0.9,0.2,1.8,0.6,2.6l0.6,1.1h-7.2
				c-3.6,0-7.1-1.2-9.9-3.5l-4.4-3.6c-0.2-0.2-0.4-0.2-0.7-0.2h-8.8V107c0-0.6-0.5-1.1-1.1-1.1c-0.6,0-1.1,0.5-1.1,1.1v8.8H45.5
				V78.5h12.1v22.3c0,0.6,0.5,1.1,1.1,1.1c0.6,0,1.1-0.5,1.1-1.1v-19h8.8c0.2,0,0.3,0,0.3-0.1l0.2-0.1h0.1c0.1-0.1,0.2-0.1,0.4-0.2
				c0.9-0.4,2.7-1.2,4.9-2.2c5.9-2.5,9.3-6.6,11.8-14.3c0.8-2.5,1.5-5.3,2.1-8.4l0.9-5.4l0.2-0.8l0.8,0.2c2.5,0.6,3.9,2.5,4.5,6.1
				c0.3,2,0.3,4.2-0.2,6.4l-3.9,19.7c0,0.1,0,0.1,0,0.1c0,0.3-0.2,1.1-0.3,1.9v0.1l0,0.1c-0.2,0.6-0.4,1.1-0.4,1.6v0.1l0,0.1
				c-1.5,5.5-5.5,14.7-14.5,14.7c-0.6,0-1.1,0.5-1.1,1.1c0,0.6,0.5,1.1,1.1,1.1c2.7,0,5.2-0.7,7.4-2.1c2.2-1.4,4.2-3.4,5.8-6.1
				l2.1-3.4l-0.7,4c-0.1,0.3-0.1,0.5-0.1,0.9v1c0,1.5,0.6,2.9,1.7,3.9l0.6,0.5l-0.6,0.6c-1.1,1.1-1.7,2.6-1.7,4.2
				c0,1.6,0.7,3.1,1.8,4.3l0.6,0.6l-0.7,0.6C90.4,113.5,89.7,115,89.7,116.7z M108.7,120.4H95.6c-2.1,0-3.8-1.7-3.8-3.8
				s1.7-3.8,3.8-3.8h13.1c2.1,0,3.8,1.7,3.8,3.8C112.5,118.8,110.8,120.4,108.7,120.4z M116.4,109.6c-0.7,0.7-1.7,1.1-2.7,1.1H95.6
				c-2.1,0-3.8-1.7-3.8-3.8s1.7-3.8,3.8-3.8h18.1c2.1,0,3.8,1.7,3.8,3.8C117.5,108,117.1,108.9,116.4,109.6z M119.7,98.6h-0.1
				c-0.3,1.4-1.6,2.5-3.1,2.5H95.1c-1.8,0-3.3-1.5-3.3-3.3v-1c0-1.8,1.5-3.3,3.3-3.3h21.4c1.8,0,3.3,1.5,3.3,3.3V98.6z"/>
		</g>
	</g>
	<g>
		<g>
			<g>
				<path class="st1" d="M47.3,28.6L47.3,28.6c-0.3-0.8-0.9-1.4-1.7-1.5l-6-0.9l-2.7-5.4c-0.4-0.7-1.1-1.2-1.9-1.2
					c-0.8,0-1.6,0.5-1.9,1.2l-2.7,5.4l-6,0.9c-0.8,0.1-1.5,0.7-1.7,1.5c-0.3,0.8-0.1,1.6,0.5,2.2l4.3,4.2l-1,5.9
					c-0.2,0.8,0.2,1.6,0.9,2.1c0.4,0.3,0.8,0.4,1.2,0.4c0.2,0,0.6,0,1-0.3l5.4-2.8l5.4,2.8c0.8,0.4,1.6,0.3,2.2-0.2
					c0.7-0.5,1-1.3,0.9-2.1l-1-5.9l4.3-4.2C47.3,30.2,47.5,29.3,47.3,28.6z M41,33.5c-0.5,0.5-0.7,1.2-0.6,1.9l1.1,6.1L36,38.6
					c-0.6-0.3-1.4-0.3-2,0l-5.5,2.9l1-6.1c0.1-0.7-0.1-1.4-0.6-1.9l-4.5-4.3l6.1-0.9c0.7-0.1,1.3-0.5,1.6-1.2l2.7-5.5l2.7,5.5
					c0.3,0.6,0.9,1.1,1.6,1.2l6.1,0.9L41,33.5z"/>
			</g>
		</g>
	</g>
	<g>
		<g>
			<path class="st1" d="M21.4,40c-0.2-0.6-0.7-1-1.3-1.1l-4-0.6l-1.8-3.6c-0.3-0.6-0.9-0.9-1.5-0.9s-1.2,0.4-1.5,0.9l-1.8,3.6
				l-4,0.6C4.8,39,4.3,39.4,4.1,40c-0.2,0.6,0,1.2,0.4,1.7l2.9,2.8l-0.7,4c-0.1,0.6,0.1,1.2,0.7,1.6c0.3,0.2,0.6,0.3,1,0.3
				c0.3,0,0.5-0.1,0.8-0.2l3.6-1.9l3.6,1.9c0.6,0.3,1.2,0.3,1.7-0.1c0.5-0.4,0.8-1,0.7-1.6l-0.7-4l2.9-2.8
				C21.4,41.3,21.5,40.6,21.4,40z M16.8,43.3c-0.4,0.4-0.6,0.9-0.5,1.5l0.7,3.9l-3.5-1.8c-0.5-0.3-1.1-0.3-1.5,0l-3.5,1.8l0.7-3.9
				c0.1-0.5-0.1-1.1-0.5-1.5l-2.8-2.7L9.7,40c0.5-0.1,1-0.4,1.2-0.9l1.7-3.5l1.7,3.5c0.2,0.5,0.7,0.8,1.2,0.9l3.9,0.6L16.8,43.3z"/>
		</g>
	</g>
	<g>
		<g>
			<path class="st1" d="M130.3,40c-0.2-0.6-0.7-1-1.3-1.1l-4-0.6l-1.8-3.6c-0.3-0.6-0.9-0.9-1.5-0.9c-0.6,0-1.2,0.4-1.5,0.9
				l-1.8,3.6l-4,0.6c-0.6,0.1-1.1,0.5-1.3,1.1c-0.2,0.6,0,1.2,0.4,1.7l2.9,2.8l-0.7,4c-0.1,0.6,0.1,1.2,0.7,1.6
				c0.3,0.2,0.6,0.3,1,0.3c0.3,0,0.5-0.1,0.8-0.2l3.6-1.9l3.6,1.9c0.6,0.3,1.2,0.3,1.7-0.1c0.5-0.4,0.8-1,0.7-1.6l-0.7-4l2.9-2.8
				C130.3,41.3,130.4,40.6,130.3,40z M125.7,43.3c-0.4,0.4-0.6,0.9-0.5,1.5l0.7,3.9l-3.5-1.8c-0.5-0.3-1.1-0.3-1.5,0l-3.5,1.8
				l0.7-3.9c0.1-0.5-0.1-1.1-0.5-1.5l-2.8-2.7l3.9-0.6c0.5-0.1,1-0.4,1.2-0.9l1.7-3.5l1.7,3.5c0.2,0.5,0.7,0.8,1.2,0.9l3.9,0.6
				L125.7,43.3z"/>
		</g>
	</g>
	<g>
		<g>
			<g>
				<path class="st1" d="M111.2,28.6c-0.1-0.4-0.4-0.7-0.7-1c-0.3-0.3-0.7-0.4-1.1-0.5l-6-0.9l-2.7-5.4c-0.4-0.7-1.1-1.2-1.9-1.2
					s-1.5,0.4-1.9,1.2l-2.7,5.4l-6,0.9c-0.8,0.1-1.5,0.7-1.7,1.5c-0.3,0.8-0.1,1.6,0.5,2.2l4.3,4.2l-1,5.9c-0.1,0.8,0.2,1.6,0.9,2.1
					c0.4,0.3,0.8,0.4,1.2,0.4c0.2,0,0.6,0,1-0.3l5.4-2.8l5.4,2.8c0.8,0.4,1.6,0.3,2.2-0.2c0.7-0.5,1-1.3,0.9-2.1l-1-5.9l4.3-4.2
					C111.3,30.2,111.4,29.3,111.2,28.6z M104.9,33.5c-0.5,0.5-0.7,1.2-0.6,1.9l1,6.1l-5.5-2.9c-0.6-0.3-1.4-0.3-2,0l-5.5,2.9l1-6.1
					c0.1-0.7-0.1-1.4-0.6-1.9l-4.4-4.3l6.1-0.9c0.7-0.1,1.3-0.5,1.6-1.2l2.7-5.5l2.7,5.5c0.3,0.6,0.9,1.1,1.6,1.2l6.1,0.9
					L104.9,33.5z"/>
			</g>
		</g>
	</g>
	<g>
		<g>
			<g>
				<path class="st1" d="M85.6,14.9c-0.4-1.1-1.4-2-2.5-2.1l-9.2-1.4l-4.1-8.3C69.3,2,68.2,1.4,67,1.4S64.7,2,64.2,3.1l-4.1,8.3
					l-9.2,1.4c-1.2,0.2-2.2,1-2.5,2.1c-0.4,1.1-0.1,2.4,0.8,3.2l6.6,6.5l-1.6,9.1c-0.2,1.2,0.3,2.4,1.2,3c1,0.7,2.2,0.8,3.3,0.3
					l8.2-4.3l8.2,4.3c0.5,0.2,0.9,0.4,1.5,0.4c0.7,0,1.3-0.2,1.8-0.6c1-0.7,1.5-1.9,1.2-3.1l-1.6-9.1l6.6-6.5
					C85.7,17.2,86,16,85.6,14.9z M76.3,22.4c-0.7,0.7-1.1,1.8-0.9,2.8l1.6,9.5l-8.6-4.5c-0.9-0.5-2-0.5-2.9,0L57,34.7l1.6-9.5
					c0.2-1-0.2-2.1-0.9-2.8l-6.9-6.7l9.5-1.4c1-0.2,1.9-0.8,2.4-1.7L67,3.9l4.3,8.6c0.4,0.9,1.3,1.6,2.4,1.7l9.5,1.4L76.3,22.4z"/>
			</g>
		</g>
	</g>
</g>
</svg>
