<?xml version="1.0" encoding="utf-8"?>
<!-- Generator: Adobe Illustrator 22.0.1, SVG Export Plug-In . SVG Version: 6.00 Build 0)  -->
<svg version="1.1" id="Слой_1" xmlns="http://www.w3.org/2000/svg" xmlns:xlink="http://www.w3.org/1999/xlink" x="0px" y="0px"
	 viewBox="0 0 104 69" style="enable-background:new 0 0 104 69;" xml:space="preserve">
<style type="text/css">
	.st0{fill:#74AF27;}
	.st1{fill:#485660;}
</style>
<g>
	<g transform="translate(-358 -57)">
		<g>
			<path id="nvjqa" class="st0" d="M367.5,92.9c-8-12.5,8-21.5,6.3-35.9C383.3,69.2,365.8,84.1,367.5,92.9z M363.3,85
				c-9.4-8.5,6.3-14.3,2.3-20.3C374.2,71.4,360.7,78.8,363.3,85z M373.3,94.5c-9.4-8.5,6.3-14.3,2.3-20.3
				C384.1,80.9,370.6,88.3,373.3,94.5z M367.8,118.9l0-2.3c-2.7,0-4.8-0.6-6.5-1.8c-1.7-1.2-2.8-3.1-3.1-5.2
				c-0.1-0.5-0.1-1.2-0.2-2.1c0-1.8,0.4-3.4,1.2-4.7c0.8-1.4,2-2.5,3.4-3.2c1.7-0.8,3.5-1.2,5.3-1.1l0-2.3c0.3,0,0.6,0,1.1,0.1
				c0.5,0.1,0.9,0.1,1.1,0.1c0.3,0,0.6,0,1.1-0.1c0.5-0.1,0.9-0.1,1.1-0.1v2.2c1.5,0,2.9,0.2,4,0.6c1.1,0.4,2.1,0.9,2.9,1.5
				c0.8,0.7,1.4,1.4,1.8,2.2c0.4,0.8,0.7,1.8,0.9,2.8c0.1,0.7,0.2,1.3,0.2,2c0,1.8-0.4,3.3-1.2,4.7c-0.8,1.4-2,2.5-3.4,3.2
				c-1.5,0.8-3.3,1.2-5.3,1.2l0,2.4c-0.2,0-0.6,0-1.1-0.1c-0.4,0-0.7-0.1-1.1-0.1c-0.2,0-0.6,0-1.1,0.1
				C368.4,118.9,368,118.9,367.8,118.9z M363.1,108.1c0,1.4,0.4,2.9,1,4.2c0.4,0.8,0.9,1.4,1.5,1.9s1.4,0.7,2.2,0.7l0-14.7
				c-0.9,0-1.8,0.4-2.5,1c-0.8,0.8-1.3,1.8-1.6,2.8C363.3,105.3,363.1,106.6,363.1,108.1z M376.9,106.9c0-0.7-0.1-1.2-0.1-1.7
				c-0.1-0.9-0.4-1.7-0.8-2.5c-0.4-0.8-0.9-1.4-1.5-1.8c-0.6-0.5-1.4-0.7-2.2-0.7l-0.1,14.6c1,0,1.8-0.4,2.5-1.1
				c0.8-0.8,1.3-1.8,1.6-2.9C376.7,109.5,376.9,108.3,376.9,106.9L376.9,106.9z M395.8,115.2h1.7l1-2.6l1.5-4.2
				c0.4-1.2,0.9-2.4,1.3-3.6c0.4-1.2,0.8-2.4,1.1-3.7c0.2,0,0.4,0,0.8,0.1c0.3,0,0.6,0.1,0.7,0.1s0.4,0,0.8-0.1
				c0.3-0.1,0.6-0.1,0.8-0.1l1,3.3l1.2,4l1,3.2l1.2,3.6h1.5c-0.1,0.5-0.1,0.9-0.1,1.4c0,0.5,0,1,0.1,1.5h-0.3
				c-0.3-0.3-0.7-0.6-1.1-0.7c-0.6-0.2-1.2-0.2-1.8-0.3c-0.7,0-1.8,0-3.3,0h-2.5c-1.5,0-2.6,0-3.3,0c-0.7,0-1.3,0.1-1.8,0.3
				s-0.9,0.4-1.2,0.7h-0.3c0.1-0.3,0.2-0.8,0.2-1.5C395.9,116.3,395.9,115.8,395.8,115.2L395.8,115.2z M399.7,115.2h5.7l-2.7-9.4
				C401.6,108.9,400.6,112,399.7,115.2z M398.4,101.2l-0.4,1l-3.4,8l-3.2,7.7c-1.2,2.9-2.2,5.5-3,7.6l-0.2,0.4l-0.4,0l-1-0.1l-1,0.1
				l-1.1,0.1l0.5-1l3.9-8l-5.9-14.8l-0.4-0.9l1,0.1l1.4,0.1l1.4-0.1l0.5,0l0.1,0.5c1.1,3.6,2.4,7.1,3.9,10.5c1.4-3.5,2.7-7,3.9-10.5
				l0.1-0.5l0.5,0l0.9,0.1l0.9-0.1L398.4,101.2L398.4,101.2z"/>
		</g>
	</g>
	<g transform="translate(-358 -57)">
		<g>
			<path id="nvjqb" class="st1" d="M462,87.7c0,1.9-0.5,3.5-1.4,4.7c-0.9,1.2-2.3,1.8-3.7,1.8c-0.8,0-1.5-0.2-2.2-0.6
				c-0.3-0.2-0.5-0.4-0.7-0.6l0,5.5v5.2h-2.6V82.2h2.6v1.3c0.3-0.3,0.5-0.6,0.8-0.8c0.7-0.4,1.5-0.7,2.4-0.7c1.5,0,2.7,0.6,3.5,1.7
				C461.6,84.9,462,86.3,462,87.7L462,87.7z M459.2,87.8c0-1.2-0.2-2.2-0.5-2.9c-0.4-0.8-1.1-1.2-2-1.2c-1,0-1.6,0.5-2.1,1.5
				c-0.4,1-0.6,2-0.6,3v0.2c0,1.1,0.2,2.1,0.7,2.7c0.4,0.7,1.2,1.1,2,1.1c0.9,0,1.5-0.4,1.9-1.2C459,90.3,459.2,89.2,459.2,87.8
				L459.2,87.8z M399.5,93.5l0.1,0.6l-0.5,0l-1-0.1l-1,0.1l-0.4,0l0-0.4l-0.4-4.4c-0.2-2-0.3-4-0.6-6l-1.7,3.2
				c-1.2,2.3-2.3,4.7-3.4,7.1l-0.1,0.3h-0.8l-0.1-0.3l-1.2-2.6c-0.4-1-0.9-2-1.4-2.9l-1.5-3l-0.8-1.7l-0.6,5.2
				c-0.2,2.2-0.3,3.9-0.3,5.1v0.5l-0.5-0.1l-0.7-0.1l-0.7,0.1l-0.5,0.1l0.1-0.6c0.8-5.2,1.5-10.4,2.1-15.6l0-0.4h1l0.3,0l0.1,0.3
				l1.8,3.8c1.2,2.5,2.5,5,3.9,7.4l5.8-11.3l0.1-0.2h1.1l0,0.4l0.6,5.6c0.2,2.2,0.4,3.9,0.6,5.2L399.5,93.5z M410.1,92.3l0.5-0.1
				v1.4l-0.3,0.1l-0.3,0.1c-0.4,0.1-0.8,0.2-1.2,0.2c-0.5,0-0.9-0.1-1.3-0.4c-0.2-0.2-0.4-0.4-0.5-0.6c-0.9,0.8-2,1.3-3.2,1.3
				c-0.9,0-1.7-0.3-2.3-0.9c-0.7-0.6-1-1.4-1-2.3c0-1.3,0.5-2.3,1.5-2.9c0.6-0.3,1.5-0.6,2.9-0.8c0.6-0.1,1.1-0.2,1.6-0.4
				c0.1-0.1,0.3-0.2,0.3-0.7c0-0.7-0.2-1.3-0.5-1.7c-0.4-0.4-0.9-0.6-1.6-0.6c-0.6,0-1.1,0.2-1.6,0.5c-0.3,0.2-0.5,0.5-0.6,0.7
				l-0.1,0.3h-1v-2l0.2-0.1c0.6-0.4,1.2-0.8,1.8-1c0.6-0.2,1.3-0.3,1.9-0.3c2.6,0,3.9,1.5,3.9,4.3v5.9l0,0.1c0,0,0,0,0.1,0
				C409.8,92.3,409.9,92.3,410.1,92.3z M406.9,88.4l-0.2,0.1c-1.5,0.3-2.1,0.5-2.3,0.6c-0.7,0.3-1,0.8-1,1.6c0,0.6,0.1,1,0.4,1.3
				c0.3,0.3,0.7,0.4,1.3,0.4c0.2,0,0.5-0.1,0.7-0.2c0.3-0.2,0.5-0.3,0.7-0.5c0.2-0.1,0.3-0.3,0.4-0.4L406.9,88.4z M421,83.1l0.3,0.2
				l-0.1,0.3l-0.5,1.5l-0.1,0.3h-0.5h-0.2l-0.1-0.2l-0.3-0.4c-0.1-0.1-0.1-0.2-0.2-0.3l0,0l0,0c-0.2-0.2-0.5-0.4-0.8-0.6
				c-0.3-0.1-0.7-0.2-1-0.2c-1,0-1.9,0.4-2.4,1.3c-0.5,0.8-0.8,1.8-0.8,3c0,1.3,0.3,2.5,1,3.3c0.6,0.8,1.5,1.3,2.5,1.2
				c0.5,0,1-0.1,1.4-0.3c0.4-0.2,0.8-0.5,1.3-1l0.2-0.2l0.3,0.1l0.4,0.2l0,0.3l-0.1,1.1l0,0.2l-0.1,0.1c-1,0.8-2.3,1.2-3.5,1.2
				c-1.9,0-3.4-0.6-4.4-1.8c-1-1.2-1.6-2.8-1.5-4.3c0-1.9,0.6-3.3,1.7-4.4c1.2-1.1,2.7-1.7,4.3-1.6c0.7,0,1.3,0.1,1.9,0.2
				C419.9,82.4,420.5,82.7,421,83.1L421,83.1z M437.7,83.4c0.6,0.8,0.9,2,0.9,3.6V94l-0.5,0l-0.8-0.1l-0.8,0.1l-0.5,0v-6.6
				c0-1.4-0.2-2.1-0.3-2.4c-0.3-0.6-0.8-0.9-1.6-0.9c-0.8,0-1.3,0.3-1.7,1c-0.3,0.7-0.4,1.5-0.4,2.3V94l-0.5,0l-0.8-0.1l-0.8,0.1
				l-0.5,0v-7.2c0-2.4-1.1-2.7-1.9-2.7c-0.9,0-1.4,0.3-1.7,0.8c-0.3,0.6-0.5,1.3-0.4,2V94l-0.5,0l-0.8-0.1l-0.8,0.1l-0.5,0V82.2
				l0.5,0l0.8,0.1l0.8-0.1l0.5,0v1.1c0.7-0.8,1.7-1.2,2.8-1.2c0.8,0,1.5,0.2,2.2,0.7c0.4,0.3,0.8,0.7,1,1.1c0.7-1.1,2-1.8,3.3-1.8
				C436.1,82.1,437.1,82.5,437.7,83.4L437.7,83.4z M448.7,83.6c0.9,1.1,1.4,2.6,1.4,4.6v0.4h-0.4l-4.4-0.1h-2.6
				c0.1,1.1,0.3,1.9,0.8,2.6c0.6,0.8,1.4,1.2,2.5,1.2c0.6,0,1.2-0.2,1.7-0.5c0.4-0.2,0.8-0.5,1.2-0.9l0.7-0.8l0,1.1l0,1.2v0.2
				l-0.2,0.1c-0.6,0.4-1.2,0.8-1.9,1c-0.7,0.3-1.4,0.4-2.1,0.4c-1.5,0.1-3-0.5-4-1.6c-1.1-1.2-1.6-2.8-1.5-4.4
				c0-1.8,0.5-3.2,1.4-4.3c1-1.2,2.5-1.8,4-1.8C446.7,82.1,447.8,82.6,448.7,83.6L448.7,83.6z M447.6,86.8c0-0.7-0.2-1.4-0.5-2.1
				c-0.4-0.7-1-1-1.8-1c-0.8,0-1.5,0.4-1.9,1.1c-0.4,0.6-0.6,1.3-0.6,2L447.6,86.8z"/>
		</g>
	</g>
</g>
</svg>
