<svg xmlns="http://www.w3.org/2000/svg" width="226" height="35" viewBox="0 0 226 35">
  <metadata><?xpacket begin="﻿" id="W5M0MpCehiHzreSzNTczkc9d"?>
<x:xmpmeta xmlns:x="adobe:ns:meta/" x:xmptk="Adobe XMP Core 5.6-c142 79.160924, 2017/07/13-01:06:39        ">
   <rdf:RDF xmlns:rdf="http://www.w3.org/1999/02/22-rdf-syntax-ns#">
      <rdf:Description rdf:about=""/>
   </rdf:RDF>
</x:xmpmeta>
                                                                                                    
                                                                                                    
                                                                                                    
                                                                                                    
                                                                                                    
                                                                                                    
                                                                                                    
                                                                                                    
                                                                                                    
                                                                                                    
                                                                                                    
                                                                                                    
                                                                                                    
                                                                                                    
                                                                                                    
                                                                                                    
                                                                                                    
                                                                                                    
                                                                                                    
                                                                                                    
                           
<?xpacket end="w"?></metadata>
<defs>
    <style>
      .cls-1 {
        fill: #82b056;
      }

      .cls-1, .cls-2 {
        fill-rule: evenodd;
      }

      .cls-2 {
        fill: #4b545c;
      }
    </style>
  </defs>
  <path id="Более_100_copy" data-name="Более 100 copy" class="cls-1" d="M155.316,28.326A26.857,26.857,0,0,0,159.6,27.5a3.665,3.665,0,0,0,1.6-.831,1.757,1.757,0,0,0,.328-1.128,5.733,5.733,0,0,0-.718-1.928,20.734,20.734,0,0,0-5.126.636q-4.185,1.067-5.312,1.21a60.842,60.842,0,0,1,.461-7.393,100.859,100.859,0,0,1,1.938-10.08,2.009,2.009,0,0,0,.616-1.333,4.085,4.085,0,0,0-.595-1.887,1.873,1.873,0,0,0-1.723-1.087q-0.8,0-3.609,1.784l-3.056,1.764a40.374,40.374,0,0,1-4.7,2.358,8.538,8.538,0,0,0-2.1,1.118,1.721,1.721,0,0,0-.564,1.384q0,1.436,1.682,1.436a11.178,11.178,0,0,0,5.557-1.743q3.3-1.907,3.466-1.948-1.927,10.849-2.133,14.376-0.062,1.087-.164,2.153a29.347,29.347,0,0,1-4.327,1.066,16.323,16.323,0,0,0-4.348,1.189,1.873,1.873,0,0,0-1.189,1.641,2.032,2.032,0,0,0,.769,1.456,2.842,2.842,0,0,0,2.02.718,12.883,12.883,0,0,0,3.548-.759,5.394,5.394,0,0,0,.882-0.246,22.576,22.576,0,0,1,3.24-.923,0.361,0.361,0,0,1,.184.185,1.771,1.771,0,0,0,1.354.984q3.588,0,3.466-1.62l-0.062-.8a23.708,23.708,0,0,1,4.327-.923h0Zm31.167-1.364q7.023-5.506,7.024-10.92a12.443,12.443,0,0,0-1.1-5.578,10.94,10.94,0,0,0-4.378-4.153A12.1,12.1,0,0,0,181.9,4.353q-3.815,0-8.613,3.209a20.961,20.961,0,0,0-7.229,8.008,19.745,19.745,0,0,0-2.43,8.818,8.523,8.523,0,0,0,1.979,5.8,6.74,6.74,0,0,0,5.362,2.276A24.565,24.565,0,0,0,186.483,26.962ZM186.4,10.987a11.371,11.371,0,0,1,1.251,1.456,7.336,7.336,0,0,1,.615,1.856,10.535,10.535,0,0,1,.338,2.358q0,1.682-2.758,4.45a28.93,28.93,0,0,1-6.481,4.84q-3.722,2.072-5.957,2.071a6.187,6.187,0,0,1-2.082-.338,4.766,4.766,0,0,1-1.343-.656,2.806,2.806,0,0,1-.687-1.384,8.45,8.45,0,0,1-.3-2.276,11.287,11.287,0,0,1,1.64-5.8,22.638,22.638,0,0,1,3.846-4.9A18.979,18.979,0,0,1,178.054,9.8a7.176,7.176,0,0,1,3.476-.749,2.634,2.634,0,0,1,.943.431,2.394,2.394,0,0,0,.944.451,2.831,2.831,0,0,0,1.517-.349A16.917,16.917,0,0,1,186.4,10.987Zm31.582,15.976q7.024-5.506,7.024-10.92a12.457,12.457,0,0,0-1.1-5.578,10.94,10.94,0,0,0-4.378-4.153A12.1,12.1,0,0,0,213.4,4.353q-3.815,0-8.613,3.209a20.953,20.953,0,0,0-7.229,8.008,19.734,19.734,0,0,0-2.431,8.818,8.528,8.528,0,0,0,1.979,5.8,6.743,6.743,0,0,0,5.363,2.276A24.564,24.564,0,0,0,217.983,26.962ZM217.9,10.987a11.287,11.287,0,0,1,1.251,1.456,7.254,7.254,0,0,1,.615,1.856,10.487,10.487,0,0,1,.339,2.358q0,1.682-2.758,4.45a28.93,28.93,0,0,1-6.481,4.84q-3.721,2.072-5.957,2.071a6.187,6.187,0,0,1-2.082-.338,4.738,4.738,0,0,1-1.343-.656,2.806,2.806,0,0,1-.687-1.384,8.41,8.41,0,0,1-.3-2.276,11.288,11.288,0,0,1,1.641-5.8,22.634,22.634,0,0,1,3.845-4.9A18.978,18.978,0,0,1,209.555,9.8a7.173,7.173,0,0,1,3.476-.749,2.642,2.642,0,0,1,.943.431,2.392,2.392,0,0,0,.943.451,2.832,2.832,0,0,0,1.518-.349A16.8,16.8,0,0,1,217.9,10.987Z"/>
  <path id="Более_100" data-name="Более 100" class="cls-2" d="M8.644,32.387q9.475-2.4,13.053-5.455a9.305,9.305,0,0,0,3.579-7.3,6.952,6.952,0,0,0-2.215-5.588q-2.215-1.9-6.4-1.9-0.287,0-3.045.338t-3.312.482a7.378,7.378,0,0,0-1.456.615,3.988,3.988,0,0,1-1.6.554H7.044a0.814,0.814,0,0,1-.205-0.472A17.187,17.187,0,0,0,7.27,11.2a27.148,27.148,0,0,1,.759-3.825Q8.685,4.763,9.157,4.763a1.185,1.185,0,0,1,.492.123,1.15,1.15,0,0,0,.472.123H10.2a27.741,27.741,0,0,1,2.912.144,23.125,23.125,0,0,0,2.789.164,14.809,14.809,0,0,0,5.219-.892q2.389-.892,2.389-2.656a0.894,0.894,0,0,0-.605-0.79,3.054,3.054,0,0,0-1.364-.3,4.93,4.93,0,0,0-1.025.267,4.881,4.881,0,0,1-1.046.287q-1.149,0-3.343.226t-3.158.226A14.414,14.414,0,0,1,7.926.661,2.636,2.636,0,0,0,7,.477q-1.292,0-1.948,2.225A17.79,17.79,0,0,0,4.4,7.736q-0.451,2.892-1,5.865Q2.84,16.514,2.379,20.82T1.9,26.747q-0.021,1.62-.021,3.1v0.082a5.036,5.036,0,0,1-.41,1.661,4.807,4.807,0,0,0-.431,1.6,1.529,1.529,0,0,0,.79.984,2.571,2.571,0,0,0,1.487.574,4.292,4.292,0,0,0,2.03-.882q0.328-.205.615-0.369V33.412A0.446,0.446,0,0,1,6.2,33.064q1.066-.328,2.44-0.677h0ZM5.281,27.239v-0.8a31,31,0,0,1,.441-5.363A6.77,6.77,0,0,1,6.9,17.8a8.487,8.487,0,0,1,3.4-1.548,24.52,24.52,0,0,1,6.747-.779A4.436,4.436,0,0,1,20.569,16.9a5.7,5.7,0,0,1,1.261,3.9,5.151,5.151,0,0,1-1.2,2.635q-1.2,1.672-5.353,3.548a23.362,23.362,0,0,1-7.332,2.164,18.679,18.679,0,0,0-2.194.308,3.353,3.353,0,0,1-.472-2.215h0Zm38.827,1.21a14.3,14.3,0,0,0,4.214-9.885,9.258,9.258,0,0,0-2.041-6.009,6.522,6.522,0,0,0-5.322-2.522q-4.963,0-8.521,5.137A18.156,18.156,0,0,0,28.881,25.6a7.823,7.823,0,0,0,1.825,5.271A5.834,5.834,0,0,0,35.341,33Q39.893,33,44.108,28.449Zm-9.249-11.1q2.369-4.05,5.67-4.05A3.762,3.762,0,0,1,43.7,14.863a6.634,6.634,0,0,1,1.179,4.091A10.774,10.774,0,0,1,41.8,26.409q-3.076,3.353-6.132,3.353a2.657,2.657,0,0,1-2.307-1.312,6,6,0,0,1-.872-3.384A15.354,15.354,0,0,1,34.859,17.344ZM63.11,18.667q2.112,9.454,3.691,11.577t2.01,2.122a5.629,5.629,0,0,0,1.6-.143,1.956,1.956,0,0,0,.8-0.667,1.834,1.834,0,0,0,.41-1.159,1.016,1.016,0,0,0-.123-0.544,5.266,5.266,0,0,0-.779-0.769q-2.789-2.338-5.311-14.909a24.259,24.259,0,0,0-1-3.815,2.068,2.068,0,0,0-1.015-.6,4.038,4.038,0,0,0-1.1-.277,1.183,1.183,0,0,0-1.107.779q-1.949,4.327-5.086,9.772a56.926,56.926,0,0,1-5.065,7.721q-1.989,2.4-1.989,3.794a1.387,1.387,0,0,0,1.6,1.538q1.189,0,3.753-4.573,0.287-.512.472-0.779a98.218,98.218,0,0,0,6.419-11.525,1.289,1.289,0,0,1,.964-0.943,23.025,23.025,0,0,1,.861,3.4h0Zm28.916,5.311A1.883,1.883,0,0,0,91,24.655q-4.594,4.881-9,4.881a3.854,3.854,0,0,1-2.912-1.025,3.773,3.773,0,0,1-.984-2.728,1.638,1.638,0,0,1,1.066-1.436,39.7,39.7,0,0,0,8.285-5.681q3.1-2.892,3.1-6.05a3.382,3.382,0,0,0-3.486-3.425q-4.7,0-8.654,5.291A18.336,18.336,0,0,0,74.451,25.64a7.72,7.72,0,0,0,1.794,5.435,6.581,6.581,0,0,0,5.1,1.948,12.137,12.137,0,0,0,7.639-2.953q3.7-2.953,3.7-5.045,0-1.046-.656-1.046h0ZM81.762,15.058q2.369-2.769,4.255-2.769a1.037,1.037,0,0,1,1.107,1.23q0,3.138-8.7,8.306A15.983,15.983,0,0,1,81.762,15.058Zm31.7,8.921a1.881,1.881,0,0,0-1.025.677q-4.595,4.881-9,4.881a3.856,3.856,0,0,1-2.913-1.025,3.775,3.775,0,0,1-.984-2.728,1.638,1.638,0,0,1,1.067-1.436,39.73,39.73,0,0,0,8.285-5.681q3.1-2.892,3.1-6.05A3.381,3.381,0,0,0,108.5,9.192q-4.7,0-8.654,5.291A18.336,18.336,0,0,0,95.885,25.64a7.72,7.72,0,0,0,1.794,5.435,6.581,6.581,0,0,0,5.1,1.948,12.139,12.139,0,0,0,7.64-2.953q3.7-2.953,3.7-5.045,0-1.046-.656-1.046h0ZM103.2,15.058q2.369-2.769,4.255-2.769a1.037,1.037,0,0,1,1.108,1.23q0,3.138-8.7,8.306A15.987,15.987,0,0,1,103.2,15.058Z"/>
</svg>
