<svg xmlns="http://www.w3.org/2000/svg" width="278" height="38" viewBox="0 0 278 38">
  <metadata><?xpacket begin="﻿" id="W5M0MpCehiHzreSzNTczkc9d"?>
<x:xmpmeta xmlns:x="adobe:ns:meta/" x:xmptk="Adobe XMP Core 5.6-c142 79.160924, 2017/07/13-01:06:39        ">
   <rdf:RDF xmlns:rdf="http://www.w3.org/1999/02/22-rdf-syntax-ns#">
      <rdf:Description rdf:about=""/>
   </rdf:RDF>
</x:xmpmeta>
                                                                                                    
                                                                                                    
                                                                                                    
                                                                                                    
                                                                                                    
                                                                                                    
                                                                                                    
                                                                                                    
                                                                                                    
                                                                                                    
                                                                                                    
                                                                                                    
                                                                                                    
                                                                                                    
                                                                                                    
                                                                                                    
                                                                                                    
                                                                                                    
                                                                                                    
                                                                                                    
                           
<?xpacket end="w"?></metadata>
<defs>
    <style>
      .cls-1 {
        fill: #4b545c;
      }

      .cls-1, .cls-2 {
        fill-rule: evenodd;
      }

      .cls-2 {
        fill: #82b056;
      }
    </style>
  </defs>
  <path id="Свыше_1500_copy" data-name="Свыше 1500 copy" class="cls-1" d="M19.469,31.28a19.043,19.043,0,0,1-4.686,2.389,13.578,13.578,0,0,1-4.337.892,6.085,6.085,0,0,1-4.768-1.856A6.709,6.709,0,0,1,4.006,28.04a18.528,18.528,0,0,1,2.912-9.2A28.477,28.477,0,0,1,14,10.6q4.173-3.25,7-3.251,1.825,0,1.825,2.092a10.635,10.635,0,0,1-.349,2.194,11.282,11.282,0,0,0-.349,1.969,1.652,1.652,0,0,0,.349,1.107,1.047,1.047,0,0,0,.82.41,3.428,3.428,0,0,0,1.743-.748,2.9,2.9,0,0,0,1.3-1.836,16.065,16.065,0,0,0,.215-2.974A4.945,4.945,0,0,0,25.077,6a5.285,5.285,0,0,0-3.968-1.528q-6.624,0-13.771,7.865T0.191,28.512a8.4,8.4,0,0,0,2.984,6.952,10.3,10.3,0,0,0,6.614,2.4,15.591,15.591,0,0,0,5.465-1.128,18.054,18.054,0,0,0,5.26-3.035q2.276-1.907,2.276-2.933a0.8,0.8,0,0,0-.8-0.984,9.278,9.278,0,0,0-2.523,1.5h0ZM45.816,10.055a8.981,8.981,0,0,0,1.671-4.573A5.361,5.361,0,0,0,46.226,1.7,4.325,4.325,0,0,0,42.894.334q-3.425,0-6.778,3.333t-5.6,9.864a39.53,39.53,0,0,0-2.246,12.91q0,5.291,1.928,8.039a6.215,6.215,0,0,0,5.394,2.748q3.876,0,7.178-3.958a14,14,0,0,0,3.3-9.249q0-7.054-4.655-8.941A23.075,23.075,0,0,0,45.816,10.055Zm-9-2.42q2.717-4.04,5.4-4.04,1.927,0,1.928,2.4,0,1.5-1.866,4.112t-9.762,8.705A32.9,32.9,0,0,1,36.813,7.635Zm5.506,17A11.671,11.671,0,0,1,40.5,30.983a5.308,5.308,0,0,1-4.563,2.881,3.439,3.439,0,0,1-3.086-1.887,11.239,11.239,0,0,1-1.118-5.619,22.63,22.63,0,0,1,.308-3.876q1-.7,2.071-1.517,4.163-3.158,4.573-3.158,1.374,0,2.5,1.866a9.438,9.438,0,0,1,1.128,4.922v0.041ZM52.938,13.951q-0.185.657-.41,1.292a50.094,50.094,0,0,0-1.477,5.947,40.287,40.287,0,0,0-.923,8.121,9.292,9.292,0,0,0,1.22,5.2,3.887,3.887,0,0,0,3.414,1.815q4.922,0,9.772-4.378t4.85-9.136A5.419,5.419,0,0,0,67.7,19.376,5.368,5.368,0,0,0,63.54,17.5q-4.02,0-8.736,4.532a0.375,0.375,0,0,1-.246-0.451,19.357,19.357,0,0,1,1.395-5.414,7.109,7.109,0,0,0,.472-2.235q-0.349-1.374-.861-1.374a1.021,1.021,0,0,0-.595.184q-1.825.39-2.03,1.21h0ZM55.183,25.1q0.441-.379,1.179-1.077a16.3,16.3,0,0,1,3.5-2.615,6.882,6.882,0,0,1,3.189-.81,2.243,2.243,0,0,1,1.866.861,3.346,3.346,0,0,1,.677,2.133q0,3.1-3.4,6.378t-6.152,3.281q-2.441,0-2.44-3.1A25.612,25.612,0,0,1,54,25.6,2.364,2.364,0,0,0,55.183,25.1Zm19.841-.338q0.369-2.338,1.969-8.183a7.15,7.15,0,0,0,.287-1.7,1.446,1.446,0,0,0-.605-1.118,2.507,2.507,0,0,0-1.651-.5,1.459,1.459,0,0,0-1.333.913,4.75,4.75,0,0,0-.472,2.2,32.943,32.943,0,0,1-.574,3.773,77.483,77.483,0,0,0-1.579,12.182q0,3.651,1.989,3.65a2.167,2.167,0,0,0,1.435-.584,1.566,1.566,0,0,0,.677-0.954,2.953,2.953,0,0,0-.082-0.615,16.405,16.405,0,0,1-.431-3.507A36.187,36.187,0,0,1,75.025,24.759Zm34.444,2.974v0.677a17.258,17.258,0,0,0,.882,6.3q0.882,2.133,2.318,2.133a3.112,3.112,0,0,0,1.507-.472,1.309,1.309,0,0,0,.831-1.046,2.049,2.049,0,0,0-.821-1.23q-1.58-1.415-1.579-6.214a40.482,40.482,0,0,1,.39-4.994,33.506,33.506,0,0,1,.964-4.994,9.236,9.236,0,0,0,.389-1.5q0-1.846-1.394-1.846a1.847,1.847,0,0,0-1.569.851,12.377,12.377,0,0,0-1.323,3.251q-1.128,3.691-1.5,4.686a19.518,19.518,0,0,1-1.794,3.2,22.914,22.914,0,0,1-2.923,3.712,10.235,10.235,0,0,1-2.512,2,4.11,4.11,0,0,1-1.712.492q-1.559,0-1.559-3.363a25.3,25.3,0,0,1,1.907-8.634,12.6,12.6,0,0,0,1-4.081,1.935,1.935,0,0,0-.512-1.261,1.711,1.711,0,0,0-1.374-.605q-1.333,0-2.215,2.358a45.281,45.281,0,0,1-5.383,10.008q-3.394,4.8-6.1,4.8a1.03,1.03,0,0,1-1.056-.882,10.094,10.094,0,0,1-.236-2.481,23.964,23.964,0,0,1,1.128-6.727,17.2,17.2,0,0,0,.841-4.717,2.072,2.072,0,0,0-.584-1.651,1.833,1.833,0,0,0-1.2-.5A1.88,1.88,0,0,0,82.3,16.453a23.534,23.534,0,0,1-.615,5.681q-0.164.9-.287,1.928-0.123,1.292-.308,2.5a25.819,25.819,0,0,0-.226,3.979,4.911,4.911,0,0,0,1.364,3.65,3.8,3.8,0,0,0,2.512,1.354q2.4,0,5.455-2.769a22.584,22.584,0,0,0,5-6.624,22.064,22.064,0,0,0-.349,3.712,7.151,7.151,0,0,0,1.4,4.86A3.864,3.864,0,0,0,99.011,36.3q2.359,0,5.107-2.42a28.409,28.409,0,0,0,5.373-6.829q-0.021.349-.021,0.677h0Zm26.725,0.246a1.884,1.884,0,0,0-1.025.677q-4.595,4.881-9,4.881a3.854,3.854,0,0,1-2.912-1.025,3.774,3.774,0,0,1-.985-2.728,1.639,1.639,0,0,1,1.067-1.436,39.7,39.7,0,0,0,8.285-5.681q3.1-2.892,3.1-6.05a3.383,3.383,0,0,0-3.487-3.425q-4.7,0-8.654,5.291a18.334,18.334,0,0,0-3.958,11.156,7.722,7.722,0,0,0,1.794,5.434,6.584,6.584,0,0,0,5.1,1.948,12.137,12.137,0,0,0,7.639-2.953q3.7-2.953,3.7-5.045,0-1.046-.656-1.046h0ZM125.93,19.058q2.368-2.769,4.255-2.768a1.037,1.037,0,0,1,1.108,1.23q0,3.138-8.7,8.306A15.977,15.977,0,0,1,125.93,19.058Z"/>
  <path id="Свыше_1500" data-name="Свыше 1500" class="cls-2" d="M178.051,32.326a26.862,26.862,0,0,0,4.286-.831,3.659,3.659,0,0,0,1.6-.831,1.757,1.757,0,0,0,.328-1.128,5.746,5.746,0,0,0-.717-1.928,20.748,20.748,0,0,0-5.127.636q-4.183,1.067-5.312,1.21a60.645,60.645,0,0,1,.462-7.393,100.285,100.285,0,0,1,1.938-10.08,2.012,2.012,0,0,0,.615-1.333,4.073,4.073,0,0,0-.595-1.887,1.873,1.873,0,0,0-1.722-1.087q-0.8,0-3.61,1.784l-3.056,1.764a40.281,40.281,0,0,1-4.7,2.358,8.539,8.539,0,0,0-2.1,1.118,1.721,1.721,0,0,0-.564,1.384q0,1.436,1.682,1.436a11.175,11.175,0,0,0,5.557-1.743q3.3-1.907,3.466-1.948Q168.556,24.677,168.35,28.2q-0.061,1.087-.164,2.153a29.347,29.347,0,0,1-4.327,1.066,16.313,16.313,0,0,0-4.347,1.19,1.873,1.873,0,0,0-1.19,1.641,2.032,2.032,0,0,0,.769,1.456,2.842,2.842,0,0,0,2.02.718,12.876,12.876,0,0,0,3.548-.759,5.394,5.394,0,0,0,.882-0.246,22.576,22.576,0,0,1,3.24-.923,0.362,0.362,0,0,1,.185.185,1.768,1.768,0,0,0,1.353.984q3.59,0,3.466-1.62l-0.062-.8a23.7,23.7,0,0,1,4.328-.923h0Zm25.679-18.6q1.148,0,3.753.1,2.583,0.1,2.83.1a24.666,24.666,0,0,0,3.773-.236,3.648,3.648,0,0,0,2.359-1.333,3.219,3.219,0,0,0,.881-1.712,1.755,1.755,0,0,0-1.24-1.446,5.311,5.311,0,0,0-2.307-.6,7.994,7.994,0,0,0-2.01.41,16.392,16.392,0,0,1-4.471.554q-2.4,0-5.711.154a15.384,15.384,0,0,0-4.327.584q-1.015.431-4.194,5.147-1.17,1.7-1.723,2.481a3.026,3.026,0,0,0-.861,1.846,2.865,2.865,0,0,0,1.312,1.794,8.064,8.064,0,0,0,4.553,1.261q5.6,0.349,7.229,1.456a3.445,3.445,0,0,1,1.63,2.994q0,1.538-3.055,3.076a12.485,12.485,0,0,1-5.517,1.538,8.313,8.313,0,0,1-4.286-1.21,3.263,3.263,0,0,0-1.887-.82q-3.158,0-3.158,2.481,0,1.313,2.676,2.7a13.088,13.088,0,0,0,6.1,1.384,16.265,16.265,0,0,0,10.008-3.168q4.245-3.168,4.245-6.265,0-3.794-2.286-5.465a15.469,15.469,0,0,0-6.963-2.307,23.7,23.7,0,0,1-4.963-.923,27.022,27.022,0,0,1,3.159-4.163,17.146,17.146,0,0,1,4.45-.41h0Zm35.064,17.237q7.023-5.506,7.024-10.92a12.457,12.457,0,0,0-1.1-5.578,10.944,10.944,0,0,0-4.379-4.153,12.09,12.09,0,0,0-6.132-1.958q-3.815,0-8.613,3.209a20.962,20.962,0,0,0-7.229,8.008,19.745,19.745,0,0,0-2.43,8.818,8.523,8.523,0,0,0,1.979,5.8,6.741,6.741,0,0,0,5.363,2.276A24.564,24.564,0,0,0,238.794,30.962Zm-0.082-15.976a11.371,11.371,0,0,1,1.251,1.456,7.3,7.3,0,0,1,.615,1.856,10.487,10.487,0,0,1,.339,2.358q0,1.682-2.759,4.45a28.946,28.946,0,0,1-6.48,4.84q-3.723,2.072-5.958,2.071a6.177,6.177,0,0,1-2.081-.338,4.761,4.761,0,0,1-1.344-.656,2.815,2.815,0,0,1-.687-1.384,8.45,8.45,0,0,1-.3-2.276,11.288,11.288,0,0,1,1.641-5.8,22.6,22.6,0,0,1,3.845-4.9,18.977,18.977,0,0,1,3.568-2.861,7.176,7.176,0,0,1,3.476-.749,2.637,2.637,0,0,1,.944.431,2.386,2.386,0,0,0,.943.451,2.834,2.834,0,0,0,1.518-.349A16.948,16.948,0,0,1,238.712,14.987ZM270.3,30.962q7.023-5.506,7.024-10.92a12.443,12.443,0,0,0-1.1-5.578,10.941,10.941,0,0,0-4.378-4.153,12.1,12.1,0,0,0-6.132-1.958q-3.815,0-8.613,3.209a20.962,20.962,0,0,0-7.229,8.008,19.745,19.745,0,0,0-2.43,8.818,8.523,8.523,0,0,0,1.979,5.8,6.74,6.74,0,0,0,5.362,2.276A24.565,24.565,0,0,0,270.3,30.962Zm-0.082-15.976a11.371,11.371,0,0,1,1.251,1.456,7.336,7.336,0,0,1,.615,1.856,10.535,10.535,0,0,1,.338,2.358q0,1.682-2.758,4.45a28.93,28.93,0,0,1-6.481,4.84q-3.721,2.072-5.957,2.071a6.187,6.187,0,0,1-2.082-.338,4.766,4.766,0,0,1-1.343-.656,2.806,2.806,0,0,1-.687-1.384,8.45,8.45,0,0,1-.3-2.276,11.287,11.287,0,0,1,1.64-5.8,22.638,22.638,0,0,1,3.846-4.9,18.977,18.977,0,0,1,3.568-2.861,7.176,7.176,0,0,1,3.476-.749,2.635,2.635,0,0,1,.943.431,2.394,2.394,0,0,0,.944.451,2.83,2.83,0,0,0,1.517-.349A16.923,16.923,0,0,1,270.213,14.987Z"/>
</svg>
