<?xml version="1.0" encoding="utf-8"?>
<!-- Generator: Adobe Illustrator 22.0.1, SVG Export Plug-In . SVG Version: 6.00 Build 0)  -->
<svg version="1.1" id="Layer_1" xmlns="http://www.w3.org/2000/svg" xmlns:xlink="http://www.w3.org/1999/xlink" x="0px" y="0px"
	 viewBox="0 0 512 512" style="enable-background:new 0 0 512 512;" xml:space="preserve">
<style type="text/css">
	.st0{fill:#4B545C;}
	.st1{fill:#82B056;}
</style>
<g>
	<g>
		<g>
			<path class="st0" d="M439.6,425.6L308.2,248.2l-1-1.3V117.7l3.3-1.2c8.4-3.1,15-9.3,18.8-17.4c3.7-8.1,4.1-17.2,1-25.6
				c-4.8-13-17.3-21.7-31.1-21.8H187.3c-8.9,0-17.3,3.5-23.6,9.8c-6.3,6.3-9.8,14.7-9.7,23.7c0,13.8,8.7,26.3,21.6,31.2l3.2,1.2
				v129.2l-1,1.3L46.5,425.5c-12.7,17.5-9.9,29.5-7,35c2.9,5.7,10.9,15.2,32.3,15.2h342.6c5,0,9.2-0.5,12.9-1.4v-11.4
				c-3.6,1.2-8,1.9-12.9,1.9H71.7c-11.4,0-19.5-3.3-22.4-9.1c-2.9-5.8-0.7-14.4,6-23.4L189,252.1c0.7-0.9,1.1-2.1,1.1-3.3V118.5
				h23.7c3.1,0,5.6-2.5,5.6-5.5s-2.5-5.6-5.6-5.6l-25.9,0c-12.1,0-22.4-9.4-22.9-21.5c-0.5-12.7,9.7-23.2,22.3-23.2l111.3,0
				c12.1,0,22.4,9.4,22.8,21.5c0.5,12.7-9.7,23.1-22.3,23.1h-23.9c-3.2,0-5.8,2.8-5.5,6.1c0.3,2.9,2.9,5,5.8,5l20.7,0v130.2
				c0,1.2,0.4,2.3,1.1,3.3l133.7,180.2l0,0.1l0,0c6.6,9.4,8.6,17.7,5.7,23.5l0,0c-2.7,2.9-5.8,5.3-9.3,7.1l-0.1,0v11.4
				c12-2.8,17.3-9.5,19.5-13.8C449.5,454.9,452.4,442.9,439.6,425.6z"/>
		</g>
		<g>
			<path class="st0" d="M351.9,356.6c0,3.1-2.5,5.5-5.6,5.5h-0.1c-0.5,0-1,0-1.6,0c-11.5,0-23-2.6-33.3-7.6
				c-9.1-4.5-19.2-6.9-29.4-6.9c-0.5,0-1.1,0-1.6,0c-0.6,0-1.1,0-1.7,0c-10,0-20.1,2.3-29.1,6.8c-10.3,4.9-21.7,7.5-33.1,7.5
				c-0.6,0-1.1,0-1.7,0h-0.2c-0.4,0-0.9,0-1.3,0c-11.4,0-22.9-2.6-33.2-7.6c-8.1-4-16.8-6.3-25.9-6.7c-3.1-0.2-5.4-2.8-5.3-5.9
				c0.2-3,2.6-5.3,5.5-5.3c0.1,0,0.2,0,0.3,0c10.2,0.5,20.1,3,29.3,7.4c9.1,4.5,19.2,6.8,29.3,6.8c0.5,0,1.1,0,1.6,0
				c0.6,0,1.2,0,1.7,0c10.1,0,20.1-2.3,29.1-6.8c10.3-4.9,21.7-7.5,33.1-7.5c0.6,0,1.1,0,1.7,0h0.2c0.5,0,1.1,0,1.6,0
				c11.5,0,23,2.6,33.3,7.6c9.1,4.5,19.2,6.9,29.3,6.9c0.4,0,0.8,0,1.2,0l0,0.1C349.4,351,351.9,353.5,351.9,356.6z"/>
		</g>
		<g>
			<path class="st0" d="M245.1,231.6c0,6.3-5.1,11.5-11.5,11.5c-6.3,0-11.5-5.1-11.5-11.5c0-6.3,5.2-11.5,11.5-11.5
				C239.9,220.1,245.1,225.3,245.1,231.6z"/>
		</g>
		<g>
			<path class="st0" d="M271.4,291.7c0,4.3-3.5,7.9-7.9,7.9s-7.9-3.5-7.9-7.9c0-4.3,3.5-7.9,7.9-7.9S271.4,287.3,271.4,291.7z"/>
		</g>
		<g>
			<circle class="st0" cx="250.8" cy="165.8" r="8.6"/>
		</g>
	</g>
	<path class="st1" d="M416.3,263.7c0-46.3-18-89.8-50.8-122.5c-32.7-32.7-76.2-50.8-122.5-50.8s-89.8,18-122.5,50.8
		c-32.7,32.7-50.8,76.2-50.8,122.5c0,46.3,18,89.8,50.8,122.5c32.7,32.7,76.2,50.8,122.5,50.8s89.8-18,122.5-50.8
		C398.3,353.5,416.3,310,416.3,263.7z M109.3,358.5l272.1-182.7c16.2,25.4,25.6,55.6,25.6,87.9c0,90.4-73.6,164-164,164
		C187.9,427.7,139.1,400.3,109.3,358.5z M374.6,165.9L102.7,348.5c-15-24.8-23.7-53.8-23.7-84.8c0-90.4,73.6-164,164-164
		C296.9,99.7,344.7,125.7,374.6,165.9z"/>
</g>
</svg>
