<?xml version="1.0" encoding="utf-8"?>
<!-- Generator: Adobe Illustrator 22.0.1, SVG Export Plug-In . SVG Version: 6.00 Build 0)  -->
<svg version="1.1" id="Capa_1" xmlns="http://www.w3.org/2000/svg" xmlns:xlink="http://www.w3.org/1999/xlink" x="0px" y="0px"
	 viewBox="0 0 512 512" style="enable-background:new 0 0 512 512;" xml:space="preserve">
<style type="text/css">
	.st0{fill:#82B056;}
</style>
<g>
	<g>
		<path class="st0" d="M333.1,198.9c-1.9-1.9-4.4-2.9-7.1-2.9c-2.6,0-5.2,1.1-7.1,2.9c-1.9,1.9-2.9,4.4-2.9,7.1s1.1,5.2,2.9,7.1
			c1.9,1.9,4.4,2.9,7.1,2.9c2.6,0,5.2-1.1,7.1-2.9c1.9-1.9,2.9-4.4,2.9-7.1C336,203.4,334.9,200.8,333.1,198.9z"/>
	</g>
</g>
<g>
	<g>
		<path class="st0" d="M499.5,5.6c-0.1-0.1-0.2-0.2-0.3-0.2C494.3,2,488.4,0,482,0H202c-6,0-11.5,1.8-16.2,4.8
			c-0.4,0.2-0.7,0.5-1.1,0.7C177,11,172,19.9,172,30v156c0,16.5,13.5,30,30,30h74c5.5,0,10-4.5,10-10c0-5.5-4.5-10-10-10h-64.2
			l82.1-95.9l42.3,30.5c1.7,1.3,3.8,1.9,5.9,1.9c2,0,4.1-0.6,5.8-1.9l42.3-30.5l82,95.8H370c-5.5,0-10,4.5-10,10c0,5.5,4.5,10,10,10
			h112c16.5,0,30-13.5,30-30V30C512,20,507.1,11.1,499.5,5.6z M192.2,188.1c-0.1-0.7-0.2-1.4-0.2-2.1V30c0-1.1,0.2-2.1,0.5-3.1
			l85.1,61.4L192.2,188.1z M342,110.2L217,20h250.3L342,110.2z M492,186c0,0.7-0.1,1.4-0.2,2.1l-85.3-99.7l85.1-61.3
			c0.3,0.9,0.4,1.8,0.4,2.8L492,186L492,186z"/>
	</g>
</g>
<g>
	<g>
		<path class="st0" d="M448,437.1c-1.5,0-2.9,0.3-4.2,0.9h-4.9c-5.5,0-10,4.5-10,10c0,5.5,4.5,10,10,10h9.1c5.5,0,10-4.5,10-10v-0.9
			C458,441.6,453.5,437.1,448,437.1z"/>
	</g>
</g>
<g>
	<g>
		<path class="st0" d="M448,387.1c-5.5,0-10,4.5-10,10v10c0,5.5,4.5,10,10,10s10-4.5,10-10v-10C458,391.6,453.5,387.1,448,387.1z"/>
	</g>
</g>
<g>
	<g>
		<path class="st0" d="M398.9,438h-10c-5.5,0-10,4.5-10,10c0,5.5,4.5,10,10,10h10c5.5,0,10-4.5,10-10
			C408.9,442.5,404.4,438,398.9,438z"/>
	</g>
</g>
<g>
	<g>
		<path class="st0" d="M448,237.1c-5.5,0-10,4.5-10,10v10c0,5.5,4.5,10,10,10s10-4.5,10-10v-10C458,241.6,453.5,237.1,448,237.1z"/>
	</g>
</g>
<g>
	<g>
		<path class="st0" d="M448,287.1c-5.5,0-10,4.5-10,10v10c0,5.5,4.5,10,10,10s10-4.5,10-10v-10C458,291.6,453.5,287.1,448,287.1z"/>
	</g>
</g>
<g>
	<g>
		<path class="st0" d="M448,337.1c-5.5,0-10,4.5-10,10v10c0,5.5,4.5,10,10,10s10-4.5,10-10v-10C458,341.6,453.5,337.1,448,337.1z"/>
	</g>
</g>
<g>
	<g>
		<path class="st0" d="M74,54H64c-5.5,0-10,4.5-10,10s4.5,10,10,10h10c5.5,0,10-4.5,10-10C84,58.5,79.5,54,74,54z"/>
	</g>
</g>
<g>
	<g>
		<path class="st0" d="M124,54h-10c-5.5,0-10,4.5-10,10s4.5,10,10,10h10c5.5,0,10-4.5,10-10S129.5,54,124,54z"/>
	</g>
</g>
<g>
	<g>
		<path class="st0" d="M64,94c-5.5,0-10,4.5-10,10v10c0,5.5,4.5,10,10,10s10-4.5,10-10v-10C74,98.5,69.5,94,64,94z"/>
	</g>
</g>
<g>
	<g>
		<path class="st0" d="M64,144c-5.5,0-10,4.5-10,10v10c0,5.5,4.5,10,10,10s10-4.5,10-10v-10C74,148.5,69.5,144,64,144z"/>
	</g>
</g>
<g>
	<g>
		<path class="st0" d="M110.6,405.4c-1.9-1.9-4.4-2.9-7.1-2.9c-2.6,0-5.2,1.1-7.1,2.9c-1.9,1.9-2.9,4.4-2.9,7.1s1.1,5.2,2.9,7.1
			c1.9,1.9,4.4,2.9,7.1,2.9s5.2-1.1,7.1-2.9c1.9-1.9,2.9-4.4,2.9-7.1S112.5,407.2,110.6,405.4z"/>
	</g>
</g>
<g>
	<g>
		<path class="st0" d="M311.3,415.9l-52.7-52.7c-15.1-15.1-39.7-15.1-54.9,0l-3.4,3.4c-4.8,4.8-12.5,4.8-17.3,0L145.3,329
			c-2.3-2.3-3.6-5.4-3.6-8.6s1.3-6.3,3.6-8.6l3.4-3.4c15.1-15.1,15.1-39.7,0-54.9l-52.7-52.7c-15.1-15.1-39.7-15.1-54.9,0
			l-12.6,12.6c-38.1,38.1-38.1,100.2,0,138.3L63,386c3.9,3.9,10.2,3.9,14.1,0c3.9-3.9,3.9-10.2,0-14.1l-34.4-34.4
			c-30.3-30.3-30.3-79.7,0-110l12.6-12.6c7.3-7.3,19.2-7.3,26.6,0l52.7,52.7c7.3,7.3,7.3,19.2,0,26.6l-3.4,3.4
			c-1.3,1.3-2.4,2.6-3.4,4L86.1,260c-3.9-3.9-10.2-3.9-14.1,0c-3.9,3.9-3.9,10.2,0,14.1l50,50c0.8,7.2,4,13.9,9.2,19.1l37.7,37.7
			c12.6,12.6,33,12.6,45.6,0l3.4-3.4c7.3-7.3,19.2-7.3,26.6,0l52.7,52.7c3.5,3.5,5.5,8.3,5.5,13.3c0,5-2,9.7-5.5,13.3l-7.2,7.2
			l-48-48c-3.9-3.9-10.2-3.9-14.1,0c-3.9,3.9-3.9,10.2,0,14.1l47.3,47.3c-30.4,22-73.3,19.4-100.7-8l-25.9-25.9
			c-3.9-3.9-10.2-3.9-14.1,0c-3.9,3.9-3.9,10.2,0,14.1l25.9,25.9c19.1,19.1,44.1,28.6,69.2,28.6s50.1-9.5,69.2-28.6l12.6-12.6
			c7.3-7.3,11.4-17.1,11.4-27.4S318.6,423.3,311.3,415.9z"/>
	</g>
</g>
</svg>
