<?xml version="1.0" encoding="utf-8"?>
<!-- Generator: Adobe Illustrator 22.0.1, SVG Export Plug-In . SVG Version: 6.00 Build 0)  -->
<svg version="1.1" id="Capa_1" xmlns="http://www.w3.org/2000/svg" xmlns:xlink="http://www.w3.org/1999/xlink" x="0px" y="0px"
	 viewBox="0 0 512 512" style="enable-background:new 0 0 512 512;" xml:space="preserve">
<style type="text/css">
	.st0{fill:#82B056;}
</style>
<g>
	<g>
		<path class="st0" d="M504.5,242.6c-5.6-1.6-10.4,1.9-12.3,7c-3.3,8.7-15.7,14-24.7,15.1c-13.5,1.8-26.7-4.2-38.7-9.7
			c-14.2-6.6-28.8-12.9-44.8-12.7c-16,0.1-31.7,6.5-44.8,15.6c-14.7,10.1-26.5,23.4-38.1,36.9c-3.5,4.1-4,10.2,0,14.2
			c3.6,3.6,10.6,4.1,14.2,0c18.6-21.6,43-50.2,75-46.3c15.1,1.9,28.6,10.3,42.4,15.9c14.2,5.8,29.8,8.5,44.9,4.5
			c14.9-3.9,28.4-13.4,34-28.1C513.4,249.8,509.4,243.9,504.5,242.6z"/>
	</g>
</g>
<g>
	<g>
		<path class="st0" d="M206.5,136.6c9.5-13.1,19.6-27.2,22.5-43.5c2.8-15.8-1.3-31.8-10.1-45.1c-10.2-15.4-24.9-26.4-39.5-37.3
			c-4.3-3.2-11.2-0.7-13.7,3.6c-3,5.1-0.8,10.5,3.6,13.7c22.4,16.8,50.5,40.1,37,71.3c-12,27.7-43.2,50-39.3,83.3
			c1.9,16,11.4,30.5,27.6,34.8c12.5,3.3,17.8-16.1,5.3-19.4c-10.1-2.7-14.1-13.7-13-23.4C188.4,160.5,198.5,147.7,206.5,136.6z"/>
	</g>
</g>
<g>
	<g>
		<path class="st0" d="M350.6,160.9c-1.6-13.3-9.2-25.4-20.5-32.8c-6.3-4.1-13.1-6.2-20.1-6.8c3.4-11.3,9.9-21.7,19.2-28.9
			c4.3-3.3,6.6-8.6,3.6-13.7c-2.5-4.2-9.4-6.9-13.7-3.6c-16,12.3-26.7,29.9-30.6,49.3c-13.1,4.8-24.8,14.4-31.5,26.3
			c-18,32.1-6.6,69.7,11.5,98.9c6.8,10.9,24.2,0.9,17.3-10.1c-11.8-19-21.8-41.9-16.7-64.8c2.5-11.1,8.9-21.5,18-27.7
			c0.9,11,4,21.9,9.4,31.5c7.5,13.4,21.7,24.5,37.3,17C346.6,189.7,352.2,174.1,350.6,160.9z M328.3,174.8
			c-5.5,7.8-11.2-0.7-14.3-6.2c-4.2-7.5-6.4-16-6.8-24.5c0-0.9,0-1.8-0.1-2.7c0.5,0,1,0,1.5,0.1
			C323.3,142.8,337.6,161.4,328.3,174.8z"/>
	</g>
</g>
<g>
	<g>
		<path class="st0" d="M391.4,188.3c-12.9,0-12.9,20.1,0,20.1C404.3,208.4,404.3,188.3,391.4,188.3z"/>
	</g>
</g>
<g>
	<g>
		<path class="st0" d="M403.9,159.3c-12.9,0-12.9,20.1,0,20.1C416.8,179.4,416.9,159.3,403.9,159.3z"/>
	</g>
</g>
<g>
	<g>
		<path class="st0" d="M423.5,184.9c-12.9,0-12.9,20.1,0,20.1C436.4,205,436.5,184.9,423.5,184.9z"/>
	</g>
</g>
<g>
	<g>
		<path class="st0" d="M89.7,102.8c-12.9,0-12.9,20.1,0,20.1C102.6,122.8,102.6,102.8,89.7,102.8z"/>
	</g>
</g>
<g>
	<g>
		<path class="st0" d="M102.2,73.7c-12.9,0-12.9,20.1,0,20.1C115.1,93.8,115.1,73.7,102.2,73.7z"/>
	</g>
</g>
<g>
	<g>
		<path class="st0" d="M121.8,99.3c-12.9,0-12.9,20.1,0,20.1C134.7,119.4,134.7,99.3,121.8,99.3z"/>
	</g>
</g>
<g>
	<g>
		<path class="st0" d="M283.3,354.4L150.1,221.1c-2.3-2.3-5.5-3.3-8.7-2.8c-3.2,0.5-5.9,2.5-7.4,5.4l-12,24L1.1,490
			c-1.9,3.9-1.2,8.5,1.9,11.6c1.9,1.9,4.5,2.9,7.1,2.9c1.5,0,3.1-0.3,4.5-1.1l266.2-132.9c2.9-1.4,4.9-4.2,5.4-7.4
			C286.7,360,285.6,356.7,283.3,354.4z M32.4,472l43.4-86.9l14.6,57.9L32.4,472z M198.1,389.3L181,347.7c-2.1-5.1-8-7.6-13.1-5.5
			c-5.1,2.1-7.6,8-5.5,13.1l17.7,43l-71.2,35.6l-19.3-76.3l40.5-81.2l11.1,27.2c1.6,3.9,5.3,6.2,9.3,6.2c1.3,0,2.6-0.2,3.8-0.8
			c5.1-2.1,7.6-8,5.5-13.1L142,252.6l3.7-7.4l113.6,113.6L198.1,389.3z"/>
	</g>
</g>
<g>
	<g>
		<path class="st0" d="M470.6,333.4c-22.4,0-40.6,18.2-40.6,40.6c0,22.4,18.2,40.6,40.6,40.6c22.4,0,40.6-18.2,40.6-40.6
			C511.2,351.6,493,333.4,470.6,333.4z M470.6,394.5c-11.3,0-20.5-9.2-20.5-20.5c0-11.3,9.2-20.5,20.5-20.5
			c11.3,0,20.5,9.2,20.5,20.5C491.1,385.3,481.9,394.5,470.6,394.5z"/>
	</g>
</g>
<g>
	<g>
		<path class="st0" d="M459.8,50.8l-40.4-40.4c-1.9-1.9-4.4-2.9-7.1-2.9s-5.2,1.1-7.1,2.9l-40.4,40.4c-3.9,3.9-3.9,10.3,0,14.2
			l40.4,40.4c2,2,4.5,2.9,7.1,2.9s5.1-1,7.1-2.9L459.8,65c1.9-1.9,2.9-4.4,2.9-7.1C462.8,55.3,461.7,52.7,459.8,50.8z M412.4,84.1
			l-26.2-26.2l26.2-26.2l26.2,26.2L412.4,84.1z"/>
	</g>
</g>
<g>
	<g>
		<path class="st0" d="M160.3,315.9c-12.9,0-12.9,20.1,0,20.1C173.2,336,173.2,315.9,160.3,315.9z"/>
	</g>
</g>
</svg>
