<?xml version="1.0" encoding="utf-8"?>
<!-- Generator: Adobe Illustrator 22.0.1, SVG Export Plug-In . SVG Version: 6.00 Build 0)  -->
<svg version="1.1" id="Слой_1" xmlns="http://www.w3.org/2000/svg" xmlns:xlink="http://www.w3.org/1999/xlink" x="0px" y="0px"
	 viewBox="0 0 496 496" style="enable-background:new 0 0 496 496;" xml:space="preserve">
<style type="text/css">
	.st0{fill:#82B056;}
</style>
<path class="st0" d="M216,292c0,6.6,5.4,12,12,12s12-5.4,12-12s-5.4-12-12-12S216,285.4,216,292z M228,288c2.2,0,4,1.8,4,4
	s-1.8,4-4,4s-4-1.8-4-4S225.8,288,228,288z"/>
<path class="st0" d="M272,292c0,6.6,5.4,12,12,12s12-5.4,12-12s-5.4-12-12-12S272,285.4,272,292z M284,288c2.2,0,4,1.8,4,4
	s-1.8,4-4,4s-4-1.8-4-4S281.8,288,284,288z"/>
<path class="st0" d="M176,176h17.6l13.9,62.7c-4.6,4.4-7.5,10.5-7.5,17.3c0,13.2,10.8,24,24,24h96v-16h-96c-4.4,0-8-3.6-8-8
	s3.6-8,8-8h80c3.4,0,6.5-2.2,7.6-5.5l16-48c0.8-2.4,0.4-5.1-1.1-7.2c-1.5-2.1-3.9-3.3-6.5-3.3H211.8l-3.9-17.7
	c-0.8-3.7-4.1-6.3-7.8-6.3h-24V176z M254.8,232l-5.3-32h21.1l-5.3,32H254.8z M298.2,232h-16.8l5.3-32h22.1L298.2,232z M233.2,200
	l5.3,32H224c-0.5,0-1,0.1-1.5,0.2l-7.1-32.2H233.2z"/>
<path class="st0" d="M376,0H120C97.9,0,80,17.9,80,40v416c0,22.1,17.9,40,40,40h256c22.1,0,40-17.9,40-40V40C416,17.9,398.1,0,376,0
	z M120,16h256c13.2,0,24,10.8,24,24v8H96v-8C96,26.8,106.8,16,120,16z M400,64v320H96V64H400z M376,480H120c-13.2,0-24-10.8-24-24
	v-56h304v56C400,469.2,389.2,480,376,480z"/>
<path class="st0" d="M248,416c-13.2,0-24,10.8-24,24s10.8,24,24,24s24-10.8,24-24S261.2,416,248,416z M248,448c-4.4,0-8-3.6-8-8
	s3.6-8,8-8s8,3.6,8,8S252.4,448,248,448z"/>
<path class="st0" d="M225.6,114.2l-3.2-15.7c-5.8,1.2-11.5,2.8-17.1,4.7l5.3,15.1C215.5,116.7,220.5,115.3,225.6,114.2z"/>
<path class="st0" d="M195.7,124.9l-7.5-14.1c-5.9,3.1-11.7,6.8-17.1,10.8l9.6,12.8C185.5,130.8,190.5,127.7,195.7,124.9z"/>
<path class="st0" d="M158.4,156.8l-12.8-9.6c-4,5.4-7.7,11.1-10.8,17.1l14.1,7.5C151.7,166.5,154.8,161.5,158.4,156.8z"/>
<path class="st0" d="M142.4,186.7l-15.1-5.3c-2,5.5-3.5,11.3-4.7,17.1l15.7,3.2C139.3,196.5,140.7,191.5,142.4,186.7z"/>
<path class="st0" d="M120.3,232.5l16-1.1c-0.2-2.5-0.2-5-0.2-7.5s0.1-5,0.2-7.5l-16-1.1c-0.2,2.8-0.3,5.7-0.3,8.5
	S120.1,229.7,120.3,232.5z"/>
<path class="st0" d="M138.2,246.4l-15.7,3.2c1.2,5.8,2.8,11.5,4.7,17.1l15.1-5.3C140.7,256.5,139.3,251.5,138.2,246.4z"/>
<path class="st0" d="M134.8,283.7c3.1,5.9,6.8,11.7,10.8,17.1l12.8-9.6c-3.5-4.7-6.7-9.7-9.5-14.9L134.8,283.7z"/>
<path class="st0" d="M171.2,326.4c5.4,4.1,11.1,7.7,17.1,10.8l7.5-14.2c-5.2-2.7-10.2-5.9-14.9-9.5L171.2,326.4z"/>
<path class="st0" d="M205.3,344.7c5.5,2,11.3,3.6,17.1,4.7l3.2-15.7c-5.1-1-10.1-2.4-14.9-4.1L205.3,344.7z"/>
<path class="st0" d="M240.5,335.8l-1,16c2.8,0.2,5.7,0.3,8.5,0.3s5.7-0.1,8.5-0.3l-1-16C250.5,336.1,245.5,336.1,240.5,335.8z"/>
<path class="st0" d="M270.4,333.8l3.2,15.7c5.8-1.2,11.5-2.8,17.1-4.7l-5.3-15.1C280.5,331.3,275.5,332.7,270.4,333.8z"/>
<path class="st0" d="M300.3,323.1l7.5,14.1c6-3.2,11.7-6.8,17.1-10.8l-9.6-12.8C310.5,317.1,305.5,320.3,300.3,323.1z"/>
<path class="st0" d="M337.6,291.2l12.8,9.6c4-5.4,7.7-11.1,10.8-17.1l-14.1-7.5C344.3,281.5,341.2,286.5,337.6,291.2z"/>
<path class="st0" d="M353.6,261.3l15.1,5.3c2-5.5,3.5-11.3,4.7-17.1l-15.7-3.2C356.7,251.5,355.3,256.5,353.6,261.3z"/>
<path class="st0" d="M360,224c0,2.5-0.1,5-0.2,7.5l16,1.1c0.2-2.8,0.3-5.7,0.3-8.5s-0.1-5.7-0.3-8.5l-16,1.1
	C359.9,219,360,221.5,360,224z"/>
<path class="st0" d="M357.8,201.6l15.7-3.2c-1.2-5.8-2.8-11.5-4.7-17.1l-15.1,5.3C355.3,191.5,356.7,196.5,357.8,201.6z"/>
<path class="st0" d="M361.2,164.3c-3.1-5.9-6.8-11.7-10.8-17.1l-12.8,9.6c3.5,4.7,6.7,9.7,9.5,14.9L361.2,164.3z"/>
<path class="st0" d="M324.8,121.6c-5.4-4.1-11.1-7.7-17.1-10.8l-7.5,14.2c5.2,2.7,10.2,5.9,14.9,9.5L324.8,121.6z"/>
<path class="st0" d="M290.7,103.3c-5.5-2-11.3-3.6-17.1-4.7l-3.2,15.7c5.1,1,10.1,2.4,14.9,4.1L290.7,103.3z"/>
<path class="st0" d="M255.5,112.2l1-16c-5.6-0.4-11.4-0.4-17,0l1,16C245.5,111.9,250.5,111.9,255.5,112.2z"/>
</svg>
