<svg id="Capa_1" xmlns="http://www.w3.org/2000/svg" viewBox="0 0 512 512">
    <style>
        .st0{stroke:#fff;stroke-miterlimit:10}.st0,.st1{fill:#82b056}
    </style>
    <path class="st0" d="M70.4 465.9c-1.5 2-3.9 3.1-6.4 3.1-1.8 0-3.4-.6-4.9-1.6l-.1-.1c-3.5-2.7-4.2-7.7-1.5-11.2 1.5-2 3.9-3.1 6.4-3.1 1.8 0 3.4.6 4.9 1.7l.1.1c1.7 1.3 2.8 3.2 3.1 5.3.3 2-.3 4.1-1.6 5.8z"/>
    <path class="st0" d="M70.4 383.9c-1.5 2-3.9 3.1-6.4 3.1-1.8 0-3.4-.6-4.9-1.6l-.1-.1c-3.5-2.7-4.2-7.7-1.5-11.2 1.5-2 3.9-3.1 6.4-3.1 1.8 0 3.4.6 4.9 1.7l.1.1c1.7 1.3 2.8 3.2 3.1 5.3.3 2-.3 4.1-1.6 5.8z"/>
    <path class="st0" d="M70.4 301.9c-1.5 2-3.9 3.1-6.4 3.1-1.8 0-3.4-.6-4.9-1.6l-.1-.1c-3.5-2.7-4.2-7.7-1.5-11.2 1.5-2 3.9-3.1 6.4-3.1 1.8 0 3.4.6 4.9 1.7l.1.1c1.7 1.3 2.8 3.2 3.1 5.3.3 2-.3 4.1-1.6 5.8z"/>
    <path class="st0" d="M454.4 465.9c-1.5 2-3.9 3.2-6.4 3.2-1.8 0-3.4-.6-4.8-1.6l-.1-.1c-1.7-1.3-2.8-3.2-3.1-5.3-.3-2.1.3-4.2 1.6-5.9 1.5-2 3.8-3.2 6.4-3.2 1.8 0 3.4.6 4.8 1.6l.1.1c3.4 2.6 4.1 7.7 1.5 11.2z"/>
    <path class="st0" d="M454.4 383.9c-1.5 2-3.9 3.2-6.4 3.2-1.8 0-3.4-.6-4.8-1.6l-.1-.1c-3.5-2.7-4.2-7.7-1.5-11.2 1.5-2 3.8-3.2 6.4-3.2 1.8 0 3.4.6 4.8 1.6l.1.1c1.7 1.3 2.8 3.2 3.1 5.3.2 2.1-.3 4.2-1.6 5.9z"/>
    <path class="st0" d="M454.4 301.9c-1.5 2-3.9 3.2-6.4 3.2-1.8 0-3.4-.6-4.8-1.6l-.1-.1c-3.5-2.7-4.2-7.7-1.5-11.2 1.5-2 3.8-3.2 6.4-3.2 1.8 0 3.4.6 4.8 1.6l.1.1c1.7 1.3 2.8 3.2 3.1 5.3.2 2.1-.3 4.2-1.6 5.9z"/>
    <path class="st0" d="M377.5 338c0 4.4-3.6 8-8 8h-.1c-4.4 0-8-3.6-8-8s3.6-8 8-8h.1c4.4 0 8 3.6 8 8z"/>
    <path class="st0" d="M150.7 420c0 4.4-3.6 8-8 8h-.1c-4.4 0-8-3.6-8-8s3.6-8 8-8h.1c4.4 0 8 3.6 8 8z"/>
    <path class="st0" d="M81.7 192.3c0 2.1-.8 4.2-2.3 5.7s-3.5 2.3-5.7 2.3c-2.1 0-4.2-.9-5.7-2.3s-2.3-3.5-2.3-5.7c0-2.1.9-4.2 2.3-5.7s3.6-2.3 5.7-2.3 4.2.9 5.7 2.3c1.5 1.5 2.3 3.6 2.3 5.7z"/>
    <path class="st1" d="M502 248.5h-50.9l8.1-4.6c17.7-10.2 28.7-29.1 28.7-49.5 0-21.7-12-41.3-31.4-51l-2.1-1.1 1-2.2c3.3-7.4 5-15.2 5-23.3 0-31.4-25.6-57-57-57-9.9 0-19.3 2.5-27.8 7.3l-1.4.8-1.3-.9c-11.4-8-24.7-12.2-38.4-12.2-.9 0-1.8 0-2.8.1l-1.9.1-.6-1.8c-5.1-14.7-14.5-27.3-27.2-36.5-13-9.2-28.2-14.2-43.8-14.2-28.7 0-55.1 16.7-67.5 42.5l-.7 1.6-1.8-.1c-2.2-.2-4.7-.3-7-.3-30.2 0-57.3 18-69 45.8l-.9 2.1-2.1-.6c-1.8-.5-4-1.2-6.3-1.7l-2.1-.5.3-2.1c1.2-13.4 5.5-23.7 12.9-30.7 4.4-4.2 8.7-6.1 11.1-6.9v-.4l2.4-.4c1.8-.3 3.2-1 4.2-2.2 1.4-1.4 2.2-3.3 2.2-5.3 0-1.9-.8-3.9-2.2-5.4-1.3-1.3-3.3-2.1-5.3-2.1-.4 0-.8 0-1.2.1l-1.3.2c-3.8.8-11.3 3.2-18.9 10.2l-4.1 3.8V10c0-4.1-3.4-7.5-7.5-7.5h-24c-4.1 0-7.5 3.4-7.5 7.5v44.4l-4.4-5.5c-9-11.1-18.9-18.7-23.9-22.2-.2-.1-.3-.2-.4-.3-1.3-.8-2.7-1.2-4.1-1.2-2.5 0-4.8 1.3-6.3 3.4-2.3 3.5-1.3 8.2 2.2 10.4 1.3.9 31.6 21.4 36.2 51.3l.4 2.1-2.3.7c-16.1 4.9-30.6 14.6-40.7 27.3-10.5 13.1-16 28.8-16 45.2 0 11.5 5.7 39.1 16.4 79.7l.8 3.1H10c-4.1 0-7.5 3.4-7.5 7.5v246c0 4.1 3.4 7.5 7.5 7.5h492c4.1 0 7.5-3.4 7.5-7.5V256c0-4.1-3.4-7.5-7.5-7.5zM126 97.9c9.3-22.3 31-36.8 55.3-36.8 4.1 0 8.1.4 11.9 1.2.6.1 1.1.2 1.5.2 3.2 0 6-2 7-5 8.5-23.9 31.2-39.9 56.5-39.9 24.2 0 46.6 15.2 55.7 37.7l1 2.4-2.5.9c-26.8 9.3-44.8 34.6-44.8 63 0 4.1 3.4 7.5 7.5 7.5s7.5-3.4 7.5-7.5c0-28.6 23.2-51.8 51.8-51.8 12.6 0 24.8 4.6 34.3 13 1.4 1.2 3.2 1.9 5 1.9 1.6 0 3.1-.5 4.5-1.5 7.3-5.5 16-8.4 25.2-8.4 23.2 0 42 18.8 42 42 0 9.2-2.9 17.9-8.3 25.1-1.5 2.1-1.9 4.6-1 7 .8 2.3 2.8 4.1 5.3 4.8 18.6 4.8 31.7 21.5 31.7 40.7 0 23.2-18.8 42-42 42-2.5 0-5.2-.3-8-.8-.5-.1-.9-.1-1.4-.1-3.2 0-6 2-7 5-.8 2.4-1.9 4.6-3.1 6.8l-.8 1.3h-18.9l2.8-3.9 40.9-58.7c1.1-1.7 1.6-3.8 1.2-5.7-.4-2-1.5-3.8-3.2-4.9L404.4 156c-1.2-.8-2.5-1.2-4.1-1.2-.6 0-1.1.1-1.7.2-2 .5-3.8 1.8-4.8 3.5L379 182.6l-7.4 12.1 14.6-74.4c.8-4-1.9-8-5.8-8.8l-25.4-5.2c-.6-.1-1.1-.2-1.5-.2-1.4 0-2.9.4-4.2 1.3-1.6 1.1-2.8 2.9-3.2 4.9l-3.7 19.5H317c-4.1 0-7.5 3.4-7.5 7.5v58l-4.9.5-.1-.4c-6.6-33.5-36.1-57.8-70.2-57.8-15.6 0-30.5 5-43 14.4-10.2 7.6-18.2 18.1-23.2 30.2l-8.5 20.9 3.8-22.3c1.3-7.8 1.9-13.3 1.9-17 0-12.6-3.4-25.2-9.8-36.3l-.6-1 .4-1.1c5.7-15.3 20.4-25.6 36.7-25.6 2.5 0 5.1.3 7.8.8.6.1 1.1.2 1.5.2 3.1 0 6-2 7-5 2.3-6.5 6.3-12.3 11.5-16.8 3.1-2.7 3.5-7.4.8-10.6-1.4-1.7-3.4-2.6-5.7-2.6-1.8 0-3.6.6-4.9 1.8-5.3 4.5-9.6 9.9-12.8 16.1l-.8 1.4-1.6-.1c-1-.1-2-.1-3-.1-18.8 0-36 9.5-45.9 25.5l-1.6 2.6-2.2-2.1c-4.4-4.3-9.5-8.2-15.4-11.6l-1.9-1.2 1.2-2.2zm235.7 147.6l1.6-7.9.2-.3 39.1-64.6 2.1 1.5 14 9.3-1.5 2.1-43.1 61.8-.7 1.1H361l.7-3zm-6.2-45.8l-4.9-.5v-28.6l.1-.3c0-.1 0-.3.1-.3v-.2l8.4-45 .5-2.5 2.5.5 8.1 1.7-.5 2.5-14.3 72.7zm-30.7 29.9l-.3-.6.1-.7v-81.5h10.9v101.7h-8.2l.1-2.6v-1.8c.1-5-.8-9.9-2.6-14.5zM190 184.5h-5.5l2.5-3.9c10.4-16.1 28.6-26.1 47.6-26.1 27.3 0 50.6 19.4 55.5 46.2l.5 2.9h-3c-12.4.1-24.3 6.3-31.7 16.7l-2.3 3.1-2-3.4c-12.6-21.9-36.2-35.5-61.6-35.5zm56.1 64H133.9l.5-3c5.1-26.7 28.4-46 55.5-46s50.4 19.3 55.5 46l.7 3zm24.9-22.6c4.6-4.6 10.6-7.2 17-7.2 13.5 0 24.5 11.4 24.5 25.4 0 .6 0 1.3-.1 2.1l-.1 2.2h-48.4l-.1-2.3V245c0-.3-.1-.7-.1-1-.2-6.8 2.5-13.3 7.3-18.1zM76.7 17.5h9v72h-2.5c-1.4 0-2.7 0-3.9.1l-2.6.1V17.5zM17.5 165.7c0-2.7.2-5.4.6-8.3l.4-2.6 2.6.5c.5.1 1 .2 1.4.2H72c4.1 0 7.5-3.4 7.5-7.5s-3.4-7.5-7.5-7.5H23.2l2.3-3.8c11.7-19.9 34.1-32.2 58.5-32.2 36.7 0 66.5 27.5 66.5 61.2 0 3.4-.7 8.9-2 16.7l-.4 2h-41.8c-4.1 0-7.5 3.4-7.5 7.5s3.4 7.5 7.5 7.5h39.6l-4.6 4.4c-12 11.2-19.9 26.3-22 42.5l-.3 2.1H35.2l-.5-1.9c-11.1-41.3-17.2-70-17.2-80.8zm477 164.8H404c-4.1 0-7.5 3.4-7.5 7.5s3.4 7.5 7.5 7.5h90.5v67H176.6c-4.1 0-7.5 3.4-7.5 7.5s3.4 7.5 7.5 7.5h317.9v67h-477v-67H108c4.1 0 7.5-3.4 7.5-7.5s-3.4-7.5-7.5-7.5H17.5v-67h317.9c4.1 0 7.5-3.4 7.5-7.5s-3.4-7.5-7.5-7.5H17.5v-67h477v67z"/>
    <path class="st0" d="M253.5 64c0 4.4-3.6 8-8 8h-.1c-4.4 0-8-3.6-8-8s3.6-8 8-8h.1c4.4 0 8 3.6 8 8z"/>
</svg>
