<svg id="Layer_1" xmlns="http://www.w3.org/2000/svg" viewBox="0 0 512 512">
    <style>
        .st0{fill:#82b056;stroke:#82b056;stroke-miterlimit:10}
    </style>
    <path class="st0" d="M485.3 448.3L330.8 239.6l-1.2-1.6V86.1l3.9-1.5c9.9-3.6 17.7-10.9 22.1-20.4 4.4-9.6 4.8-20.2 1.2-30.1-5.6-15.1-20.4-25.5-36.6-25.6H188.6c-10.5 0-20.4 4.1-27.7 11.6-7.5 7.5-11.5 17.3-11.5 27.8 0 16.2 10.3 30.9 25.4 36.6l3.9 1.5v151.9l-1.2 1.6L23.1 448c-14.9 20.6-11.6 34.6-8.3 41.1 3.3 6.7 12.8 17.8 38.1 17.8h402.8c5.9 0 10.9-.7 15.2-1.6V492c-4.3 1.5-9.3 2.1-15.2 2.1h-403c-13.3 0-22.9-3.9-26.4-10.7-3.5-6.9-.8-16.9 7.1-27.6l157.1-211.7c.8-1.1 1.2-2.4 1.2-3.9v-153h27.8c3.6 0 6.5-2.9 6.5-6.5s-2.9-6.5-6.5-6.5H189c-14.2 0-26.4-11.1-26.9-25.3-.5-14.9 11.5-27.3 26.2-27.3h130.9c14.2 0 26.4 11.1 26.9 25.3.5 14.9-11.5 27.2-26.2 27.2h-28.1c-3.9 0-6.9 3.3-6.5 7.2.3 3.3 3.3 5.9 6.8 5.9h24.2v153.1c0 1.5.4 2.8 1.3 3.9l157.1 211.9c7.7 11.1 10.1 20.8 6.8 27.6-3.1 3.5-6.8 6.3-10.9 8.3h-.1v13.4c14.1-3.3 20.2-11.2 22.9-16.2 3.6-6.6 6.9-20.7-8.1-40.9z"/>
    <path class="st0" d="M382.2 367.1c0 3.6-2.9 6.5-6.5 6.5h-2c-13.4 0-27-3.1-39.1-8.9-10.7-5.3-22.6-8.1-34.5-8.1h-3.9c-11.9 0-23.7 2.8-34.2 8-12.1 5.9-25.6 8.9-38.9 8.9h-3.8c-13.4 0-26.9-3.1-39-8.9-9.6-4.8-19.8-7.3-30.4-7.9-3.6-.3-6.4-3.3-6.1-6.9.1-3.5 3.1-6.3 6.5-6.3h.4c12 .5 23.6 3.5 34.5 8.7 10.7 5.3 22.5 8 34.5 8h3.9c11.9 0 23.7-2.8 34.2-8 12.1-5.9 25.6-8.9 38.9-8.9H300.9c13.4 0 27 3.1 39.1 8.9 10.7 5.3 22.6 8.1 34.5 8.1h1.5v.1c3.3.1 6.2 3.1 6.2 6.7z"/>
    <path class="st0" d="M256.5 220.2c0 7.5-6 13.4-13.4 13.4s-13.4-6-13.4-13.4c0-7.5 6-13.4 13.4-13.4 7.4-.2 13.4 5.9 13.4 13.4z"/>
    <path class="st0" d="M287.6 290.8c0 5.1-4.1 9.2-9.3 9.2-5.2 0-9.3-4.1-9.3-9.2s4.1-9.3 9.3-9.3c5.1-.1 9.3 4.2 9.3 9.3z"/>
    <circle class="st0" cx="263.3" cy="142.8" r="10.1"/>
    <path class="st0" d="M484.9 257.9c0-61.7-24-119.6-67.6-163.1-43.5-43.5-101.5-67.6-163.1-67.6S134.6 51.1 91 94.7c-43.5 43.5-67.6 101.5-67.6 163.1S47.3 377.4 91 421c43.5 43.5 101.5 67.6 163.1 67.6s119.6-24 163.1-67.6c43.7-43.6 67.7-101.5 67.7-163.1zM76.1 384.1l362.3-243.3c21.6 33.8 34.1 74 34.1 117 0 120.4-98 218.4-218.4 218.4-73.3 0-138.3-36.4-178-92.1zm353.3-256.5L67.3 370.8c-20-33-31.6-71.6-31.6-112.9 0-120.4 98-218.4 218.4-218.4 71.8 0 135.4 34.6 175.3 88.1z"/>
</svg>
