<svg id="Layer_1" xmlns="http://www.w3.org/2000/svg" viewBox="0 0 512 512">
    <style>
        .st0{fill:#82b056}
    </style>
    <path class="st0" d="M435.7 147.1H283.8c-4.5 0-8.2 3.7-8.2 8.2s3.7 8.2 8.2 8.2h151.9c4.5 0 8.2-3.7 8.2-8.2s-3.6-8.2-8.2-8.2z"/>
    <path class="st0" d="M495.8 212.4h-19.2v-81.7h2.7c4.5 0 8.2-3.7 8.2-8.2s-3.7-8.2-8.2-8.2h-13.9c-4-52.1-45.7-93.8-97.7-97.7V8.2c0-4.5-3.7-8.2-8.2-8.2s-8.2 3.7-8.2 8.2v8.5c-52.1 4-93.8 45.7-97.7 97.7h-13.9c-4.5 0-8.2 3.7-8.2 8.2s3.7 8.2 8.2 8.2h2.7v81.7h-57.2c3.6-4.8 6.1-10.3 7.4-16.3h3.5c4.5 0 8.2-3.7 8.2-8.2s-3.7-8.2-8.2-8.2h-10.9c3.6-4.8 6.1-10.3 7.4-16.3h3.5c4.5 0 8.2-3.7 8.2-8.2s-3.7-8.2-8.2-8.2h-10.9c3.6-4.8 6.1-10.3 7.4-16.3h3.5c4.5 0 8.2-3.7 8.2-8.2s-3.7-8.2-8.2-8.2h-10.9c3.6-4.8 6.1-10.3 7.4-16.3h3.5c4.5 0 8.2-3.7 8.2-8.2s-3.7-8.2-8.2-8.2H32.7c-4.5 0-8.2 3.7-8.2 8.2s3.7 8.2 8.2 8.2h3.5c1.2 6 3.8 11.6 7.4 16.3H32.7c-4.5 0-8.2 3.7-8.2 8.2s3.7 8.2 8.2 8.2h3.5c1.2 6 3.8 11.6 7.4 16.3H32.7c-4.5 0-8.2 3.7-8.2 8.2s3.7 8.2 8.2 8.2h3.5c1.2 6 3.8 11.6 7.4 16.3H32.7c-4.5 0-8.2 3.7-8.2 8.2s3.7 8.2 8.2 8.2h3.5c1.2 6 3.8 11.6 7.4 16.3H16.2c-4.5 0-8.2 3.7-8.2 8.2V286c0 4.5 3.7 8.2 8.2 8.2h403.3c4.5 0 8.2-3.7 8.2-8.2s-3.7-8.2-8.2-8.2H24.4v-49h463.2v49h-35.4c-4.5 0-8.2 3.7-8.2 8.2s3.7 8.2 8.2 8.2h32.6v168.5c-12.3-1.2-19.4-5.1-27.4-9.5-10.1-5.6-21.6-11.9-43.4-11.9s-33.3 6.3-43.4 11.9c-9.6 5.3-17.9 9.9-35.5 9.9s-25.9-4.6-35.5-9.9c-10.1-5.6-21.6-11.9-43.4-11.9s-33.3 6.3-43.4 11.9c-9.6 5.3-17.9 9.9-35.5 9.9s-25.9-4.6-35.5-9.9c-10.1-5.6-21.6-11.9-43.4-11.9s-33.3 6.3-43.4 11.9c-2.3 1.3-4.5 2.5-6.8 3.6-5.7 2.8-11.8 5.1-20.6 5.9v-144c0-4.5-3.7-8.2-8.2-8.2s-8.2 3.7-8.2 8.2v152.5c0 4.5 3.7 8.2 8.2 8.2 10.1 0 18-1.4 24.5-3.4v27.9c0 4.5 3.7 8.2 8.2 8.2s8.2-3.7 8.2-8.2v-35c.9-.5 1.7-.9 2.6-1.4 9.6-5.3 17.9-9.9 35.5-9.9s25.9 4.6 35.5 9.9c10.1 5.6 21.6 11.9 43.4 11.9 21.9 0 33.3-6.3 43.4-11.9 9.6-5.3 17.9-9.9 35.5-9.9s25.9 4.6 35.5 9.9c10.1 5.6 21.6 11.9 43.4 11.9 21.8 0 33.3-6.3 43.4-11.9 9.6-5.3 17.9-9.9 35.5-9.9s25.9 4.6 35.5 9.9c.8.5 1.7.9 2.6 1.4v35c0 4.5 3.7 8.2 8.2 8.2s8.2-3.7 8.2-8.2V476c6.6 2 14.4 3.4 24.5 3.4 4.5 0 8.2-3.7 8.2-8.2v-179c1.7-1.5 2.8-3.7 2.8-6.2v-65.4c-.1-4.5-3.7-8.2-8.2-8.2zm-343.3 0H76.3c-10.7 0-19.7-6.8-23.1-16.3h122.5c-3.5 9.5-12.5 16.3-23.2 16.3zm0-32.7H76.3c-10.7 0-19.7-6.8-23.1-16.3h122.5c-3.5 9.5-12.5 16.3-23.2 16.3zm0-32.6H76.3c-10.7 0-19.7-6.8-23.1-16.3h122.5c-3.5 9.4-12.5 16.3-23.2 16.3zm0-32.7H76.3c-10.7 0-19.7-6.8-23.1-16.3h122.5c-3.5 9.5-12.5 16.3-23.2 16.3zm207-81.7c46.8 0 85.3 36 89.5 81.7H270c4.1-45.8 42.7-81.7 89.5-81.7zm100.8 179.7H258.7v-81.7h201.5v81.7z"/>
    <circle class="st0" cx="446.6" cy="373.1" r="8.2"/>
    <circle class="st0" cx="414" cy="405.8" r="8.2"/>
</svg>
