<svg id="Layer_1" xmlns="http://www.w3.org/2000/svg" viewBox="0 0 512 512">
    <style>
        .st0{fill:#82b056}
    </style>
    <path class="st0" d="M375.5 315.7c0-4.7-3.8-8.5-8.5-8.5h-51.2c-4.7 0-8.5 3.8-8.5 8.5s3.8 8.5 8.5 8.5H367c4.6.1 8.5-3.8 8.5-8.5z"/>
    <path class="st0" d="M341.3 93.9V51.2c0-4.7-3.8-8.5-8.5-8.5s-8.5 3.8-8.5 8.5v42.7c0 23.5 19.1 42.7 42.7 42.7h76.8v162.1c0 4.7 3.8 8.5 8.5 8.5s8.5-3.8 8.5-8.5V128c0-4.7-3.8-8.5-8.5-8.5H367c-14.2 0-25.7-11.5-25.7-25.6z"/>
    <path class="st0" d="M366.9 204.8h-68.3c-4.7 0-8.5 3.8-8.5 8.5s3.8 8.5 8.5 8.5h68.3c4.7 0 8.5-3.8 8.5-8.5.1-4.7-3.8-8.5-8.5-8.5z"/>
    <path class="st0" d="M273.1 213.3c0-4.7-3.8-8.5-8.5-8.5h-51.2c-4.7 0-8.5 3.8-8.5 8.5s3.8 8.5 8.5 8.5h51.2c4.6.1 8.5-3.8 8.5-8.5z"/>
    <path class="st0" d="M213.3 256c-4.7 0-8.5 3.8-8.5 8.5s3.8 8.5 8.5 8.5h17.1c4.7 0 8.5-3.8 8.5-8.5s-3.8-8.5-8.5-8.5h-17.1z"/>
    <path class="st0" d="M213.3 170.7h85.3c4.7 0 8.5-3.8 8.5-8.5s-3.8-8.5-8.5-8.5h-85.3c-4.7 0-8.5 3.8-8.5 8.5 0 4.6 3.8 8.5 8.5 8.5z"/>
    <path class="st0" d="M264.5 273.1h85.3c4.7 0 8.5-3.8 8.5-8.5s-3.8-8.5-8.5-8.5h-85.3c-4.7 0-8.5 3.8-8.5 8.5s3.8 8.5 8.5 8.5z"/>
    <path class="st0" d="M315.7 358.4c-4.7 0-8.5 3.8-8.5 8.5s3.8 8.5 8.5 8.5h17.1c4.7 0 8.5-3.8 8.5-8.5s-3.8-8.5-8.5-8.5h-17.1z"/>
    <path class="st0" d="M281.6 307.2h-68.3c-4.7 0-8.5 3.8-8.5 8.5s3.8 8.5 8.5 8.5h68.3c4.7 0 8.5-3.8 8.5-8.5s-3.8-8.5-8.5-8.5z"/>
    <path class="st0" d="M281.6 358.4h-68.3c-4.7 0-8.5 3.8-8.5 8.5s3.8 8.5 8.5 8.5h68.3c4.7 0 8.5-3.8 8.5-8.5s-3.8-8.5-8.5-8.5z"/>
    <path class="st0" d="M484.8 351.5l-17.1-17.1c-13.1-13.1-33.1-13.1-46.2 0L309.7 446.2c-1.6 1.6-2.5 3.8-2.5 6v51.2c0 4.7 3.8 8.5 8.5 8.5h51.2c2.3 0 4.4-.9 6-2.5l111.8-111.8c13.6-13.5 13.6-32.5.1-46.1zm-74.3 18.1l13.5 13.5-74.1 74.1-13.5-13.5 74.1-74.1zm-86.2 125.3v-39.1l39.1 39.1h-39.1zm51.2-12L362 469.4l74.1-74.1 13.5 13.5-74.1 74.1zm97.2-97.3l-11 11-39.1-39.1 11-11c6.7-6.7 15.3-6.8 22.1 0l17.1 17.1c6.8 6.9 6.8 15.1-.1 22z"/>
    <path class="st0" d="M281.6 494.9H59.7c-14.1 0-25.6-11.5-25.6-25.6V42.7c0-14.1 11.5-25.6 25.6-25.6h269.5L412 99.9c3.3 3.3 8.7 3.3 12.1 0 3.3-3.3 3.3-8.7 0-12.1L338.8 2.5C337.2.9 335 0 332.8 0H59.7C36.2 0 17.1 19.1 17.1 42.7v426.7c0 23.5 19.1 42.7 42.7 42.7h221.9c4.7 0 8.5-3.8 8.5-8.5s-3.9-8.7-8.6-8.7z"/>
    <path class="st0" d="M281.6 409.6h-68.3c-4.7 0-8.5 3.8-8.5 8.5s3.8 8.5 8.5 8.5h68.3c4.7 0 8.5-3.8 8.5-8.5s-3.8-8.5-8.5-8.5z"/>
    <path class="st0" d="M170.7 162.1c0-4.7-3.8-8.5-8.5-8.5H111c-4.7 0-8.5 3.8-8.5 8.5v51.2c0 4.7 3.8 8.5 8.5 8.5h51.2c4.7 0 8.5-3.8 8.5-8.5v-51.2zm-17.1 42.7h-34.1v-34.1h34.1v34.1z"/>
    <path class="st0" d="M110.9 426.7h51.2c4.7 0 8.5-3.8 8.5-8.5V367c0-4.7-3.8-8.5-8.5-8.5h-51.2c-4.7 0-8.5 3.8-8.5 8.5v51.2c0 4.6 3.8 8.5 8.5 8.5zm8.6-51.2h34.1v34.1h-34.1v-34.1z"/>
    <path class="st0" d="M122 321.8c1.6 1.6 3.8 2.5 6 2.5h.8c2.5-.2 4.8-1.6 6.3-3.8l34.1-51.2c2.6-3.9 1.6-9.2-2.4-11.8-3.9-2.6-9.2-1.6-11.8 2.4l-28.4 42.5-9.7-9.7c-3.3-3.3-8.7-3.3-12.1 0s-3.3 8.7 0 12.1l17.2 17z"/>
</svg>
