<svg id="Capa_1" xmlns="http://www.w3.org/2000/svg" viewBox="0 0 512 512">
    <style>
        .st0{fill:#82b056}
    </style>
    <path class="st0" d="M269.2 32.2h-5.7v-5.7c0-4.1-3.3-7.5-7.5-7.5s-7.5 3.3-7.5 7.5v5.7h-5.7c-4.1 0-7.5 3.3-7.5 7.5s3.3 7.5 7.5 7.5h5.7v5.7c0 4.1 3.3 7.5 7.5 7.5 4.1 0 7.5-3.3 7.5-7.5v-5.7h5.7c4.1 0 7.5-3.3 7.5-7.5-.1-4.2-3.4-7.5-7.5-7.5z"/>
    <path class="st0" d="M474.9 486.4l-21.8-127.9c-2.4-13.9-12.2-25-25.7-29.1l-98.1-29.6c-4.3-1.3-8.8-.7-12.5 1.3-3.5-3.1-6-8.4-6-13.3v-24.5c.3-.2.5-.4.8-.7.4-.3.8-.7 1.2-1h9.6c13.3 0 25.7-5.4 34.8-15.1 9.1-9.7 13.7-22.4 12.8-35.7l-2.7-42.1v-.6c0-1.1-.1-2.3-.3-3.4l-3-47.1c-.3-4.1-3.8-7.2-7.9-7-4.1.3-7.3 3.8-7 7.9l1.8 27.9c-2-.6-4-.9-6.1-.9h-.4c-2.2-3.3-5.8-5.6-10.1-6-77.6-7-99.9-30.2-116.3-47.1-3.4-3.5-9-3.8-16.5-.8-13.2 5.2-35.6 22-36.1 51.9v2c-1.5.1-2.9.4-4.3.8l2.3-36.4c1.2-19.4 11-36.7 26.5-47.6l.6 1.5c3.8 9.8 13.3 16.4 23.8 16.4h85.3c10.5 0 20.1-6.6 23.8-16.4l.1-.3c8.1 6.1 14.6 14 19 23.2 1.3 2.7 4 4.3 6.7 4.3 1.1 0 2.2-.2 3.2-.7 3.7-1.8 5.3-6.2 3.5-10-6.1-12.7-15.3-23.4-26.9-31.2l5.1-13.5c2-5.1 1.6-10.8-1.1-15.6-2.6-4.8-7.2-8.2-12.6-9.3L277.5 2C263.7-.8 249.8-.8 236 2l-42.9 8.7c-5.4 1.1-10 4.5-12.6 9.3s-3 10.5-1.1 15.6l4.8 12.4c-21.1 13.4-34.4 35.8-36 61l-3.5 56c-.1 1-.2 2-.2 3.1v.6l-2.7 42.1c-.8 13.3 3.7 26 12.8 35.7 9.1 9.7 21.5 15.1 34.8 15.1h9.6c.4.4.8.7 1.2 1 .3.2.5.4.8.7v24.5c0 4.9-2.5 10.2-6 13.3-3.7-2-8.2-2.6-12.5-1.3l-98.1 29.6c-13.5 4.1-23.3 15.2-25.7 29.1l-8.2 48.1c-.7 4.1 2 7.9 6.1 8.6 4.1.7 7.9-2 8.6-6.1l8.2-48.1c1.4-8.2 7.3-14.9 15.3-17.3l98.1-29.6c.6-.2 1.3.1 1.6.7l46.8 92.5c1.2 2.4 2.8 4.6 4.8 6.4 4.2 4 9.8 6.2 15.8 6.2 3.8 0 7.5-.9 10.7-2.6 4.2-2.2 7.6-5.6 9.8-10l46.8-92.5c.3-.6 1-.9 1.6-.7l98.1 29.6c8 2.4 13.9 9 15.3 17.3l21.8 127.9c.5 2.8-.8 4.7-1.5 5.6-.8.9-2.5 2.5-5.3 2.5h-46.3l-12.2-71.5c-.7-4.1-4.6-6.8-8.6-6.1-4.1.7-6.8 4.6-6.1 8.6l11.8 69H120.1l11.8-69c.7-4.1-2-7.9-6.1-8.6-4.1-.7-7.9 2-8.6 6.1L104.9 497H58.6c-2.8 0-4.5-1.5-5.3-2.5s-2-2.9-1.5-5.6l7.6-44.5c.7-4.1-2-7.9-6.1-8.6-4.1-.7-7.9 2-8.6 6.1L37 486.4c-1.1 6.4.7 12.9 4.8 17.8s10.3 7.8 16.7 7.8h394.7c6.5 0 12.6-2.8 16.7-7.8 4.4-4.9 6.1-11.4 5-17.8zm-281-459.1c.3-.6 1-1.5 2.5-1.8l42.9-8.7C245.1 15.6 251 15 257 15c5.9 0 11.9.6 17.7 1.8l42.9 8.7c1.4.3 2.2 1.3 2.5 1.8.3.6.7 1.7.2 3.1l-10.8 28.2c-1.6 4.1-5.5 6.8-9.9 6.8h-85.3c-4.3 0-8.3-2.7-9.9-6.8l-10.8-28.2c-.5-1.4 0-2.6.3-3.1zm161.2 184.5c.6 9.1-2.6 17.9-8.8 24.5-5.1 5.4-11.7 8.9-18.8 10 8.2-10.2 16.3-23.6 18.6-39 3.1-.2 6-1 8.7-2.3l.3 6.8zm-189.3 24.5c-6.3-6.7-9.4-15.4-8.8-24.5l.4-6.7c2.6 1.3 5.6 2.1 8.7 2.3 2.3 15.4 10.3 28.8 18.6 39-7.3-1.2-13.9-4.7-18.9-10.1zm98.3 162.5l-.9 1.9c-.1.3-.3.5-.4.7 0 .1-.1.2-.1.2-.1.1-.2.3-.3.4-.4.5-.7.9-1.2 1.3-.1.1-.2.1-.3.2-1.4 1-3 1.6-4.8 1.6-3.1 0-5.8-1.7-7.2-4.4l-31-61.3h76.5l-30.3 59.4zm37.7-74.5h-91.7l-5.8-11.4c7-5.9 11.8-15.5 11.8-25.1v-12.9c9.8 6.3 22 11.2 39.7 11.4h.2c17.7-.2 29.9-5.1 39.7-11.4v12.9c0 9.6 4.8 19.2 11.8 25.1l-5.7 11.4zm0-73c-13.8 11.9-24.5 19.7-45.8 20-21.3-.3-31.9-8.1-45.8-20-18.4-15.8-29.5-35.1-29.9-51.6-.1-4.1-3.4-7.3-7.5-7.3h-5.7c-4.2 0-7.6-3.4-7.6-7.6v-16.7c0-.3 0-.7.1-1 0-.1 0-.2.1-.3.6-3.5 3.7-6.2 7.4-6.2h5.7c4.1 0 7.5-3.3 7.5-7.5v-9.3c.4-25.3 22-37.1 28.8-39 21.9 22.4 48.9 42.7 122.6 49.5.6 3.5 3.7 6.2 7.4 6.2h5.7c3.7 0 6.8 2.7 7.4 6.2 0 .1 0 .2.1.3 0 .3.1.7.1 1v16.7c0 4.2-3.4 7.6-7.6 7.6h-5.7c-4.1 0-7.4 3.3-7.5 7.3-.3 16.6-11.5 35.9-29.8 51.7z"/>
</svg>
