<svg id="Layer_1" xmlns="http://www.w3.org/2000/svg" viewBox="0 0 512 512">
    <style>
        .st0{fill:#82b056}
    </style>
    <path class="st0" d="M392.3 226.1c0-16.2-13.2-29.4-29.4-29.4h-54c13.1-14.8 21.7-31.6 23.4-46.6 1-9.2-1.8-18.3-7.8-25.1-5.5-6.1-12.9-9.6-21-9.7h-.3c-7.8 0-15.2 3-20.7 8.5s-8.6 12.8-8.7 20.6c-.3 1.7-3.3 7.6-10.7 14.6-6 5.7-16.4 13.6-31.8 18.6-6 2-11.5 5.6-16.4 10.7-2.5 2.7-6.3 6.4-11 10.2-2.3-1.2-4.9-1.9-7.7-1.9h-51.3c-9.1 0-16.6 7.4-16.6 16.6V350c0 9.1 7.4 16.6 16.6 16.6h51.3c6.2 0 11.7-3.5 14.5-8.6h130.9c13.9 0 25.1-11.3 25.1-25.1 0-4.7-1.3-9-3.5-12.8 7.2-4.4 12-12.4 12-21.4 0-4.7-1.3-9-3.5-12.8 7.2-4.4 12-12.4 12-21.4 0-5.2-1.6-10.1-4.4-14.1 7.9-5.3 13-14.2 13-24.3zm-29.4 13.3h-4.3c-4.4 0-8 3.6-8 8s3.6 8 8 8c5 0 9.1 4.1 9.1 9.1s-4.1 9.1-9.1 9.1H350c-4.4 0-8 3.6-8 8s3.6 8 8 8c5 0 9.1 4.1 9.1 9.1s-4.1 9.1-9.1 9.1h-8.6c-4.4 0-8 3.6-8 8s3.6 8 8 8c5 0 9.1 4.1 9.1 9.1s-4.1 9.1-9.1 9.1H212.7v-77.5c0-4.4-3.6-8-8-8s-8 3.6-8 8V350c0 .3-.2.5-.5.5h-51.3c-.3 0-.5-.2-.5-.5V213.2c0-.3.2-.5.5-.5h51.3c.3 0 .5.2.5.5v17.1c0 4.4 3.6 8 8 8s8-3.6 8-8v-17.1c0-.4 0-.8-.1-1.2 6-4.7 10.8-9.4 14-12.7 3-3.2 6.2-5.3 9.6-6.4 18.9-6.1 31.6-16 38.9-23.2 9.2-9 14.7-18.4 14.7-25.2 0-3.6 1.4-6.9 3.9-9.4s5.9-3.9 9.6-3.9c4.5 0 7.5 2.3 9.2 4.3 2.9 3.3 4.4 8 3.9 12.7-1.8 15.9-14.5 35.6-32.5 50.2-2.6 2.1-3.6 5.7-2.5 8.9s4.2 5.3 7.6 5.3h74c7.4 0 13.4 6 13.4 13.4s-6.1 13.4-13.5 13.4z"/>
    <path class="st0" d="M170.5 316.3c-4.4 0-8.1 3.6-8.1 8.1s3.6 8.1 8.1 8.1 8.1-3.6 8.1-8.1c-.1-4.5-3.7-8.1-8.1-8.1z"/>
    <path class="st0" d="M497.7 256l13.8-36.4c1-2.7.5-5.6-1.2-7.8l-24.4-30.4 1.8-38.9c.1-2.8-1.2-5.5-3.6-7.1L451.5 114l-10.3-37.6c-.7-2.7-2.9-4.9-5.6-5.6L398 60.5l-21.4-32.6c-1.6-2.4-4.2-3.7-7.1-3.6l-38.9 1.8-30.3-24.3c-2.2-1.8-5.2-2.2-7.8-1.2L256 14.3 219.6.5c-2.7-1-5.6-.5-7.8 1.2l-30.4 24.4-38.9-1.8c-2.8-.1-5.5 1.2-7.1 3.6L114 60.5 76.3 70.7c-2.7.7-4.9 2.9-5.6 5.6l-10.3 37.6-32.6 21.4c-2.4 1.6-3.7 4.2-3.6 7.1l1.8 38.9-24.2 30.4c-1.8 2.2-2.2 5.2-1.2 7.8L14.3 256 .5 292.4c-1 2.7-.5 5.6 1.2 7.8l24.4 30.4-1.8 38.9c-.1 2.8 1.2 5.5 3.6 7.1L60.5 398l10.3 37.6c.7 2.7 2.9 4.9 5.6 5.6l37.6 10.3 21.4 32.6c1.6 2.4 4.3 3.7 7.1 3.6l38.9-1.8 30.4 24.4c2.2 1.8 5.2 2.2 7.8 1.2l36.4-13.8 36.4 13.8c.9.3 1.9.5 2.8.5 1.8 0 3.6-.6 5-1.8l30.4-24.4 38.9 1.8c2.8.1 5.5-1.2 7.1-3.6l21.4-32.6 37.6-10.3c2.7-.7 4.9-2.9 5.6-5.6l10.3-37.6 32.6-21.4c2.4-1.6 3.7-4.2 3.6-7.1l-1.8-38.9 24.4-30.4c1.8-2.2 2.2-5.2 1.2-7.8L497.7 256zm-16.1 2.8l13.2 35-23.3 29.2c-1.2 1.5-1.8 3.4-1.8 5.4l1.8 37.4-31.3 20.5c-1.6 1.1-2.8 2.7-3.3 4.6L427 427l-36.1 9.9c-1.9.5-3.5 1.7-4.6 3.3l-20.5 31.3-37.4-1.8c-2-.1-3.9.5-5.4 1.8l-29.2 23.4-35-13.2c-.9-.3-1.9-.5-2.8-.5s-1.9.2-2.8.5l-35 13.2-29.2-23.4c-1.5-1.2-3.4-1.8-5.4-1.8l-37.4 1.8-20.5-31.3c-1.1-1.6-2.7-2.8-4.6-3.3L85 427l-9.9-36.1c-.5-1.9-1.7-3.5-3.3-4.6l-31.3-20.5 1.8-37.4c.1-2-.5-3.9-1.8-5.4l-23.4-29.2 13.2-35c.7-1.8.7-3.8 0-5.7l-13.2-35L40.5 189c1.2-1.5 1.8-3.4 1.8-5.4l-1.8-37.4 31.3-20.5c1.6-1.1 2.8-2.7 3.3-4.6L85 85l36.1-9.9c1.9-.5 3.5-1.7 4.6-3.3l20.5-31.3 37.4 1.8c1.9.1 3.9-.5 5.4-1.8l29.2-23.4 35 13.2c1.8.7 3.8.7 5.7 0l35-13.2L323 40.5c1.5 1.2 3.4 1.8 5.4 1.8l37.4-1.8 20.5 31.3c1.1 1.6 2.7 2.8 4.6 3.3L427 85l9.9 36.1c.5 1.9 1.7 3.5 3.3 4.6l31.3 20.5-1.8 37.4c-.1 2 .5 3.9 1.8 5.4l23.4 29.2-13.2 35c-.7 1.8-.7 3.8-.1 5.6z"/>
    <path class="st0" d="M406.6 117.6c-2-2.2-4.1-4.3-6.2-6.4s-4.2-4.2-6.4-6.2c-3.3-3-8.3-2.8-11.3.5s-2.8 8.3.5 11.3c2 1.8 4 3.8 5.9 5.7 1.9 1.9 3.8 3.9 5.7 5.9 1.6 1.7 3.7 2.6 5.9 2.6 1.9 0 3.9-.7 5.4-2.1 3.3-3 3.5-8.1.5-11.3z"/>
    <path class="st0" d="M365.6 83.1c-38.7-24.6-85.2-35.6-131.1-30.8C188 57.1 144.1 78 111 111.2c-36.5 36.5-57.7 84.9-59.8 136.4-2.1 51.2 14.9 100.9 47.7 140 1.6 1.9 3.9 2.9 6.1 2.9 1.8 0 3.7-.6 5.2-1.9 3.4-2.9 3.8-7.9 1-11.3-30.3-36-45.9-81.8-44-129 1.9-47.5 21.5-92.1 55.1-125.7 30.5-30.5 71-49.8 113.8-54.2 42.3-4.4 85.2 5.7 120.8 28.4 3.7 2.4 8.7 1.3 11.1-2.5 2.4-3.8 1.3-8.8-2.4-11.2z"/>
    <path class="st0" d="M428.5 146c-2.4-3.7-7.3-4.8-11.1-2.5-3.7 2.4-4.8 7.3-2.5 11.1 22.7 35.6 32.8 78.5 28.4 120.8-4.4 42.9-23.7 83.3-54.2 113.8-33.6 33.6-78.3 53.2-125.7 55.1-47.2 1.9-93-13.7-129-44-3.4-2.9-8.4-2.4-11.3 1-2.9 3.4-2.4 8.4 1 11.3 36.9 31.1 83.4 47.9 131.6 47.9 2.8 0 5.6-.1 8.4-.2 51.5-2.1 99.9-23.3 136.4-59.8 33.1-33.1 54-77 58.9-123.5 4.7-45.8-6.3-92.3-30.9-131z"/>
</svg>
