<svg id="Capa_1" xmlns="http://www.w3.org/2000/svg" viewBox="0 0 512 512">
    <style>
        .st0{fill:#82b056}
    </style>
    <path class="st0" d="M415.7 24.4H31.5C14.1 24.4 0 38.5 0 55.9V376c0 17.4 14.1 31.5 31.5 31.5h251.6c4.1 0 7.5-3.4 7.5-7.5s-3.4-7.5-7.5-7.5h-28V344c0-12.8-7.6-24.2-19.4-29.1l-39.4-16.4c-3.2-1.3-5.2-4.4-5.2-7.9V279c10.1-10.3 16-24.3 16-39v-32c0-26.2-24.9-47.5-55.5-47.5S96 181.8 96 208v32c0 14.7 5.9 28.7 16 39v11.7c0 3.4-2.1 6.5-5.2 7.9L67.4 315C55.6 319.9 48 331.3 48 344v48.5H31.5c-9.1 0-16.5-7.4-16.5-16.5V119.4h417.2V244c0 4.1 3.4 7.5 7.5 7.5s7.5-3.4 7.5-7.5V55.9c0-17.4-14.1-31.5-31.5-31.5zM63 344c0-6.7 4-12.7 10.2-15.2l39.4-16.4c8.8-3.7 14.5-12.2 14.5-21.7v-1.6c2.8.2 5.5-1.2 7-3.7 2.1-3.6.9-8.2-2.7-10.2-12.5-7.2-20.3-20.7-20.3-35.1v-32c0-17.9 18.2-32.5 40.5-32.5s40.5 14.6 40.5 32.5v32c0 14.4-7.8 27.9-20.3 35.1-3.6 2.1-4.8 6.7-2.7 10.2 1.4 2.4 3.9 3.7 6.5 3.7h.5v1.6c0 9.5 5.7 18 14.5 21.7l39.4 16.4c6.2 2.6 10.2 8.6 10.2 15.2v48.5H63V344zm369.2-239.6H15V55.9c0-9.1 7.4-16.5 16.5-16.5h384.2c9.1 0 16.5 7.4 16.5 16.5v48.5z"/>
    <path class="st0" d="M39.6 64.4c-4.2 0-7.5 3.4-7.5 7.5s3.4 7.5 7.5 7.5 7.5-3.4 7.5-7.5-3.4-7.5-7.5-7.5z"/>
    <path class="st0" d="M87.5 64.4c-4.2 0-7.5 3.4-7.5 7.5s3.4 7.5 7.5 7.5S95 76 95 71.9s-3.3-7.5-7.5-7.5z"/>
    <path class="st0" d="M63.5 64.4c-4.2 0-7.5 3.4-7.5 7.5s3.4 7.5 7.5 7.5S71 76 71 71.9s-3.3-7.5-7.5-7.5z"/>
    <path class="st0" d="M407.7 64.4H119.5c-4.1 0-7.5 3.4-7.5 7.5s3.4 7.5 7.5 7.5h288.1c4.1 0 7.5-3.4 7.5-7.5.1-4.1-3.3-7.5-7.4-7.5z"/>
    <path class="st0" d="M507 294.5l-108-37.6c-1.6-.6-3.3-.6-4.9 0l-77.7 27c-3.9 1.4-6 5.6-4.6 9.5 1.4 3.9 5.6 6 9.5 4.6l75.2-26.2 100.2 34.8c-.9 9.6-3.8 31-13.6 56.7-11.9 31.3-36.5 75.1-86.6 107.7-49.9-32.5-74.5-76-86.4-107.1-13.3-34.9-14.1-62.4-14.1-62.7-.1-4.1-3.5-7.4-7.7-7.3-4.1.1-7.4 3.5-7.3 7.7 0 1.2.8 29.9 14.9 67.1 13 34.3 40.3 82.5 96.7 117.6 1.2.8 2.6 1.1 4 1.1s2.8-.4 4-1.1c56.4-35.1 83.7-83.3 96.7-117.6 14.1-37.2 14.9-65.9 14.9-67.1-.1-3.1-2.2-6-5.2-7.1z"/>
    <path class="st0" d="M445.2 336.8c-2.9-2.9-7.7-2.9-10.6 0l-46.4 46.4-27.6-27.6c-2.9-2.9-7.7-2.9-10.6 0-2.9 2.9-2.9 7.7 0 10.6l32.9 32.9c1.5 1.5 3.4 2.2 5.3 2.2s3.8-.7 5.3-2.2l51.7-51.7c2.9-2.9 2.9-7.7 0-10.6z"/>
    <path class="st0" d="M383.7 152.5H255.6c-8.5 0-15.5 7-15.5 15.5v24c0 8.5 7 15.5 15.5 15.5h128.1c8.5 0 15.5-7 15.5-15.5v-24c0-8.6-7-15.5-15.5-15.5zm.5 39.5c0 .3-.2.5-.5.5H255.6c-.3 0-.5-.2-.5-.5v-24c0-.3.2-.5.5-.5h128.1c.3 0 .5.2.5.5v24z"/>
    <path class="st0" d="M351.6 224.5h-96c-4.1 0-7.5 3.4-7.5 7.5s3.4 7.5 7.5 7.5h96c4.1 0 7.5-3.4 7.5-7.5s-3.3-7.5-7.5-7.5z"/>
    <path class="st0" d="M311.6 256.5h-56c-4.1 0-7.5 3.4-7.5 7.5s3.4 7.5 7.5 7.5h56c4.1 0 7.5-3.4 7.5-7.5s-3.3-7.5-7.5-7.5z"/>
</svg>
