<svg xmlns="http://www.w3.org/2000/svg" width="240" height="31" viewBox="0 0 240 31">
    <defs>
        <style>
            .cls-1,.cls-2{fill:#82b056;fill-rule:evenodd}.cls-2{fill:#4b545c}
        </style>
    </defs>
    <path id="_250-300_" data-name="250-300 ₽" class="cls-1" d="M21.079 15.59q4.03-4.491 4.03-8a6.994 6.994 0 0 0-2.522-5.035A7.621 7.621 0 0 0 17.3.147a12.622 12.622 0 0 0-5.014.841 32.779 32.779 0 0 0-5.342 3.3q-.7.492-1.21.82-1.6 1.046-1.6 1.928a3.486 3.486 0 0 0 .625 1.784 1.732 1.732 0 0 0 1.4 1 3.707 3.707 0 0 0 2.954-1.08 14.259 14.259 0 0 1 3.6-2.922 7.879 7.879 0 0 1 3-1.3 4.154 4.154 0 0 1 2.943 1.077 3.394 3.394 0 0 1 1.159 2.574 7.633 7.633 0 0 1-1.641 3.7 21.933 21.933 0 0 1-4.245 4.553 54.973 54.973 0 0 1-7.26 4.83 16.937 16.937 0 0 0-4.707 3.579 5.229 5.229 0 0 0-1.179 3.25q0 1.948 2.317 1.948a3.047 3.047 0 0 0 2.42-1.067 5.452 5.452 0 0 1 1.651-1.312 11.575 11.575 0 0 1 2.789-.79 22.732 22.732 0 0 1 4.173-.359 29.066 29.066 0 0 1 7.65.82 12.249 12.249 0 0 0 2.994.246 8.2 8.2 0 0 0 3.456-.82 2.643 2.643 0 0 0 1.774-2.481 1.989 1.989 0 0 0-.656-1.241A1.872 1.872 0 0 0 28 22.316a4.38 4.38 0 0 0-1.825.39 3.974 3.974 0 0 1-1.579.39q-.738 0-3.035-.287a30.415 30.415 0 0 0-3.24-.287 34.59 34.59 0 0 0-7.547.595 32.829 32.829 0 0 0 10.305-7.527zm28.027-9.864q1.148 0 3.753.1 2.584.1 2.83.1a24.686 24.686 0 0 0 3.773-.236 3.648 3.648 0 0 0 2.358-1.333 3.217 3.217 0 0 0 .88-1.708A1.756 1.756 0 0 0 61.462 1.2a5.306 5.306 0 0 0-2.307-.6 7.992 7.992 0 0 0-2.01.41 16.391 16.391 0 0 1-4.471.554q-2.4 0-5.711.154a15.389 15.389 0 0 0-4.327.584q-1.015.431-4.194 5.147-1.169 1.7-1.723 2.481a3.026 3.026 0 0 0-.861 1.846 2.866 2.866 0 0 0 1.312 1.794 8.062 8.062 0 0 0 4.553 1.261q5.6.349 7.229 1.456a3.446 3.446 0 0 1 1.63 2.994q0 1.538-3.056 3.076A12.483 12.483 0 0 1 42.01 23.9a8.313 8.313 0 0 1-4.286-1.21 3.263 3.263 0 0 0-1.887-.82q-3.158 0-3.158 2.481 0 1.313 2.676 2.7a13.087 13.087 0 0 0 6.1 1.384 16.265 16.265 0 0 0 10.008-3.168q4.245-3.168 4.245-6.265 0-3.794-2.287-5.465a15.464 15.464 0 0 0-6.962-2.307 23.692 23.692 0 0 1-4.959-.93 27.023 27.023 0 0 1 3.158-4.163 17.157 17.157 0 0 1 4.45-.41zM84.17 22.962q7.024-5.506 7.024-10.92a12.455 12.455 0 0 0-1.1-5.578 10.945 10.945 0 0 0-4.378-4.153A12.094 12.094 0 0 0 79.587.353q-3.815 0-8.613 3.209a20.961 20.961 0 0 0-7.229 8.008 19.744 19.744 0 0 0-2.43 8.818 8.525 8.525 0 0 0 1.979 5.8 6.741 6.741 0 0 0 5.363 2.276 24.564 24.564 0 0 0 15.513-5.502zm-.082-15.975a11.323 11.323 0 0 1 1.251 1.456 7.3 7.3 0 0 1 .615 1.856 10.5 10.5 0 0 1 .338 2.358q0 1.682-2.758 4.45a28.94 28.94 0 0 1-6.481 4.84q-3.722 2.072-5.957 2.071a6.183 6.183 0 0 1-2.082-.338 4.751 4.751 0 0 1-1.343-.656 2.807 2.807 0 0 1-.687-1.384 8.434 8.434 0 0 1-.3-2.276 11.289 11.289 0 0 1 1.641-5.8 22.631 22.631 0 0 1 3.845-4.9A18.986 18.986 0 0 1 75.741 5.8a7.176 7.176 0 0 1 3.476-.749 2.638 2.638 0 0 1 .943.431 2.39 2.39 0 0 0 .943.451 2.832 2.832 0 0 0 1.518-.349 16.84 16.84 0 0 1 1.467 1.403zm16.891 6.778a10.112 10.112 0 0 0-3.579.564A1.861 1.861 0 0 0 95.914 16a1.441 1.441 0 0 0 .831 1.436 7.924 7.924 0 0 0 3.25.267q4.265-.225 5.106-.164 2.708.205 3.138.205l1.866-.123a2.528 2.528 0 0 1 .492.082 16.746 16.746 0 0 0 2.031.431q2.377 0 2.378-1.907a2.3 2.3 0 0 0-.287-1.036A3.08 3.08 0 0 0 113 14.113a7.427 7.427 0 0 0-1.908-.513 12.918 12.918 0 0 0-1.825.123 59.662 59.662 0 0 1-6.788.267 7.6 7.6 0 0 0-1.5-.226z"/>
    <path id="_250-300_copy" data-name="250-300 ₽ copy" class="cls-2" d="M129.44 14.482a13.73 13.73 0 0 1 4.8.656 2.331 2.331 0 0 1 1.682 2.3q0 2.892-3.794 4.6a19.507 19.507 0 0 1-8.121 1.712 11.493 11.493 0 0 1-4.9-1.456 1.985 1.985 0 0 0-.862-.246q-2.727 0-2.727 2.482a2.86 2.86 0 0 0 2.153 2.912 17.15 17.15 0 0 0 5.476.738 23.731 23.731 0 0 0 12.017-3.322q5.763-3.322 5.763-7.937a5.363 5.363 0 0 0-2.3-4.635 11.1 11.1 0 0 0-6.521-1.641q-.555 0-1.682.123-1.005.123-1.456.164a17.143 17.143 0 0 1 3.814-2.481 24.722 24.722 0 0 0 4.861-3.107 2.984 2.984 0 0 0 .943-2.1 1.746 1.746 0 0 0-1.005-1.753 7.85 7.85 0 0 0-3.343-.359q-3.732.164-8.818.656-2.01.205-2.974.205a3.722 3.722 0 0 1-1.64-.41 5.144 5.144 0 0 0-1.969-.615 2.426 2.426 0 0 0-1.548.492 1.6 1.6 0 0 0-.626 1.333q0 3.691 4.163 3.691.657 0 5.8-.923 5.271-.923 5.7-.923a44.9 44.9 0 0 0-6.685 4.4 24.431 24.431 0 0 0-4.256 3.753 3.217 3.217 0 0 0-.584 1.712q0 1.436 2.481 1.436a12.41 12.41 0 0 1 6.153-1.456zm37.5 8.48q7.024-5.506 7.024-10.92a12.457 12.457 0 0 0-1.1-5.578 10.944 10.944 0 0 0-4.379-4.153 12.089 12.089 0 0 0-6.126-1.958q-3.815 0-8.614 3.209a20.962 20.962 0 0 0-7.229 8.008 19.745 19.745 0 0 0-2.43 8.818 8.528 8.528 0 0 0 1.979 5.8 6.741 6.741 0 0 0 5.363 2.276 24.564 24.564 0 0 0 15.514-5.502zm-.08-15.975a11.374 11.374 0 0 1 1.251 1.456 7.255 7.255 0 0 1 .615 1.856 10.487 10.487 0 0 1 .339 2.358q0 1.682-2.759 4.45a28.946 28.946 0 0 1-6.48 4.84q-3.723 2.072-5.958 2.071a6.181 6.181 0 0 1-2.081-.338 4.738 4.738 0 0 1-1.343-.656 2.814 2.814 0 0 1-.688-1.384 8.45 8.45 0 0 1-.3-2.276 11.288 11.288 0 0 1 1.641-5.8 22.6 22.6 0 0 1 3.845-4.9 18.98 18.98 0 0 1 3.571-2.864 7.176 7.176 0 0 1 3.476-.749 2.636 2.636 0 0 1 .944.431 2.386 2.386 0 0 0 .943.451 2.832 2.832 0 0 0 1.518-.349 16.935 16.935 0 0 1 1.466 1.403zm31.583 15.976q7.023-5.506 7.024-10.92a12.443 12.443 0 0 0-1.1-5.578 10.94 10.94 0 0 0-4.378-4.153 12.1 12.1 0 0 0-6.13-1.959q-3.815 0-8.613 3.209a20.962 20.962 0 0 0-7.229 8.008 19.745 19.745 0 0 0-2.43 8.818 8.523 8.523 0 0 0 1.979 5.8 6.741 6.741 0 0 0 5.363 2.276 24.564 24.564 0 0 0 15.514-5.502zm-.082-15.976a11.374 11.374 0 0 1 1.251 1.456 7.337 7.337 0 0 1 .615 1.856 10.535 10.535 0 0 1 .338 2.358q0 1.682-2.758 4.45a28.93 28.93 0 0 1-6.481 4.84q-3.721 2.072-5.957 2.071a6.187 6.187 0 0 1-2.082-.338 4.766 4.766 0 0 1-1.343-.656 2.806 2.806 0 0 1-.687-1.384 8.45 8.45 0 0 1-.3-2.276 11.287 11.287 0 0 1 1.64-5.8 22.637 22.637 0 0 1 3.846-4.9 18.98 18.98 0 0 1 3.571-2.864 7.176 7.176 0 0 1 3.476-.749 2.634 2.634 0 0 1 .943.431 2.394 2.394 0 0 0 .944.451 2.831 2.831 0 0 0 1.517-.349 16.91 16.91 0 0 1 1.467 1.403zm20.157 10.808l-.8 3.753h-2.379l-.677 3.3h2.379l-1.066 5.127h4.758l1.067-5.125h8.49l.677-3.3h-8.49l.8-3.753h3.978a17.973 17.973 0 0 0 4.676-.6 11.539 11.539 0 0 0 3.989-1.907 9.464 9.464 0 0 0 2.768-3.343 10.7 10.7 0 0 0 1.036-4.891 6.538 6.538 0 0 0-.605-2.912 5.332 5.332 0 0 0-1.713-2.02 7.665 7.665 0 0 0-2.7-1.169 15.364 15.364 0 0 0-3.558-.379h-9.044L219.2 14.493h-2.379l-.677 3.3h2.379zm11.4-13.822a9.5 9.5 0 0 1 2.287.236 3.908 3.908 0 0 1 1.517.708 2.734 2.734 0 0 1 .851 1.159 4.433 4.433 0 0 1 .267 1.61 7.019 7.019 0 0 1-.574 2.912 5.982 5.982 0 0 1-1.59 2.133 6.965 6.965 0 0 1-2.44 1.313 10.244 10.244 0 0 1-3.107.451h-3.179l2.195-10.521h3.773z"/>
</svg>
