<svg id="Layer_1" xmlns="http://www.w3.org/2000/svg" viewBox="0 0 134.3 123.7">
    <style>
        .st0{fill:#4b545c}.st1{fill:#82b056}
    </style>
    <circle class="st0" cx="34.7" cy="111.2" r="2.9"/>
    <path class="st0" d="M119.1 92.1l-.7-.4.4-.7c.5-.9.8-1.8.8-2.8v-1c0-3-2.4-5.4-5.4-5.4H95.1c-.3 0-.7.1-1.1.1l-1.1.2.2-1.1 3.5-17.3c.5-2.4.5-4.8.2-7.1-.9-5.3-3.7-8-8.2-8-.5 0-1 .4-1 .9l-1.2 7.1c-.5 2.9-1.1 5.6-2 8-2.3 7.1-5.3 10.7-10.6 13-2.6 1.1-4.4 1.9-5.2 2.3l-.2.1h-8.6v-2.2c0-.6-.5-1.1-1.1-1.1H45.5v-2.8c0-.6-.5-1.1-1.1-1.1H13.5c-.6 0-1.1.5-1.1 1.1v10.9c0 .6.5 1.1 1.1 1.1s1.1-.5 1.1-1.1v-9.9h28.8v44.8H14.6v-29c0-.6-.5-1.1-1.1-1.1s-1.1.5-1.1 1.1v29.9c0 .6.5 1.1 1.1 1.1h30.9c.6 0 1.1-.5 1.1-1.1v-2.8h13.2c.6 0 1.1-.5 1.1-1.1v-1.6h8.4l.2.2 3.9 3.2c3.2 2.6 7.2 4 11.3 4H95c.2 0 .4.1.6.1h13.1c3.3 0 5.9-2.7 5.9-5.9 0-1-.2-1.9-.7-2.7l-.5-1 1.1-.2c2.9-.4 5-2.9 5-5.8 0-1.1-.3-2.3-1-3.3l-.5-.7.8-.4c1.8-1 2.9-2.8 2.9-4.8v-1c.1-2-.9-3.8-2.6-4.7zm-24-8.3h19.2c1.8 0 3.3 1.5 3.3 3.3v1c0 1.8-1.5 3.3-3.3 3.3H95.1c-1.8 0-3.3-1.5-3.3-3.3V86.9c.1-.2.1-.5.2-.7.1-.2.1-.3.1-.5v-.1l.1-.1c.6-1 1.7-1.7 2.9-1.7zm-5.4 32.9c0 .9.2 1.8.6 2.6l.6 1.1h-7.2c-3.6 0-7.1-1.2-9.9-3.5l-4.4-3.6c-.2-.2-.4-.2-.7-.2h-8.8V107c0-.6-.5-1.1-1.1-1.1-.6 0-1.1.5-1.1 1.1v8.8H45.5V78.5h12.1v22.3c0 .6.5 1.1 1.1 1.1.6 0 1.1-.5 1.1-1.1v-19h8.8c.2 0 .3 0 .3-.1l.2-.1h.1c.1-.1.2-.1.4-.2.9-.4 2.7-1.2 4.9-2.2 5.9-2.5 9.3-6.6 11.8-14.3.8-2.5 1.5-5.3 2.1-8.4l.9-5.4.2-.8.8.2c2.5.6 3.9 2.5 4.5 6.1.3 2 .3 4.2-.2 6.4l-3.9 19.7v.1c0 .3-.2 1.1-.3 1.9v.2c-.2.6-.4 1.1-.4 1.6v.2c-1.5 5.5-5.5 14.7-14.5 14.7-.6 0-1.1.5-1.1 1.1 0 .6.5 1.1 1.1 1.1 2.7 0 5.2-.7 7.4-2.1 2.2-1.4 4.2-3.4 5.8-6.1l2.1-3.4-.7 4c-.1.3-.1.5-.1.9v1c0 1.5.6 2.9 1.7 3.9l.6.5-.6.6c-1.1 1.1-1.7 2.6-1.7 4.2s.7 3.1 1.8 4.3l.6.6-.7.6c-1.3.9-2 2.4-2 4.1zm19 3.7H95.6c-2.1 0-3.8-1.7-3.8-3.8s1.7-3.8 3.8-3.8h13.1c2.1 0 3.8 1.7 3.8 3.8 0 2.2-1.7 3.8-3.8 3.8zm7.7-10.8c-.7.7-1.7 1.1-2.7 1.1H95.6c-2.1 0-3.8-1.7-3.8-3.8s1.7-3.8 3.8-3.8h18.1c2.1 0 3.8 1.7 3.8 3.8 0 1.1-.4 2-1.1 2.7zm3.3-11h-.1c-.3 1.4-1.6 2.5-3.1 2.5H95.1c-1.8 0-3.3-1.5-3.3-3.3v-1c0-1.8 1.5-3.3 3.3-3.3h21.4c1.8 0 3.3 1.5 3.3 3.3v1.8z"/>
    <path class="st1" d="M47.3 28.6c-.3-.8-.9-1.4-1.7-1.5l-6-.9-2.7-5.4c-.4-.7-1.1-1.2-1.9-1.2-.8 0-1.6.5-1.9 1.2l-2.7 5.4-6 .9c-.8.1-1.5.7-1.7 1.5-.3.8-.1 1.6.5 2.2l4.3 4.2-1 5.9c-.2.8.2 1.6.9 2.1.4.3.8.4 1.2.4.2 0 .6 0 1-.3l5.4-2.8 5.4 2.8c.8.4 1.6.3 2.2-.2.7-.5 1-1.3.9-2.1l-1-5.9 4.3-4.2c.5-.5.7-1.4.5-2.1zM41 33.5c-.5.5-.7 1.2-.6 1.9l1.1 6.1-5.5-2.9c-.6-.3-1.4-.3-2 0l-5.5 2.9 1-6.1c.1-.7-.1-1.4-.6-1.9l-4.5-4.3 6.1-.9c.7-.1 1.3-.5 1.6-1.2l2.7-5.5 2.7 5.5c.3.6.9 1.1 1.6 1.2l6.1.9-4.2 4.3z"/>
    <path class="st1" d="M21.4 40c-.2-.6-.7-1-1.3-1.1l-4-.6-1.8-3.6c-.3-.6-.9-.9-1.5-.9s-1.2.4-1.5.9l-1.8 3.6-4 .6c-.7.1-1.2.5-1.4 1.1-.2.6 0 1.2.4 1.7l2.9 2.8-.7 4c-.1.6.1 1.2.7 1.6.3.2.6.3 1 .3.3 0 .5-.1.8-.2l3.6-1.9 3.6 1.9c.6.3 1.2.3 1.7-.1s.8-1 .7-1.6l-.7-4 2.9-2.8c.4-.4.5-1.1.4-1.7zm-4.6 3.3c-.4.4-.6.9-.5 1.5l.7 3.9-3.5-1.8c-.5-.3-1.1-.3-1.5 0l-3.5 1.8.7-3.9c.1-.5-.1-1.1-.5-1.5l-2.8-2.7 3.8-.6c.5-.1 1-.4 1.2-.9l1.7-3.5 1.7 3.5c.2.5.7.8 1.2.9l3.9.6-2.6 2.7z"/>
    <path class="st1" d="M130.3 40c-.2-.6-.7-1-1.3-1.1l-4-.6-1.8-3.6c-.3-.6-.9-.9-1.5-.9s-1.2.4-1.5.9l-1.8 3.6-4 .6c-.6.1-1.1.5-1.3 1.1-.2.6 0 1.2.4 1.7l2.9 2.8-.7 4c-.1.6.1 1.2.7 1.6.3.2.6.3 1 .3.3 0 .5-.1.8-.2l3.6-1.9 3.6 1.9c.6.3 1.2.3 1.7-.1s.8-1 .7-1.6l-.7-4 2.9-2.8c.3-.4.4-1.1.3-1.7zm-4.6 3.3c-.4.4-.6.9-.5 1.5l.7 3.9-3.5-1.8c-.5-.3-1.1-.3-1.5 0l-3.5 1.8.7-3.9c.1-.5-.1-1.1-.5-1.5l-2.8-2.7 3.9-.6c.5-.1 1-.4 1.2-.9l1.7-3.5 1.7 3.5c.2.5.7.8 1.2.9l3.9.6-2.7 2.7z"/>
    <path class="st1" d="M111.2 28.6c-.1-.4-.4-.7-.7-1-.3-.3-.7-.4-1.1-.5l-6-.9-2.7-5.4c-.4-.7-1.1-1.2-1.9-1.2s-1.5.4-1.9 1.2l-2.7 5.4-6 .9c-.8.1-1.5.7-1.7 1.5-.3.8-.1 1.6.5 2.2l4.3 4.2-1 5.9c-.1.8.2 1.6.9 2.1.4.3.8.4 1.2.4.2 0 .6 0 1-.3l5.4-2.8 5.4 2.8c.8.4 1.6.3 2.2-.2.7-.5 1-1.3.9-2.1l-1-5.9 4.3-4.2c.7-.5.8-1.4.6-2.1zm-6.3 4.9c-.5.5-.7 1.2-.6 1.9l1 6.1-5.5-2.9c-.6-.3-1.4-.3-2 0l-5.5 2.9 1-6.1c.1-.7-.1-1.4-.6-1.9l-4.4-4.3 6.1-.9c.7-.1 1.3-.5 1.6-1.2l2.7-5.5 2.7 5.5c.3.6.9 1.1 1.6 1.2l6.1.9-4.2 4.3z"/>
    <path class="st1" d="M85.6 14.9c-.4-1.1-1.4-2-2.5-2.1l-9.2-1.4-4.1-8.3C69.3 2 68.2 1.4 67 1.4s-2.3.6-2.8 1.7l-4.1 8.3-9.2 1.4c-1.2.2-2.2 1-2.5 2.1-.4 1.1-.1 2.4.8 3.2l6.6 6.5-1.6 9.1c-.2 1.2.3 2.4 1.2 3 1 .7 2.2.8 3.3.3l8.2-4.3 8.2 4.3c.5.2.9.4 1.5.4.7 0 1.3-.2 1.8-.6 1-.7 1.5-1.9 1.2-3.1L78 24.6l6.6-6.5c1.1-.9 1.4-2.1 1-3.2zm-9.3 7.5c-.7.7-1.1 1.8-.9 2.8l1.6 9.5-8.6-4.5c-.9-.5-2-.5-2.9 0L57 34.7l1.6-9.5c.2-1-.2-2.1-.9-2.8l-6.9-6.7 9.5-1.4c1-.2 1.9-.8 2.4-1.7L67 3.9l4.3 8.6c.4.9 1.3 1.6 2.4 1.7l9.5 1.4-6.9 6.8z"/>
</svg>
