<svg id="Layer_1" xmlns="http://www.w3.org/2000/svg" viewBox="0 0 512 512">
    <style>
        .st0{fill:#4b545c}.st1{fill:#82b056}
    </style>
    <path class="st0" d="M439.6 425.6L308.2 248.2l-1-1.3V117.7l3.3-1.2c8.4-3.1 15-9.3 18.8-17.4 3.7-8.1 4.1-17.2 1-25.6-4.8-13-17.3-21.7-31.1-21.8H187.3c-8.9 0-17.3 3.5-23.6 9.8-6.3 6.3-9.8 14.7-9.7 23.7 0 13.8 8.7 26.3 21.6 31.2l3.2 1.2v129.2l-1 1.3L46.5 425.5c-12.7 17.5-9.9 29.5-7 35 2.9 5.7 10.9 15.2 32.3 15.2h342.6c5 0 9.2-.5 12.9-1.4v-11.4c-3.6 1.2-8 1.9-12.9 1.9H71.7c-11.4 0-19.5-3.3-22.4-9.1-2.9-5.8-.7-14.4 6-23.4L189 252.1c.7-.9 1.1-2.1 1.1-3.3V118.5h23.7c3.1 0 5.6-2.5 5.6-5.5s-2.5-5.6-5.6-5.6h-25.9c-12.1 0-22.4-9.4-22.9-21.5-.5-12.7 9.7-23.2 22.3-23.2h111.3c12.1 0 22.4 9.4 22.8 21.5.5 12.7-9.7 23.1-22.3 23.1h-23.9c-3.2 0-5.8 2.8-5.5 6.1.3 2.9 2.9 5 5.8 5h20.7v130.2c0 1.2.4 2.3 1.1 3.3L431 432.1v.1c6.6 9.4 8.6 17.7 5.7 23.5-2.7 2.9-5.8 5.3-9.3 7.1h-.1v11.4c12-2.8 17.3-9.5 19.5-13.8 2.7-5.5 5.6-17.5-7.2-34.8z"/>
    <path class="st0" d="M351.9 356.6c0 3.1-2.5 5.5-5.6 5.5H344.6c-11.5 0-23-2.6-33.3-7.6-9.1-4.5-19.2-6.9-29.4-6.9h-3.3c-10 0-20.1 2.3-29.1 6.8-10.3 4.9-21.7 7.5-33.1 7.5h-3.2c-11.4 0-22.9-2.6-33.2-7.6-8.1-4-16.8-6.3-25.9-6.7-3.1-.2-5.4-2.8-5.3-5.9.2-3 2.6-5.3 5.5-5.3h.3c10.2.5 20.1 3 29.3 7.4 9.1 4.5 19.2 6.8 29.3 6.8h3.3c10.1 0 20.1-2.3 29.1-6.8 10.3-4.9 21.7-7.5 33.1-7.5h3.5c11.5 0 23 2.6 33.3 7.6 9.1 4.5 19.2 6.9 29.3 6.9h1.2v.1c3.4.1 5.9 2.6 5.9 5.7z"/>
    <path class="st0" d="M245.1 231.6c0 6.3-5.1 11.5-11.5 11.5-6.3 0-11.5-5.1-11.5-11.5 0-6.3 5.2-11.5 11.5-11.5s11.5 5.2 11.5 11.5z"/>
    <path class="st0" d="M271.4 291.7c0 4.3-3.5 7.9-7.9 7.9s-7.9-3.5-7.9-7.9c0-4.3 3.5-7.9 7.9-7.9s7.9 3.5 7.9 7.9z"/>
    <circle class="st0" cx="250.8" cy="165.8" r="8.6"/>
    <path class="st1" d="M416.3 263.7c0-46.3-18-89.8-50.8-122.5-32.7-32.7-76.2-50.8-122.5-50.8s-89.8 18-122.5 50.8c-32.7 32.7-50.8 76.2-50.8 122.5s18 89.8 50.8 122.5C153.2 418.9 196.7 437 243 437s89.8-18 122.5-50.8c32.8-32.7 50.8-76.2 50.8-122.5zm-307 94.8l272.1-182.7c16.2 25.4 25.6 55.6 25.6 87.9 0 90.4-73.6 164-164 164-55.1 0-103.9-27.4-133.7-69.2zm265.3-192.6L102.7 348.5c-15-24.8-23.7-53.8-23.7-84.8 0-90.4 73.6-164 164-164 53.9 0 101.7 26 131.6 66.2z"/>
</svg>
