<?xml version="1.0" encoding="UTF-8"?><!DOCTYPE svg PUBLIC "-//W3C//DTD SVG 1.1//EN" "http://www.w3.org/Graphics/SVG/1.1/DTD/svg11.dtd"><svg xmlns="http://www.w3.org/2000/svg"><symbol id="icon-facebook" viewBox="0 0 10 19">
    <title>
        facebook
    </title>
    <path d="M9.766.157v2.946H8.014c-.64 0-1.071.134-1.295.402-.223.268-.335.67-.335 1.205v2.11h3.27l-.435 3.303H6.384v8.471H2.97v-8.47H.123V6.82H2.97V4.387c0-1.384.387-2.457 1.161-3.22C4.904.404 5.934.023 7.222.023c1.093 0 1.941.045 2.544.134z" fill-rule="evenodd"/>
</symbol><symbol id="icon-twitter" viewBox="0 0 512 512">
    <path d="M191 466c-22.1 0-44.9-1.8-67.9-5.4-40.4-6.3-81.3-27.5-92.8-33.8L0 410.3l32.8-10.8c35.9-11.8 57.7-19.1 84.8-30.6-27.1-13.1-47.9-36.7-58-67.2L52 278.5l6.3 1c-5.9-6-10.6-12.1-14.3-17.6-12.9-19.6-19.8-43.6-18.3-64.2l1.4-20.2 12.1 4.7c-5.1-9.7-8.8-20-11-30.8C23 125 27.4 97 40.7 72.5l10.6-19.4 14.1 17c44.7 53.6 101.2 85.5 168.4 94.8-2.7-18.9-.7-37.1 6.1-53.5 7.9-19 22-35.2 40.7-46.7 20.8-12.8 46-19 71-17.4 26.5 1.6 50.6 11.6 69.7 28.7 9.3-2.4 16.2-5 25.5-8.5 5.6-2.1 11.9-4.5 19.9-7.2L496 50.2l-19.1 54.5 3.9-.3L512 103l-18.5 25.2c-1.1 1.4-1.3 1.9-1.7 2.4-1.5 2.2-3.3 5-28.7 38.9-6.3 8.5-9.5 19.5-8.9 31.1 2.2 44-3.1 83.8-16 118.2-12.2 32.6-31.1 60.6-56.2 83.2-31 27.9-70.6 47.1-117.6 56.8-23 4.8-47.8 7.2-73.4 7.2z"/>
</symbol><symbol id="icon-vimeo-logo" viewBox="0 0 430.1 430.1">
    <style>
        .st0{fill:#d2d2d2}
    </style>
    <path id="Vimeo" class="st0" d="M367.2 28.8c-59.8-2-100.3 31.6-121.4 100.7 10.9-4.5 21.5-6.8 31.9-6.8 21.8 0 31.5 12.2 28.9 36.8-1.3 14.9-10.9 36.5-28.9 64.9-18 28.4-31.5 42.6-40.5 42.6-11.6 0-22.2-22-31.9-65.8-3.2-12.9-9-45.8-17.3-98.8-7.8-49-28.3-72-61.7-68.7-14.1 1.2-35.3 14.1-63.6 38.6C42.1 91 21.2 109.8 0 128.5l20.2 26.1C39.5 141 50.8 134.3 54 134.3c14.8 0 28.6 23.2 41.5 69.7 11.5 42.6 23.2 85.2 34.7 127.8 17.3 46.5 38.5 69.7 63.6 69.7 40.5 0 90-38.1 148.5-114.2C398.8 214.4 428 156.9 430 115c2.5-56.2-18.4-85-62.8-86.2z"/>
</symbol></svg>