<svg id="Capa_1" xmlns="http://www.w3.org/2000/svg" viewBox="0 0 512 512">
    <style>
        .st0{fill:#82b056}
    </style>
    <path class="st0" d="M333.1 198.9c-1.9-1.9-4.4-2.9-7.1-2.9-2.6 0-5.2 1.1-7.1 2.9-1.9 1.9-2.9 4.4-2.9 7.1s1.1 5.2 2.9 7.1c1.9 1.9 4.4 2.9 7.1 2.9 2.6 0 5.2-1.1 7.1-2.9 1.9-1.9 2.9-4.4 2.9-7.1 0-2.6-1.1-5.2-2.9-7.1z"/>
    <path class="st0" d="M499.5 5.6c-.1-.1-.2-.2-.3-.2C494.3 2 488.4 0 482 0H202c-6 0-11.5 1.8-16.2 4.8-.4.2-.7.5-1.1.7C177 11 172 19.9 172 30v156c0 16.5 13.5 30 30 30h74c5.5 0 10-4.5 10-10s-4.5-10-10-10h-64.2l82.1-95.9 42.3 30.5c1.7 1.3 3.8 1.9 5.9 1.9 2 0 4.1-.6 5.8-1.9l42.3-30.5 82 95.8H370c-5.5 0-10 4.5-10 10s4.5 10 10 10h112c16.5 0 30-13.5 30-30V30c0-10-4.9-18.9-12.5-24.4zM192.2 188.1c-.1-.7-.2-1.4-.2-2.1V30c0-1.1.2-2.1.5-3.1l85.1 61.4-85.4 99.8zM342 110.2L217 20h250.3L342 110.2zM492 186c0 .7-.1 1.4-.2 2.1l-85.3-99.7 85.1-61.3c.3.9.4 1.8.4 2.8V186z"/>
    <path class="st0" d="M448 437.1c-1.5 0-2.9.3-4.2.9h-4.9c-5.5 0-10 4.5-10 10s4.5 10 10 10h9.1c5.5 0 10-4.5 10-10v-.9c0-5.5-4.5-10-10-10z"/>
    <path class="st0" d="M448 387.1c-5.5 0-10 4.5-10 10v10c0 5.5 4.5 10 10 10s10-4.5 10-10v-10c0-5.5-4.5-10-10-10z"/>
    <path class="st0" d="M398.9 438h-10c-5.5 0-10 4.5-10 10s4.5 10 10 10h10c5.5 0 10-4.5 10-10s-4.5-10-10-10z"/>
    <path class="st0" d="M448 237.1c-5.5 0-10 4.5-10 10v10c0 5.5 4.5 10 10 10s10-4.5 10-10v-10c0-5.5-4.5-10-10-10z"/>
    <path class="st0" d="M448 287.1c-5.5 0-10 4.5-10 10v10c0 5.5 4.5 10 10 10s10-4.5 10-10v-10c0-5.5-4.5-10-10-10z"/>
    <path class="st0" d="M448 337.1c-5.5 0-10 4.5-10 10v10c0 5.5 4.5 10 10 10s10-4.5 10-10v-10c0-5.5-4.5-10-10-10z"/>
    <path class="st0" d="M74 54H64c-5.5 0-10 4.5-10 10s4.5 10 10 10h10c5.5 0 10-4.5 10-10s-4.5-10-10-10z"/>
    <path class="st0" d="M124 54h-10c-5.5 0-10 4.5-10 10s4.5 10 10 10h10c5.5 0 10-4.5 10-10s-4.5-10-10-10z"/>
    <path class="st0" d="M64 94c-5.5 0-10 4.5-10 10v10c0 5.5 4.5 10 10 10s10-4.5 10-10v-10c0-5.5-4.5-10-10-10z"/>
    <path class="st0" d="M64 144c-5.5 0-10 4.5-10 10v10c0 5.5 4.5 10 10 10s10-4.5 10-10v-10c0-5.5-4.5-10-10-10z"/>
    <path class="st0" d="M110.6 405.4c-1.9-1.9-4.4-2.9-7.1-2.9-2.6 0-5.2 1.1-7.1 2.9-1.9 1.9-2.9 4.4-2.9 7.1s1.1 5.2 2.9 7.1c1.9 1.9 4.4 2.9 7.1 2.9s5.2-1.1 7.1-2.9c1.9-1.9 2.9-4.4 2.9-7.1s-1-5.3-2.9-7.1z"/>
    <path class="st0" d="M311.3 415.9l-52.7-52.7c-15.1-15.1-39.7-15.1-54.9 0l-3.4 3.4c-4.8 4.8-12.5 4.8-17.3 0L145.3 329c-2.3-2.3-3.6-5.4-3.6-8.6s1.3-6.3 3.6-8.6l3.4-3.4c15.1-15.1 15.1-39.7 0-54.9L96 200.8c-15.1-15.1-39.7-15.1-54.9 0l-12.6 12.6c-38.1 38.1-38.1 100.2 0 138.3L63 386c3.9 3.9 10.2 3.9 14.1 0 3.9-3.9 3.9-10.2 0-14.1l-34.4-34.4c-30.3-30.3-30.3-79.7 0-110l12.6-12.6c7.3-7.3 19.2-7.3 26.6 0l52.7 52.7c7.3 7.3 7.3 19.2 0 26.6l-3.4 3.4c-1.3 1.3-2.4 2.6-3.4 4L86.1 260c-3.9-3.9-10.2-3.9-14.1 0-3.9 3.9-3.9 10.2 0 14.1l50 50c.8 7.2 4 13.9 9.2 19.1l37.7 37.7c12.6 12.6 33 12.6 45.6 0l3.4-3.4c7.3-7.3 19.2-7.3 26.6 0l52.7 52.7c3.5 3.5 5.5 8.3 5.5 13.3s-2 9.7-5.5 13.3L290 464l-48-48c-3.9-3.9-10.2-3.9-14.1 0-3.9 3.9-3.9 10.2 0 14.1l47.3 47.3c-30.4 22-73.3 19.4-100.7-8l-25.9-25.9c-3.9-3.9-10.2-3.9-14.1 0-3.9 3.9-3.9 10.2 0 14.1l25.9 25.9c19.1 19.1 44.1 28.6 69.2 28.6s50.1-9.5 69.2-28.6l12.6-12.6c7.3-7.3 11.4-17.1 11.4-27.4s-4.2-20.2-11.5-27.6z"/>
</svg>
