<svg id="Layer_1" xmlns="http://www.w3.org/2000/svg" viewBox="0 0 512 512">
    <style>
        .st0{fill:#82b056}
    </style>
    <path class="st0" d="M431.3 0H80.7c-5.6 0-10.2 4.6-10.2 10.2v491.6c0 5.6 4.6 10.2 10.2 10.2h266.6c2.7 0 5.3-1.1 7.2-3l84-84c1.9-1.9 3-4.5 3-7.2V10.2c0-5.6-4.6-10.2-10.2-10.2zm-73.8 477.2v-49.3h49.3l-49.3 49.3zm63.6-69.6l-73.9-.1c-2.7 0-5.3 1.1-7.2 3-1.9 1.9-3 4.5-3 7.2l.1 73.9H90.9V20.4h330.2v387.2z"/>
    <path class="st0" d="M175 368c-25.6 0-46.5 20.9-46.5 46.5S149.4 461 175 461s46.5-20.9 46.5-46.5c0-25.7-20.8-46.5-46.5-46.5zm0 72.6c-14.4 0-26.1-11.7-26.1-26.1s11.7-26.1 26.1-26.1 26.1 11.7 26.1 26.1-11.7 26.1-26.1 26.1z"/>
    <path class="st0" d="M308 405.9h-56.1c-5.6 0-10.2 4.6-10.2 10.2s4.6 10.2 10.2 10.2H308c5.6 0 10.2-4.6 10.2-10.2s-4.6-10.2-10.2-10.2z"/>
    <path class="st0" d="M171.3 61.2h-29.6c-5.6 0-10.2 4.6-10.2 10.2s4.6 10.2 10.2 10.2h29.6c5.6 0 10.2-4.6 10.2-10.2s-4.5-10.2-10.2-10.2z"/>
    <path class="st0" d="M374.3 61.2h-88.7c-5.6 0-10.2 4.6-10.2 10.2s4.6 10.2 10.2 10.2h88.7c5.6 0 10.2-4.6 10.2-10.2s-4.6-10.2-10.2-10.2z"/>
    <path class="st0" d="M374.3 105.1H223.4c-5.6 0-10.2 4.6-10.2 10.2s4.6 10.2 10.2 10.2h150.9c5.6 0 10.2-4.6 10.2-10.2 0-5.7-4.6-10.2-10.2-10.2z"/>
    <path class="st0" d="M374.8 185.6H137.2c-5.6 0-10.2 4.6-10.2 10.2s4.6 10.2 10.2 10.2h237.6c5.6 0 10.2-4.6 10.2-10.2s-4.5-10.2-10.2-10.2z"/>
    <path class="st0" d="M374.8 220.3H137.2c-5.6 0-10.2 4.6-10.2 10.2s4.6 10.2 10.2 10.2h237.6c5.6 0 10.2-4.6 10.2-10.2s-4.5-10.2-10.2-10.2z"/>
    <path class="st0" d="M374.8 258H137.2c-5.6 0-10.2 4.6-10.2 10.2s4.6 10.2 10.2 10.2h237.6c5.6 0 10.2-4.6 10.2-10.2s-4.5-10.2-10.2-10.2z"/>
    <path class="st0" d="M374.8 292.7h-5.6c-5.6 0-10.2 4.6-10.2 10.2s4.6 10.2 10.2 10.2h5.6c5.6 0 10.2-4.6 10.2-10.2s-4.5-10.2-10.2-10.2z"/>
    <path class="st0" d="M333.5 292.7H137.2c-5.6 0-10.2 4.6-10.2 10.2s4.6 10.2 10.2 10.2h196.3c5.6 0 10.2-4.6 10.2-10.2s-4.6-10.2-10.2-10.2z"/>
</svg>
