<svg id="Capa_1" xmlns="http://www.w3.org/2000/svg" viewBox="0 0 512 512">
    <style>
        .st0{fill:#82b056}
    </style>
    <path class="st0" d="M504.5 242.6c-5.6-1.6-10.4 1.9-12.3 7-3.3 8.7-15.7 14-24.7 15.1-13.5 1.8-26.7-4.2-38.7-9.7-14.2-6.6-28.8-12.9-44.8-12.7-16 .1-31.7 6.5-44.8 15.6-14.7 10.1-26.5 23.4-38.1 36.9-3.5 4.1-4 10.2 0 14.2 3.6 3.6 10.6 4.1 14.2 0 18.6-21.6 43-50.2 75-46.3 15.1 1.9 28.6 10.3 42.4 15.9 14.2 5.8 29.8 8.5 44.9 4.5 14.9-3.9 28.4-13.4 34-28.1 1.8-5.2-2.2-11.1-7.1-12.4z"/>
    <path class="st0" d="M206.5 136.6c9.5-13.1 19.6-27.2 22.5-43.5 2.8-15.8-1.3-31.8-10.1-45.1-10.2-15.4-24.9-26.4-39.5-37.3-4.3-3.2-11.2-.7-13.7 3.6-3 5.1-.8 10.5 3.6 13.7 22.4 16.8 50.5 40.1 37 71.3-12 27.7-43.2 50-39.3 83.3 1.9 16 11.4 30.5 27.6 34.8 12.5 3.3 17.8-16.1 5.3-19.4-10.1-2.7-14.1-13.7-13-23.4 1.5-14.1 11.6-26.9 19.6-38z"/>
    <path class="st0" d="M350.6 160.9c-1.6-13.3-9.2-25.4-20.5-32.8-6.3-4.1-13.1-6.2-20.1-6.8 3.4-11.3 9.9-21.7 19.2-28.9 4.3-3.3 6.6-8.6 3.6-13.7-2.5-4.2-9.4-6.9-13.7-3.6-16 12.3-26.7 29.9-30.6 49.3-13.1 4.8-24.8 14.4-31.5 26.3-18 32.1-6.6 69.7 11.5 98.9 6.8 10.9 24.2.9 17.3-10.1-11.8-19-21.8-41.9-16.7-64.8 2.5-11.1 8.9-21.5 18-27.7.9 11 4 21.9 9.4 31.5 7.5 13.4 21.7 24.5 37.3 17 12.8-5.8 18.4-21.4 16.8-34.6zm-22.3 13.9c-5.5 7.8-11.2-.7-14.3-6.2-4.2-7.5-6.4-16-6.8-24.5 0-.9 0-1.8-.1-2.7.5 0 1 0 1.5.1 14.7 1.3 29 19.9 19.7 33.3z"/>
    <path class="st0" d="M391.4 188.3c-12.9 0-12.9 20.1 0 20.1s12.9-20.1 0-20.1z"/>
    <path class="st0" d="M403.9 159.3c-12.9 0-12.9 20.1 0 20.1s13-20.1 0-20.1z"/>
    <path class="st0" d="M423.5 184.9c-12.9 0-12.9 20.1 0 20.1s13-20.1 0-20.1z"/>
    <path class="st0" d="M89.7 102.8c-12.9 0-12.9 20.1 0 20.1 12.9-.1 12.9-20.1 0-20.1z"/>
    <path class="st0" d="M102.2 73.7c-12.9 0-12.9 20.1 0 20.1s12.9-20.1 0-20.1z"/>
    <path class="st0" d="M121.8 99.3c-12.9 0-12.9 20.1 0 20.1s12.9-20.1 0-20.1z"/>
    <path class="st0" d="M283.3 354.4L150.1 221.1c-2.3-2.3-5.5-3.3-8.7-2.8-3.2.5-5.9 2.5-7.4 5.4l-12 24L1.1 490c-1.9 3.9-1.2 8.5 1.9 11.6 1.9 1.9 4.5 2.9 7.1 2.9 1.5 0 3.1-.3 4.5-1.1l266.2-132.9c2.9-1.4 4.9-4.2 5.4-7.4.5-3.1-.6-6.4-2.9-8.7zM32.4 472l43.4-86.9L90.4 443l-58 29zm165.7-82.7L181 347.7c-2.1-5.1-8-7.6-13.1-5.5-5.1 2.1-7.6 8-5.5 13.1l17.7 43-71.2 35.6-19.3-76.3 40.5-81.2 11.1 27.2c1.6 3.9 5.3 6.2 9.3 6.2 1.3 0 2.6-.2 3.8-.8 5.1-2.1 7.6-8 5.5-13.1L142 252.6l3.7-7.4 113.6 113.6-61.2 30.5z"/>
    <path class="st0" d="M470.6 333.4c-22.4 0-40.6 18.2-40.6 40.6 0 22.4 18.2 40.6 40.6 40.6 22.4 0 40.6-18.2 40.6-40.6 0-22.4-18.2-40.6-40.6-40.6zm0 61.1c-11.3 0-20.5-9.2-20.5-20.5s9.2-20.5 20.5-20.5 20.5 9.2 20.5 20.5-9.2 20.5-20.5 20.5z"/>
    <path class="st0" d="M459.8 50.8l-40.4-40.4c-1.9-1.9-4.4-2.9-7.1-2.9s-5.2 1.1-7.1 2.9l-40.4 40.4c-3.9 3.9-3.9 10.3 0 14.2l40.4 40.4c2 2 4.5 2.9 7.1 2.9s5.1-1 7.1-2.9L459.8 65c1.9-1.9 2.9-4.4 2.9-7.1.1-2.6-1-5.2-2.9-7.1zm-47.4 33.3l-26.2-26.2 26.2-26.2 26.2 26.2-26.2 26.2z"/>
    <path class="st0" d="M160.3 315.9c-12.9 0-12.9 20.1 0 20.1s12.9-20.1 0-20.1z"/>
</svg>
