<svg id="Слой_1" xmlns="http://www.w3.org/2000/svg" viewBox="0 0 496 496">
    <style>
        .st0{fill:#82b056}
    </style>
    <path class="st0" d="M216 292c0 6.6 5.4 12 12 12s12-5.4 12-12-5.4-12-12-12-12 5.4-12 12zm12-4c2.2 0 4 1.8 4 4s-1.8 4-4 4-4-1.8-4-4 1.8-4 4-4z"/>
    <path class="st0" d="M272 292c0 6.6 5.4 12 12 12s12-5.4 12-12-5.4-12-12-12-12 5.4-12 12zm12-4c2.2 0 4 1.8 4 4s-1.8 4-4 4-4-1.8-4-4 1.8-4 4-4z"/>
    <path class="st0" d="M176 176h17.6l13.9 62.7c-4.6 4.4-7.5 10.5-7.5 17.3 0 13.2 10.8 24 24 24h96v-16h-96c-4.4 0-8-3.6-8-8s3.6-8 8-8h80c3.4 0 6.5-2.2 7.6-5.5l16-48c.8-2.4.4-5.1-1.1-7.2-1.5-2.1-3.9-3.3-6.5-3.3H211.8l-3.9-17.7c-.8-3.7-4.1-6.3-7.8-6.3h-24v16zm78.8 56l-5.3-32h21.1l-5.3 32h-10.5zm43.4 0h-16.8l5.3-32h22.1l-10.6 32zm-65-32l5.3 32H224c-.5 0-1 .1-1.5.2l-7.1-32.2h17.8z"/>
    <path class="st0" d="M376 0H120C97.9 0 80 17.9 80 40v416c0 22.1 17.9 40 40 40h256c22.1 0 40-17.9 40-40V40c0-22.1-17.9-40-40-40zM120 16h256c13.2 0 24 10.8 24 24v8H96v-8c0-13.2 10.8-24 24-24zm280 48v320H96V64h304zm-24 416H120c-13.2 0-24-10.8-24-24v-56h304v56c0 13.2-10.8 24-24 24z"/>
    <path class="st0" d="M248 416c-13.2 0-24 10.8-24 24s10.8 24 24 24 24-10.8 24-24-10.8-24-24-24zm0 32c-4.4 0-8-3.6-8-8s3.6-8 8-8 8 3.6 8 8-3.6 8-8 8z"/>
    <path class="st0" d="M225.6 114.2l-3.2-15.7c-5.8 1.2-11.5 2.8-17.1 4.7l5.3 15.1c4.9-1.6 9.9-3 15-4.1z"/>
    <path class="st0" d="M195.7 124.9l-7.5-14.1c-5.9 3.1-11.7 6.8-17.1 10.8l9.6 12.8c4.8-3.6 9.8-6.7 15-9.5z"/>
    <path class="st0" d="M158.4 156.8l-12.8-9.6c-4 5.4-7.7 11.1-10.8 17.1l14.1 7.5c2.8-5.3 5.9-10.3 9.5-15z"/>
    <path class="st0" d="M142.4 186.7l-15.1-5.3c-2 5.5-3.5 11.3-4.7 17.1l15.7 3.2c1-5.2 2.4-10.2 4.1-15z"/>
    <path class="st0" d="M120.3 232.5l16-1.1c-.2-2.5-.2-5-.2-7.5s.1-5 .2-7.5l-16-1.1c-.2 2.8-.3 5.7-.3 8.5s.1 5.9.3 8.7z"/>
    <path class="st0" d="M138.2 246.4l-15.7 3.2c1.2 5.8 2.8 11.5 4.7 17.1l15.1-5.3c-1.6-4.9-3-9.9-4.1-15z"/>
    <path class="st0" d="M134.8 283.7c3.1 5.9 6.8 11.7 10.8 17.1l12.8-9.6c-3.5-4.7-6.7-9.7-9.5-14.9l-14.1 7.4z"/>
    <path class="st0" d="M171.2 326.4c5.4 4.1 11.1 7.7 17.1 10.8l7.5-14.2c-5.2-2.7-10.2-5.9-14.9-9.5l-9.7 12.9z"/>
    <path class="st0" d="M205.3 344.7c5.5 2 11.3 3.6 17.1 4.7l3.2-15.7c-5.1-1-10.1-2.4-14.9-4.1l-5.4 15.1z"/>
    <path class="st0" d="M240.5 335.8l-1 16a120.68 120.68 0 0 0 17 0l-1-16c-5 .3-10 .3-15 0z"/>
    <path class="st0" d="M270.4 333.8l3.2 15.7c5.8-1.2 11.5-2.8 17.1-4.7l-5.3-15.1c-4.9 1.6-9.9 3-15 4.1z"/>
    <path class="st0" d="M300.3 323.1l7.5 14.1c6-3.2 11.7-6.8 17.1-10.8l-9.6-12.8c-4.8 3.5-9.8 6.7-15 9.5z"/>
    <path class="st0" d="M337.6 291.2l12.8 9.6c4-5.4 7.7-11.1 10.8-17.1l-14.1-7.5c-2.8 5.3-5.9 10.3-9.5 15z"/>
    <path class="st0" d="M353.6 261.3l15.1 5.3c2-5.5 3.5-11.3 4.7-17.1l-15.7-3.2c-1 5.2-2.4 10.2-4.1 15z"/>
    <path class="st0" d="M360 224c0 2.5-.1 5-.2 7.5l16 1.1a120.68 120.68 0 0 0 0-17l-16 1.1c.1 2.3.2 4.8.2 7.3z"/>
    <path class="st0" d="M357.8 201.6l15.7-3.2c-1.2-5.8-2.8-11.5-4.7-17.1l-15.1 5.3c1.6 4.9 3 9.9 4.1 15z"/>
    <path class="st0" d="M361.2 164.3c-3.1-5.9-6.8-11.7-10.8-17.1l-12.8 9.6c3.5 4.7 6.7 9.7 9.5 14.9l14.1-7.4z"/>
    <path class="st0" d="M324.8 121.6c-5.4-4.1-11.1-7.7-17.1-10.8l-7.5 14.2c5.2 2.7 10.2 5.9 14.9 9.5l9.7-12.9z"/>
    <path class="st0" d="M290.7 103.3c-5.5-2-11.3-3.6-17.1-4.7l-3.2 15.7c5.1 1 10.1 2.4 14.9 4.1l5.4-15.1z"/>
    <path class="st0" d="M255.5 112.2l1-16c-5.6-.4-11.4-.4-17 0l1 16c5-.3 10-.3 15 0z"/>
</svg>
