<svg id="Слой_1" xmlns="http://www.w3.org/2000/svg" viewBox="0 0 496 496">
    <style>
        .st0{fill:#82b056}
    </style>
    <path class="st0" d="M488 208v-24c0-4.4-3.6-8-8-8h-8v-32c0-46.2-30.3-85.4-72-98.9V16c0-4.4-3.6-8-8-8h-48c-4.4 0-8 3.6-8 8v29.1c-41.7 13.5-72 52.7-72 98.9v32h-8c-4.4 0-8 3.6-8 8v24h-40v-37.9c3.4-.9 6.7-2.3 9.8-4.3 8.9-6 14.2-15.9 14.2-26.6V96c0-4.4-3.6-8-8-8h-48c-4.4 0-8 3.6-8 8v43.2c0 10.7 5.3 20.7 14.2 26.6 3 2 6.3 3.4 9.8 4.3V208h-40v-72.5c0-11.6-3.2-23-9.1-32.9l-9.2-15.3C130 81.1 128 74 128 66.7V16c0-8.8-7.2-16-16-16H96c-8.8 0-16 7.2-16 16v50.7c0 7.2-2 14.4-5.7 20.6l-9.2 15.3c-6 9.9-9.1 21.3-9.1 32.9V208H8c-4.4 0-8 3.6-8 8v192c0 2.1.8 4.2 2.3 5.7L16 427.3V480c0 8.8 7.2 16 16 16h24c8.8 0 16-7.2 16-16v-9.5c21.4 5.4 45-.1 61.7-16.8 18.9-18.9 49.7-18.9 68.7 0 12.2 12.2 28.4 18.9 45.6 18.9s33.5-6.7 45.7-18.9c18.9-18.9 49.7-18.9 68.7 0 16.7 16.7 40.3 22.2 61.6 16.8v9.5c0 8.8 7.2 16 16 16h24c8.8 0 16-7.2 16-16v-52.7l13.7-13.7c1.5-1.5 2.3-3.5 2.3-5.7V216c0-4.4-3.6-8-8-8zm-304-68.8V104h32v35.2c0 5.4-2.7 10.3-7.1 13.3-5.4 3.6-12.4 3.6-17.8 0-4.4-3-7.1-8-7.1-13.3zM352 24h32v17.4c-5.2-.8-10.5-1.4-16-1.4s-10.8.6-16 1.4V24zm-72 120c0-48.5 39.5-88 88-88s88 39.5 88 88v32H280v-32zm-16 48h208v16H264v-16zM112 16v16H96V16h16zM72 135.5c0-8.7 2.4-17.2 6.8-24.7L88 95.5c5.2-8.7 8-18.7 8-28.8V48h16v18.7c0 10.1 2.8 20.1 8 28.8l9.2 15.3c4.5 7.4 6.8 16 6.8 24.7V208H72v-72.5zM16 224h64v231.9c-9.9-1.6-19.1-6.3-26.3-13.5L16 404.7V224zm40 256H32v-36.7l10.4 10.4c4.2 4.2 8.8 7.6 13.6 10.3v16zm66.3-37.6c-7.3 7.3-16.4 11.9-26.3 13.5V224h64v200c-13.8 1.7-27.1 7.8-37.7 18.4zM176 424V224h64v231.9c-9.9-1.6-19.1-6.3-26.4-13.5-10.5-10.6-23.8-16.7-37.6-18.4zm106.3 18.4c-7.3 7.3-16.4 11.9-26.3 13.5V224h64v200c-13.8 1.7-27.1 7.8-37.7 18.4zm91.3-.1C363 431.7 349.7 425.7 336 424V224h64v231.9c-9.9-1.7-19.1-6.3-26.4-13.6zM464 480h-24v-16c4.9-2.8 9.5-6.2 13.6-10.3l10.4-10.4V480zm16-75.3l-37.7 37.7c-7.3 7.3-16.4 11.9-26.3 13.5V224h64v180.7z"/>
    <path class="st0" d="M376 80v16c17.6 0 32 14.4 32 32h16c0-26.5-21.5-48-48-48z"/>
</svg>
