<svg id="Layer_1" xmlns="http://www.w3.org/2000/svg" viewBox="0 0 512 512">
    <style>
        .st0{fill:#82b056;stroke:#82b056;stroke-width:3;stroke-miterlimit:10}
    </style>
    <path class="st0" d="M179.5 377.9c-1 1.8-2.5 2.3-3.9 2.3s-2.8-.5-3.8-2.3l-10.1-19v38.5c0 2.4-2.9 3.6-5.7 3.6-2.9 0-5.7-1.2-5.7-3.6v-54.9c0-4.2 2.8-5.7 5.7-5.7 4.1 0 6 .9 8.9 6.1l10.8 19.7 10.8-19.7c2.9-5.2 4.8-6.1 9-6.1 2.9 0 5.7 1.5 5.7 5.7v54.9c0 2.4-2.9 3.6-5.7 3.6-2.9 0-5.7-1.2-5.7-3.6v-37.8l-10.3 18.3z"/>
    <path class="st0" d="M233 364.4h13.4c2.3 0 3.6 2.2 3.6 4.6 0 2-1.1 4.4-3.6 4.4H233V391h24.9c2.3 0 3.6 2.4 3.6 5.1 0 2.4-1.1 4.9-3.6 4.9h-31.3c-2.5 0-5-1.2-5-3.6v-57c0-2.4 2.5-3.6 5-3.6h31.3c2.5 0 3.6 2.6 3.6 4.9 0 2.7-1.3 5.1-3.6 5.1H233v17.6z"/>
    <path class="st0" d="M308.3 397.4l-18.9-35.3v35.3c0 2.4-2.9 3.6-5.7 3.6-2.9 0-5.7-1.2-5.7-3.6v-57c0-2.5 2.8-3.6 5.7-3.6 4.1 0 5.8.9 8.5 6.1l17 32.8v-35.3c0-2.5 2.8-3.5 5.7-3.5 2.8 0 5.7 1.1 5.7 3.5v57.1c0 2.4-2.9 3.6-5.7 3.6-2.7-.1-5.1-1-6.6-3.7z"/>
    <path class="st0" d="M371.5 340.3c0-2.5 2.8-3.5 5.7-3.5 2.8 0 5.7 1.1 5.7 3.5v41.1c0 14.7-9.3 20.1-21.1 20.1-11.9 0-21.1-5.4-21.1-20.1v-41.1c0-2.5 2.8-3.5 5.7-3.5 2.8 0 5.7 1.1 5.7 3.5v41.1c0 6.9 3.6 10.1 9.7 10.1s9.7-3.3 9.7-10.1v-41.1z"/>
    <path class="st0" d="M394.1 418.4h-41.8c-4.1 0-7.4 3.3-7.4 7.4s3.3 7.4 7.4 7.4h41.8c4.1 0 7.4-3.3 7.4-7.4 0-4.1-3.3-7.4-7.4-7.4z"/>
    <path class="st0" d="M317.8 418.4H148.7c-4.1 0-7.4 3.3-7.4 7.4s3.3 7.4 7.4 7.4h169.1c4.1 0 7.4-3.3 7.4-7.4 0-4.1-3.3-7.4-7.4-7.4z"/>
    <path class="st0" d="M394.1 305.1H148.7c-4.1 0-7.4 3.3-7.4 7.4s3.3 7.4 7.4 7.4h245.4c4.1 0 7.4-3.3 7.4-7.4s-3.3-7.4-7.4-7.4z"/>
    <path class="st0" d="M390 213.1h-7.2C380 162 342.6 119.9 293.7 110l1.4-13.7c.5-4.5-1-8.9-4-12.3-3-3.3-7.3-5.3-11.8-5.3h-15.9c-4.5 0-8.8 1.9-11.8 5.3-3 3.3-4.5 7.8-4 12.3L249 110c-48.9 10-86.3 52-89.1 103.2h-7.2c-6.4 0-11.6 5.2-11.6 11.6V240c0 6.4 5.2 11.6 11.6 11.6H390c6.4 0 11.6-5.2 11.6-11.6v-15.3c-.1-6.4-5.3-11.6-11.6-11.6zM262.7 93.9c.2-.2.5-.3.8-.3h15.9c.3 0 .6.1.8.3.2.2.3.5.3.8L279 108a96.53 96.53 0 0 0-15.2 0l-1.4-13.3c0-.3.1-.5.3-.8zm124 142.8H156.2V228h31.3c4.1 0 7.4-3.3 7.4-7.4 0-4.1-3.3-7.4-7.4-7.4H175c3.2-50.5 45.2-90.6 96.5-90.6s93.3 40.1 96.5 90.6H222c-4.1 0-7.4 3.3-7.4 7.4 0 4.1 3.3 7.4 7.4 7.4h164.7v8.7z"/>
    <path class="st0" d="M447.1 5.8H95.7c-10.4 0-18.9 8.5-18.9 18.9V38h-6.9c-12.7 0-23.1 10.4-23.1 23.1s10.4 23.1 23.1 23.1h6.9V116h-6.9c-12.7 0-23.1 10.4-23.1 23.1s10.4 23.1 23.1 23.1h6.9v31.7h-6.9c-12.7 0-23.1 10.4-23.1 23.1 0 12.7 10.4 23.1 23.1 23.1h6.9v31.7h-6.9c-12.7 0-23.1 10.4-23.1 23.1S57.2 318 69.9 318h6.9v31.7h-6.9c-12.7 0-23.1 10.4-23.1 23.1s10.4 23.1 23.1 23.1h6.9v31.7h-6.9c-12.7 0-23.1 10.4-23.1 23.1S57.2 474 69.9 474h6.9v13.4c0 10.4 8.5 18.9 18.9 18.9h351.4c10.4 0 18.9-8.5 18.9-18.9V24.6c0-10.4-8.5-18.8-18.9-18.8zM76.8 69.4h-6.9c-4.6 0-8.3-3.7-8.3-8.3s3.7-8.3 8.3-8.3h6.9v16.6zm0 78h-6.9c-4.6 0-8.3-3.7-8.3-8.3s3.7-8.3 8.3-8.3h6.9v16.6zm0 77.9h-6.9c-4.6 0-8.3-3.7-8.3-8.3s3.7-8.3 8.3-8.3h6.9v16.6zm0 77.9h-6.9c-4.6 0-8.3-3.7-8.3-8.3 0-4.6 3.7-8.3 8.3-8.3h6.9v16.6zm0 78h-6.9c-4.6 0-8.3-3.7-8.3-8.3 0-4.6 3.7-8.3 8.3-8.3h6.9v16.6zm0 77.9h-6.9c-4.6 0-8.3-3.7-8.3-8.3 0-4.6 3.7-8.3 8.3-8.3h6.9v16.6zm374.4 28.3c0 2.2-1.8 4.1-4.1 4.1H95.7c-2.2 0-4.1-1.8-4.1-4.1V24.6c0-2.2 1.8-4.1 4.1-4.1h351.4c2.2 0 4.1 1.8 4.1 4.1v462.8z"/>
</svg>
